<svg xmlns="http://www.w3.org/2000/svg" width="158.727" height="74.606" viewBox="0 0 158.727 74.606">
  <g id="Grupo_966768" data-name="Grupo 966768" transform="translate(-563.168 -4394.466)">
    <rect id="Rectángulo_341894" data-name="Rectángulo 341894" width="158.727" height="74.606" transform="translate(563.168 4394.466)" fill="#fdf8e4"/>
    <g id="Grupo_966468" data-name="Grupo 966468" transform="translate(5.727 -219.73)">
      <path id="Trazado_732242" data-name="Trazado 732242" d="M3.57-10.531v2.078H5.016V-6.8H3.57v4.219a1.007,1.007,0,0,0,.18.672.9.9,0,0,0,.688.2A3.6,3.6,0,0,0,5.1-1.758V-.047a4.648,4.648,0,0,1-1.367.2,2.156,2.156,0,0,1-2.422-2.4V-6.8H.078V-8.453H1.313v-2.078Zm13.867,4.7H10.453V-7.672h6.984Zm0,3.383H10.453V-4.289h6.984Z" transform="translate(586.441 4656)" fill="#12263f"/>
      <path id="Trazado_732240" data-name="Trazado 732240" d="M-30.148,0h-2.258V-8.715l-2.7.832V-9.7l4.711-1.687h.242ZM-18.8-4.7a5.763,5.763,0,0,1-.977,3.609A3.409,3.409,0,0,1-22.633.156,3.433,3.433,0,0,1-25.477-1.07a5.594,5.594,0,0,1-1.008-3.516V-6.68A5.687,5.687,0,0,1-25.5-10.3a3.434,3.434,0,0,1,2.848-1.234A3.437,3.437,0,0,1-19.8-10.309,5.576,5.576,0,0,1-18.8-6.8Zm-2.258-2.3a4.165,4.165,0,0,0-.387-2.061,1.307,1.307,0,0,0-1.207-.645,1.284,1.284,0,0,0-1.176.614,3.9,3.9,0,0,0-.4,1.92v2.768a4.373,4.373,0,0,0,.379,2.068,1.29,1.29,0,0,0,1.215.676,1.268,1.268,0,0,0,1.2-.649A4.268,4.268,0,0,0-21.055-4.3ZM-9.617-4.7a5.762,5.762,0,0,1-.977,3.609A3.409,3.409,0,0,1-13.453.156,3.433,3.433,0,0,1-16.3-1.07,5.594,5.594,0,0,1-17.3-4.586V-6.68a5.687,5.687,0,0,1,.988-3.617,3.434,3.434,0,0,1,2.848-1.234,3.437,3.437,0,0,1,2.844,1.223A5.576,5.576,0,0,1-9.617-6.8Zm-2.258-2.3a4.165,4.165,0,0,0-.387-2.061,1.307,1.307,0,0,0-1.207-.645,1.284,1.284,0,0,0-1.176.614,3.9,3.9,0,0,0-.4,1.92v2.768a4.372,4.372,0,0,0,.379,2.068,1.29,1.29,0,0,0,1.215.676,1.268,1.268,0,0,0,1.2-.649A4.268,4.268,0,0,0-11.875-4.3ZM-.437-4.7a5.762,5.762,0,0,1-.977,3.609A3.409,3.409,0,0,1-4.273.156,3.433,3.433,0,0,1-7.117-1.07,5.594,5.594,0,0,1-8.125-4.586V-6.68A5.687,5.687,0,0,1-7.137-10.3a3.434,3.434,0,0,1,2.848-1.234,3.437,3.437,0,0,1,2.844,1.223A5.576,5.576,0,0,1-.437-6.8ZM-2.7-7.005a4.165,4.165,0,0,0-.387-2.061,1.307,1.307,0,0,0-1.207-.645A1.284,1.284,0,0,0-5.465-9.1a3.9,3.9,0,0,0-.4,1.92v2.768a4.372,4.372,0,0,0,.379,2.068,1.29,1.29,0,0,0,1.215.676,1.268,1.268,0,0,0,1.2-.649A4.268,4.268,0,0,0-2.7-4.3ZM7.656-1.883h4.977V0H5.313V-11.375H7.656ZM19.609-7.52l-2.453-.695.461-1.413,2.43.976-.156-2.724h1.531L21.266-8.6l2.367-.96.461,1.428-2.5.695,1.641,2.078-1.242.883L20.57-6.754l-1.406,2.2-1.242-.844ZM33.625-2.336a.727.727,0,0,0-.41-.652A4.659,4.659,0,0,0,31.9-3.414q-3.016-.633-3.016-2.562a2.323,2.323,0,0,1,.934-1.879,3.766,3.766,0,0,1,2.441-.754,4.053,4.053,0,0,1,2.574.758A2.388,2.388,0,0,1,35.8-5.883H33.539a1.092,1.092,0,0,0-.312-.8A1.322,1.322,0,0,0,32.25-7a1.351,1.351,0,0,0-.883.258.814.814,0,0,0-.312.656.7.7,0,0,0,.355.605,3.657,3.657,0,0,0,1.2.4,9.8,9.8,0,0,1,1.422.379A2.336,2.336,0,0,1,35.82-2.43a2.2,2.2,0,0,1-.992,1.871,4.28,4.28,0,0,1-2.562.715,4.47,4.47,0,0,1-1.887-.379,3.166,3.166,0,0,1-1.293-1.039,2.414,2.414,0,0,1-.469-1.426h2.141a1.179,1.179,0,0,0,.445.922,1.766,1.766,0,0,0,1.109.32,1.635,1.635,0,0,0,.98-.246A.766.766,0,0,0,33.625-2.336ZM-9.027,19.3A5.762,5.762,0,0,1-10,22.906a3.409,3.409,0,0,1-2.859,1.25,3.433,3.433,0,0,1-2.844-1.227,5.594,5.594,0,0,1-1.008-3.516V17.32a5.687,5.687,0,0,1,.988-3.617,3.434,3.434,0,0,1,2.848-1.234,3.437,3.437,0,0,1,2.844,1.223A5.576,5.576,0,0,1-9.027,17.2Zm-2.258-2.3a4.165,4.165,0,0,0-.387-2.061,1.307,1.307,0,0,0-1.207-.645,1.284,1.284,0,0,0-1.176.614,3.9,3.9,0,0,0-.4,1.92v2.768a4.372,4.372,0,0,0,.379,2.068,1.29,1.29,0,0,0,1.215.676,1.268,1.268,0,0,0,1.2-.649,4.268,4.268,0,0,0,.383-1.986Zm4.461,9.857L-8,26.234l.281-.508a4.059,4.059,0,0,0,.539-1.9v-1.75h1.906l-.008,1.563a4.059,4.059,0,0,1-.437,1.75A4.486,4.486,0,0,1-6.824,26.852Zm9.906-7.133H4.371v1.82H3.082V24H.824V21.539H-3.84l-.1-1.422L.8,12.625H3.082Zm-4.773,0H.824V15.7l-.148.258Zm13.844,2.4h4.977V24H9.809V12.625h2.344Z" transform="translate(648.379 4645)" fill="#12263f"/>
      <path id="Trazado_732241" data-name="Trazado 732241" d="M0,0H78.289" transform="translate(609.379 4651.5)" fill="none" stroke="#12263f" stroke-linecap="round" stroke-width="2"/>
    </g>
  </g>
</svg>
