<svg xmlns="http://www.w3.org/2000/svg" width="294.586" height="109.474" viewBox="0 0 294.586 109.474">
  <g id="Grupo_966773" data-name="Grupo 966773" transform="translate(-495.414 -12299)">
    <rect id="Rectángulo_341757" data-name="Rectángulo 341757" width="294.586" height="109.474" transform="translate(495.414 12299)" fill="#fdf8e4"/>
    <g id="Grupo_966643" data-name="Grupo 966643" transform="translate(570.258 12330)">
      <path id="Trazado_732259" data-name="Trazado 732259" d="M5.933,13.52,8.481,4.2h3.445L7.62,17H4.245L-.026,4.2H3.393Zm11.593,6.748a3.345,3.345,0,0,1-.582,2.063,1.866,1.866,0,0,1-1.571.772,1.6,1.6,0,0,1-1.256-.559v2.589H12.389v-7.68H14l.051.513a1.6,1.6,0,0,1,1.307-.615,1.881,1.881,0,0,1,1.594.756,3.386,3.386,0,0,1,.569,2.079ZM15.8,20.16q0-1.476-.861-1.476a.813.813,0,0,0-.82.441v2.184a.84.84,0,0,0,.831.461q.825,0,.851-1.425Zm15.751-9.506H23.41V8.369h8.139Zm0,3.858H23.41V12.228h8.139Zm17.578-3.647a7.562,7.562,0,0,1-.589,3.1,5.385,5.385,0,0,1-1.626,2.123l2.065,1.635L47.07,19.338l-2.751-2.215a5.718,5.718,0,0,1-.773.053,5.547,5.547,0,0,1-2.9-.756,5.141,5.141,0,0,1-1.973-2.162,7.343,7.343,0,0,1-.734-3.234v-.677a7.572,7.572,0,0,1,.69-3.322A5.142,5.142,0,0,1,40.6,4.81,5.854,5.854,0,0,1,46.429,4.8,5.211,5.211,0,0,1,48.411,7a7.362,7.362,0,0,1,.716,3.274Zm-3.138-.536a5.381,5.381,0,0,0-.637-2.9,2.2,2.2,0,0,0-3.661-.013,5.451,5.451,0,0,0-.624,2.856v.589a5.531,5.531,0,0,0,.624,2.9,2.043,2.043,0,0,0,1.854,1.006,2.014,2.014,0,0,0,1.806-.993,5.414,5.414,0,0,0,.637-2.856Zm9.378,9.938a3.345,3.345,0,0,1-.582,2.063,1.866,1.866,0,0,1-1.571.772,1.6,1.6,0,0,1-1.256-.559v2.589H50.231v-7.68h1.615l.051.513A1.6,1.6,0,0,1,53.2,17.35a1.881,1.881,0,0,1,1.594.756,3.386,3.386,0,0,1,.569,2.079ZM53.64,20.16q0-1.476-.861-1.476a.813.813,0,0,0-.82.441v2.184a.84.84,0,0,0,.831.461q.825,0,.851-1.425ZM63.221,8.593,60.355,7.8l.571-1.659,2.8,1.15L63.511,4.2h1.881l-.229,3.152,2.725-1.124.571,1.677-2.9.79,1.925,2.329-1.521,1.037L64.354,9.481l-1.617,2.5-1.521-.993Z" transform="translate(0 12.5)" fill="#12263f"/>
      <g id="Grupo_966642" data-name="Grupo 966642" transform="translate(71 0)">
        <path id="Trazado_732257" data-name="Trazado 732257" d="M34.759,13.52,37.308,4.2h3.445L36.447,17H33.072L28.8,4.2h3.419Zm8.789,8.25a.768.768,0,0,0,.564-.2.724.724,0,0,0,.195-.551h1.62a1.918,1.918,0,0,1-.654,1.5,2.431,2.431,0,0,1-1.684.584,2.462,2.462,0,0,1-1.907-.759,2.99,2.99,0,0,1-.7-2.1V20.17a3.379,3.379,0,0,1,.31-1.484,2.258,2.258,0,0,1,.895-.989,2.667,2.667,0,0,1,1.384-.346,2.4,2.4,0,0,1,1.717.6,2.127,2.127,0,0,1,.636,1.625h-1.62a.948.948,0,0,0-.21-.661.726.726,0,0,0-.564-.231q-.672,0-.784.856a6.041,6.041,0,0,0-.036.748,2.373,2.373,0,0,0,.2,1.159A.692.692,0,0,0,43.548,21.77ZM27.955,42H24.888l-4.535-7.963V42H17.268V29.2h3.085l4.526,7.963V29.2h3.076Zm8.561-8.407L33.65,32.8l.571-1.659,2.8,1.15-.22-3.091h1.881l-.229,3.152,2.725-1.124.571,1.677-2.9.79,1.925,2.329-1.521,1.037-1.608-2.584-1.617,2.5-1.521-.993Zm21.577,2.272a7.562,7.562,0,0,1-.589,3.1,5.385,5.385,0,0,1-1.626,2.123l2.065,1.635-1.907,1.617-2.751-2.215a5.718,5.718,0,0,1-.773.053,5.547,5.547,0,0,1-2.9-.756,5.141,5.141,0,0,1-1.973-2.162,7.343,7.343,0,0,1-.734-3.234v-.677a7.572,7.572,0,0,1,.69-3.322,5.142,5.142,0,0,1,1.969-2.215,5.854,5.854,0,0,1,5.832-.009A5.211,5.211,0,0,1,57.376,32a7.362,7.362,0,0,1,.716,3.274Zm-3.138-.536a5.381,5.381,0,0,0-.637-2.9,2.2,2.2,0,0,0-3.661-.013,5.451,5.451,0,0,0-.624,2.856v.589a5.531,5.531,0,0,0,.624,2.9,2.043,2.043,0,0,0,1.854,1.006,2.014,2.014,0,0,0,1.806-.993,5.414,5.414,0,0,0,.637-2.856Z" transform="translate(-0.008 0.001)" fill="#12263f"/>
        <path id="Trazado_732258" data-name="Trazado 732258" d="M0,0H53" transform="translate(11.336 25.257)" fill="none" stroke="#12263f" stroke-linecap="round" stroke-width="2"/>
      </g>
    </g>
  </g>
</svg>
