<svg xmlns="http://www.w3.org/2000/svg" width="1328.299" height="720.018" viewBox="0 0 1328.299 720.018">
  <path id="Trazado_731567" data-name="Trazado 731567" d="M7355.7,1229.621l.3,529.957h-.3v190.06c-3.4-3.071-6.541-6.372-10.249-9.176-27.771-21-53.827-43.852-83.885-62.414-59.6-36.8-125.685-43.135-195.14-19.408q-36.258,12.386-71.564,26.586c-43.56,17.567-88.791,28.006-137.993,25.669-30.8-1.462-57.989-9.228-81.694-25.522-35.479-24.389-60.184-55.985-88.137-85.456-14.812-15.617-29.934-31.165-46.533-45.509-34.137-29.5-75.608-43.009-126.534-39.332-54.781,3.955-100.545,18.966-133.614,56.484-27.595,31.307-55.555,62.548-85.981,92.024-49.25,47.71-113.562,63.762-187.94,51.452-26.627-4.405-52.316-12.544-78.436-18.978l-.3-666.435Z" transform="translate(-6027.7 -1229.621)" fill="#f0faf6"/>
</svg>
