<svg xmlns="http://www.w3.org/2000/svg" width="137.27" height="55.606" viewBox="0 0 137.27 55.606">
  <g id="Grupo_966765" data-name="Grupo 966765" transform="translate(-889.168 -4105)">
    <rect id="Rectángulo_341884" data-name="Rectángulo 341884" width="137.27" height="55.606" transform="translate(889.168 4105)" fill="#fdf8e4"/>
    <path id="Trazado_732224" data-name="Trazado 732224" d="M3.57,4.469V6.547H5.016V8.2H3.57v4.219a1.007,1.007,0,0,0,.18.672.9.9,0,0,0,.688.2,3.6,3.6,0,0,0,.664-.055v1.711a4.648,4.648,0,0,1-1.367.2,2.156,2.156,0,0,1-2.422-2.4V8.2H.078V6.547H1.313V4.469Zm13.867,4.7H10.453V7.328h6.984Zm0,3.383H10.453V10.711h6.984ZM27.75,12.18l2.578-8.555h2.609L28.977,15H26.531L22.586,3.625h2.6Zm10.8,3.8h-1.68L41.063,3.625h1.68ZM57.281,9.57a6.853,6.853,0,0,1-.516,2.77,4.754,4.754,0,0,1-1.43,1.887l1.891,1.484-1.492,1.32-2.422-1.945a5.126,5.126,0,0,1-.859.07,4.732,4.732,0,0,1-2.523-.68,4.515,4.515,0,0,1-1.719-1.941,6.67,6.67,0,0,1-.617-2.9V9.07A6.831,6.831,0,0,1,48.2,6.113,4.508,4.508,0,0,1,49.91,4.152a5.014,5.014,0,0,1,5.055,0,4.508,4.508,0,0,1,1.711,1.961,6.811,6.811,0,0,1,.605,2.949Zm-2.375-.516a4.787,4.787,0,0,0-.641-2.719,2.263,2.263,0,0,0-3.648-.012,4.732,4.732,0,0,0-.648,2.691V9.57a4.847,4.847,0,0,0,.641,2.7,2.243,2.243,0,0,0,3.656.035,4.819,4.819,0,0,0,.641-2.7Z" transform="translate(926.168 4123)" fill="#12263f"/>
  </g>
</svg>
