<svg xmlns="http://www.w3.org/2000/svg" width="208.727" height="74.606" viewBox="0 0 208.727 74.606">
  <g id="Grupo_966766" data-name="Grupo 966766" transform="translate(-1168.168 -4113)">
    <rect id="Rectángulo_341885" data-name="Rectángulo 341885" width="208.727" height="74.606" transform="translate(1168.168 4113)" fill="#fdf8e4"/>
    <g id="Grupo_966462" data-name="Grupo 966462" transform="translate(22.938 -94)">
      <path id="Trazado_732228" data-name="Trazado 732228" d="M3.57-10.531v2.078H5.016V-6.8H3.57v4.219a1.007,1.007,0,0,0,.18.672.9.9,0,0,0,.688.2A3.6,3.6,0,0,0,5.1-1.758V-.047a4.648,4.648,0,0,1-1.367.2,2.156,2.156,0,0,1-2.422-2.4V-6.8H.078V-8.453H1.313v-2.078Zm13.867,4.7H10.453V-7.672h6.984Zm0,3.383H10.453V-4.289h6.984Z" transform="translate(1189.23 4248)" fill="#12263f"/>
      <path id="Trazado_732227" data-name="Trazado 732227" d="M8.047-5.828H1.063V-7.672H8.047Zm0,3.383H1.063V-4.289H8.047Z" transform="translate(1241.168 4248)" fill="#12263f"/>
      <g id="Grupo_966461" data-name="Grupo 966461" transform="translate(-13 -97)">
        <path id="Trazado_732229" data-name="Trazado 732229" d="M5.219-2.82,7.8-11.375h2.609L6.445,0H4L.055-11.375h2.6ZM10.344,18.57a6.853,6.853,0,0,1-.516,2.77A4.754,4.754,0,0,1,8.4,23.227l1.891,1.484L8.8,26.031,6.375,24.086a5.126,5.126,0,0,1-.859.07,4.732,4.732,0,0,1-2.523-.68,4.515,4.515,0,0,1-1.719-1.941,6.67,6.67,0,0,1-.617-2.9V18.07a6.831,6.831,0,0,1,.605-2.957,4.508,4.508,0,0,1,1.711-1.961A4.706,4.706,0,0,1,5.5,12.469a4.706,4.706,0,0,1,2.527.684,4.508,4.508,0,0,1,1.711,1.961,6.811,6.811,0,0,1,.605,2.949Zm-2.375-.516a4.787,4.787,0,0,0-.641-2.719,2.088,2.088,0,0,0-1.828-.93,2.088,2.088,0,0,0-1.82.918,4.732,4.732,0,0,0-.648,2.691v.555a4.847,4.847,0,0,0,.641,2.7,2.082,2.082,0,0,0,1.844.961,2.064,2.064,0,0,0,1.813-.926,4.819,4.819,0,0,0,.641-2.7Z" transform="translate(1230.168 4334)" fill="#12263f"/>
        <path id="Trazado_732230" data-name="Trazado 732230" d="M0,0H21" transform="translate(1225.168 4340.5)" fill="none" stroke="#12263f" stroke-linecap="round" stroke-width="2"/>
      </g>
      <g id="Grupo_966460" data-name="Grupo 966460" transform="translate(-48 -97)">
        <path id="Trazado_732225" data-name="Trazado 732225" d="M6.258,0H4V-8.715l-2.7.832V-9.7l4.711-1.687h.242ZM17.609-4.7a5.763,5.763,0,0,1-.977,3.609A3.409,3.409,0,0,1,13.773.156,3.433,3.433,0,0,1,10.93-1.07,5.594,5.594,0,0,1,9.922-4.586V-6.68A5.687,5.687,0,0,1,10.91-10.3a3.434,3.434,0,0,1,2.848-1.234A3.437,3.437,0,0,1,16.6-10.309,5.576,5.576,0,0,1,17.609-6.8Zm-2.258-2.3a4.165,4.165,0,0,0-.387-2.061,1.307,1.307,0,0,0-1.207-.645,1.284,1.284,0,0,0-1.176.614,3.9,3.9,0,0,0-.4,1.92v2.768a4.372,4.372,0,0,0,.379,2.068,1.29,1.29,0,0,0,1.215.676,1.268,1.268,0,0,0,1.2-.649A4.268,4.268,0,0,0,15.352-4.3ZM26.789-4.7a5.763,5.763,0,0,1-.977,3.609A3.409,3.409,0,0,1,22.953.156,3.433,3.433,0,0,1,20.109-1.07,5.594,5.594,0,0,1,19.1-4.586V-6.68A5.687,5.687,0,0,1,20.09-10.3a3.434,3.434,0,0,1,2.848-1.234,3.437,3.437,0,0,1,2.844,1.223A5.576,5.576,0,0,1,26.789-6.8Zm-2.258-2.3a4.165,4.165,0,0,0-.387-2.061,1.307,1.307,0,0,0-1.207-.645,1.284,1.284,0,0,0-1.176.614,3.9,3.9,0,0,0-.4,1.92v2.768a4.373,4.373,0,0,0,.379,2.068,1.29,1.29,0,0,0,1.215.676,1.268,1.268,0,0,0,1.2-.649A4.268,4.268,0,0,0,24.531-4.3ZM35.969-4.7a5.762,5.762,0,0,1-.977,3.609A3.409,3.409,0,0,1,32.133.156,3.433,3.433,0,0,1,29.289-1.07a5.594,5.594,0,0,1-1.008-3.516V-6.68A5.687,5.687,0,0,1,29.27-10.3a3.434,3.434,0,0,1,2.848-1.234,3.437,3.437,0,0,1,2.844,1.223A5.576,5.576,0,0,1,35.969-6.8Zm-2.258-2.3a4.165,4.165,0,0,0-.387-2.061,1.307,1.307,0,0,0-1.207-.645,1.284,1.284,0,0,0-1.176.614,3.9,3.9,0,0,0-.4,1.92v2.768a4.373,4.373,0,0,0,.379,2.068,1.29,1.29,0,0,0,1.215.676,1.268,1.268,0,0,0,1.2-.649A4.268,4.268,0,0,0,33.711-4.3ZM44.063-1.883h4.977V0h-7.32V-11.375h2.344ZM8.43,19.3a5.762,5.762,0,0,1-.977,3.609,3.409,3.409,0,0,1-2.859,1.25A3.433,3.433,0,0,1,1.75,22.93,5.594,5.594,0,0,1,.742,19.414V17.32A5.687,5.687,0,0,1,1.73,13.7a3.434,3.434,0,0,1,2.848-1.234,3.437,3.437,0,0,1,2.844,1.223A5.576,5.576,0,0,1,8.43,17.2Zm-2.258-2.3a4.165,4.165,0,0,0-.387-2.061,1.307,1.307,0,0,0-1.207-.645A1.284,1.284,0,0,0,3.4,14.9a3.9,3.9,0,0,0-.4,1.92v2.768a4.372,4.372,0,0,0,.379,2.068,1.29,1.29,0,0,0,1.215.676,1.268,1.268,0,0,0,1.2-.649A4.268,4.268,0,0,0,6.172,19.7Zm4.461,9.857-1.18-.617.281-.508a4.059,4.059,0,0,0,.539-1.9v-1.75H12.18l-.008,1.563a4.059,4.059,0,0,1-.437,1.75A4.486,4.486,0,0,1,10.633,26.852Zm9.906-7.133h1.289v1.82H20.539V24H18.281V21.539H13.617l-.1-1.422,4.742-7.492h2.281Zm-4.773,0h2.516V15.7l-.148.258Zm13.844,2.4h4.977V24h-7.32V12.625h2.344Zm6.883,2.859h-1.68L39,12.625h1.68Zm9.844-3.312a.727.727,0,0,0-.41-.652,4.659,4.659,0,0,0-1.316-.426q-3.016-.633-3.016-2.562a2.323,2.323,0,0,1,.934-1.879,3.766,3.766,0,0,1,2.441-.754,4.053,4.053,0,0,1,2.574.758,2.388,2.388,0,0,1,.965,1.969H46.25a1.092,1.092,0,0,0-.312-.8A1.322,1.322,0,0,0,44.961,17a1.351,1.351,0,0,0-.883.258.814.814,0,0,0-.312.656.7.7,0,0,0,.355.605,3.657,3.657,0,0,0,1.2.4,9.8,9.8,0,0,1,1.422.379,2.336,2.336,0,0,1,1.789,2.273,2.2,2.2,0,0,1-.992,1.871,4.28,4.28,0,0,1-2.562.715,4.47,4.47,0,0,1-1.887-.379A3.166,3.166,0,0,1,41.8,22.738a2.414,2.414,0,0,1-.469-1.426h2.141a1.179,1.179,0,0,0,.445.922,1.766,1.766,0,0,0,1.109.32,1.635,1.635,0,0,0,.98-.246A.766.766,0,0,0,46.336,21.664Z" transform="translate(1306.168 4334)" fill="#12263f"/>
        <path id="Trazado_732226" data-name="Trazado 732226" d="M0,0H55.5" transform="translate(1303.668 4340.5)" fill="none" stroke="#12263f" stroke-linecap="round" stroke-width="2"/>
      </g>
    </g>
  </g>
</svg>
