<svg id="Grupo_957646" data-name="Grupo 957646" xmlns="http://www.w3.org/2000/svg" width="80.771" height="106.046" viewBox="0 0 80.771 106.046">
  <path id="Trazado_725146" data-name="Trazado 725146" d="M38.717,0h3.338C63.437,0,80.771,14.885,80.771,33.247v72.8H0v-72.8C0,14.885,17.334,0,38.717,0Z" fill="#34bc85"/>
  <g id="Grupo_957544" data-name="Grupo 957544" transform="translate(11.682 25.516)">
    <path id="Trazado_684794" data-name="Trazado 684794" d="M58.354,46.5v2.155A7.849,7.849,0,0,1,50.509,56.5H8.845A7.849,7.849,0,0,1,1,48.659V46.5a7.811,7.811,0,0,1,.981-3.8L22.813,5.052a7.84,7.84,0,0,1,13.728,0L57.373,42.7a7.811,7.811,0,0,1,.981,3.8Z" transform="translate(-1 -1)" fill="#ffc32c"/>
    <path id="Trazado_684795" data-name="Trazado 684795" d="M58.45,46.5v2.155A7.849,7.849,0,0,1,50.605,56.5H8.94a7.842,7.842,0,0,1-6.66-3.7H41.355A7.849,7.849,0,0,0,49.2,44.959V42.8a7.811,7.811,0,0,0-.981-3.8L27.4,1.37a7.836,7.836,0,0,1,9.241,3.682L57.469,42.7a7.811,7.811,0,0,1,.981,3.8Z" transform="translate(-1.096 -1)" fill="#ffa300"/>
    <ellipse id="Elipse_5447" data-name="Elipse 5447" cx="4.896" cy="4.546" rx="4.896" ry="4.546" transform="translate(23.781 40.426)" fill="#34bc85"/>
    <path id="Trazado_684796" data-name="Trazado 684796" d="M36.326,48.633A4.621,4.621,0,0,1,28,51.4a4.36,4.36,0,0,0,.925.093,4.627,4.627,0,0,0,4.625-4.625,4.564,4.564,0,0,0-.925-2.766A4.626,4.626,0,0,1,36.326,48.633Z" transform="translate(-2.894 -3.78)" fill="#0e494d"/>
    <path id="Trazado_684797" data-name="Trazado 684797" d="M36.065,15a.929.929,0,0,1,.925,1.036l-2.544,18.52a.926.926,0,0,1-.916.8H29.589a.926.926,0,0,1-.916-.8l-2.544-18.52A.929.929,0,0,1,27.055,15Z" transform="translate(-2.882 -2.049)" fill="#34bc85"/>
    <path id="Trazado_684798" data-name="Trazado 684798" d="M37.184,16.036,34.64,34.556a.926.926,0,0,1-.916.8H29.784a.926.926,0,0,1-.916-.8L28.72,33.5h2.229a.926.926,0,0,0,.916-.8L34.3,15h1.961A.929.929,0,0,1,37.184,16.036Z" transform="translate(-3.077 -2.049)" fill="#0e494d"/>
    <g id="Grupo_946421" data-name="Grupo 946421" transform="translate(21.738 2.313)">
      <path id="Trazado_684799" data-name="Trazado 684799" d="M25.887,11.826a1.388,1.388,0,0,1-1.19-2.1L26.811,6.2A5.788,5.788,0,0,1,29.191,4l.7-.35A1.388,1.388,0,1,1,31.133,6.13l-.7.349a3.026,3.026,0,0,0-1.242,1.15l-2.114,3.524a1.385,1.385,0,0,1-1.191.673Z" transform="translate(-24.499 -3.501)" fill="#ffedc5"/>
    </g>
  </g>
</svg>
