<svg xmlns="http://www.w3.org/2000/svg" width="208.727" height="74.606" viewBox="0 0 208.727 74.606">
  <g id="Grupo_966769" data-name="Grupo 966769" transform="translate(-853.168 -4392)">
    <rect id="Rectángulo_341895" data-name="Rectángulo 341895" width="208.727" height="74.606" transform="translate(853.168 4392)" fill="#fdf8e4"/>
    <g id="Grupo_966469" data-name="Grupo 966469" transform="translate(-22.605 -209.27)">
      <path id="Trazado_732245" data-name="Trazado 732245" d="M3.57-10.531v2.078H5.016V-6.8H3.57v4.219a1.007,1.007,0,0,0,.18.672.9.9,0,0,0,.688.2A3.6,3.6,0,0,0,5.1-1.758V-.047a4.648,4.648,0,0,1-1.367.2,2.156,2.156,0,0,1-2.422-2.4V-6.8H.078V-8.453H1.313v-2.078Zm13.867,4.7H10.453V-7.672h6.984Zm0,3.383H10.453V-4.289h6.984Z" transform="translate(898.773 4643.27)" fill="#12263f"/>
      <path id="Trazado_732244" data-name="Trazado 732244" d="M-18.207,0h-2.258V-8.715l-2.7.832V-9.7l4.711-1.687h.242ZM-6.855-4.7a5.762,5.762,0,0,1-.977,3.609A3.409,3.409,0,0,1-10.691.156,3.433,3.433,0,0,1-13.535-1.07a5.594,5.594,0,0,1-1.008-3.516V-6.68a5.687,5.687,0,0,1,.988-3.617,3.434,3.434,0,0,1,2.848-1.234,3.437,3.437,0,0,1,2.844,1.223A5.576,5.576,0,0,1-6.855-6.8Zm-2.258-2.3A4.165,4.165,0,0,0-9.5-9.066a1.307,1.307,0,0,0-1.207-.645,1.284,1.284,0,0,0-1.176.614,3.9,3.9,0,0,0-.4,1.92v2.768a4.372,4.372,0,0,0,.379,2.068,1.29,1.29,0,0,0,1.215.676,1.268,1.268,0,0,0,1.2-.649A4.268,4.268,0,0,0-9.113-4.3ZM2.324-4.7a5.762,5.762,0,0,1-.977,3.609A3.409,3.409,0,0,1-1.512.156,3.433,3.433,0,0,1-4.355-1.07,5.594,5.594,0,0,1-5.363-4.586V-6.68A5.687,5.687,0,0,1-4.375-10.3a3.434,3.434,0,0,1,2.848-1.234,3.437,3.437,0,0,1,2.844,1.223A5.576,5.576,0,0,1,2.324-6.8ZM.066-7.005A4.165,4.165,0,0,0-.32-9.066a1.307,1.307,0,0,0-1.207-.645A1.284,1.284,0,0,0-2.7-9.1a3.9,3.9,0,0,0-.4,1.92v2.768a4.372,4.372,0,0,0,.379,2.068,1.29,1.29,0,0,0,1.215.676,1.268,1.268,0,0,0,1.2-.649A4.268,4.268,0,0,0,.066-4.3ZM11.5-4.7a5.762,5.762,0,0,1-.977,3.609A3.409,3.409,0,0,1,7.668.156,3.433,3.433,0,0,1,4.824-1.07,5.594,5.594,0,0,1,3.816-4.586V-6.68A5.687,5.687,0,0,1,4.8-10.3a3.434,3.434,0,0,1,2.848-1.234A3.437,3.437,0,0,1,10.5-10.309,5.576,5.576,0,0,1,11.5-6.8Zm-2.258-2.3a4.165,4.165,0,0,0-.387-2.061,1.307,1.307,0,0,0-1.207-.645A1.284,1.284,0,0,0,6.477-9.1a3.9,3.9,0,0,0-.4,1.92v2.768a4.372,4.372,0,0,0,.379,2.068,1.29,1.29,0,0,0,1.215.676,1.268,1.268,0,0,0,1.2-.649A4.268,4.268,0,0,0,9.246-4.3ZM21.684-2.336a.727.727,0,0,0-.41-.652,4.659,4.659,0,0,0-1.316-.426q-3.016-.633-3.016-2.562a2.323,2.323,0,0,1,.934-1.879,3.766,3.766,0,0,1,2.441-.754,4.053,4.053,0,0,1,2.574.758,2.388,2.388,0,0,1,.965,1.969H21.6a1.092,1.092,0,0,0-.312-.8A1.322,1.322,0,0,0,20.309-7a1.351,1.351,0,0,0-.883.258.814.814,0,0,0-.312.656.7.7,0,0,0,.355.605,3.657,3.657,0,0,0,1.2.4A9.8,9.8,0,0,1,22.09-4.7,2.336,2.336,0,0,1,23.879-2.43a2.2,2.2,0,0,1-.992,1.871,4.28,4.28,0,0,1-2.562.715,4.47,4.47,0,0,1-1.887-.379,3.166,3.166,0,0,1-1.293-1.039,2.414,2.414,0,0,1-.469-1.426h2.141a1.179,1.179,0,0,0,.445.922,1.766,1.766,0,0,0,1.109.32,1.635,1.635,0,0,0,.98-.246A.766.766,0,0,0,21.684-2.336ZM-2.7,19.3a5.763,5.763,0,0,1-.977,3.609,3.409,3.409,0,0,1-2.859,1.25A3.433,3.433,0,0,1-9.383,22.93a5.594,5.594,0,0,1-1.008-3.516V17.32A5.687,5.687,0,0,1-9.4,13.7a3.434,3.434,0,0,1,2.848-1.234,3.437,3.437,0,0,1,2.844,1.223A5.576,5.576,0,0,1-2.7,17.2Zm-2.258-2.3a4.165,4.165,0,0,0-.387-2.061,1.307,1.307,0,0,0-1.207-.645A1.284,1.284,0,0,0-7.73,14.9a3.9,3.9,0,0,0-.4,1.92v2.768a4.372,4.372,0,0,0,.379,2.068,1.29,1.29,0,0,0,1.215.676,1.268,1.268,0,0,0,1.2-.649A4.268,4.268,0,0,0-4.961,19.7ZM-.5,26.852l-1.18-.617.281-.508a4.059,4.059,0,0,0,.539-1.9v-1.75H1.047l-.008,1.563A4.059,4.059,0,0,1,.6,25.391,4.486,4.486,0,0,1-.5,26.852Zm9.906-7.133H10.7v1.82H9.406V24H7.148V21.539H2.484l-.1-1.422,4.742-7.492H9.406Zm-4.773,0H7.148V15.7L7,15.961Z" transform="translate(954.168 4632.27)" fill="#12263f"/>
      <path id="Trazado_732243" data-name="Trazado 732243" d="M-13.852,0h-2.258V-8.715l-2.7.832V-9.7l4.711-1.687h.242Zm9.891-8.453.07.945a2.971,2.971,0,0,1,2.43-1.1A2.255,2.255,0,0,1,.781-7.32,2.9,2.9,0,0,1,3.32-8.609a2.521,2.521,0,0,1,2.047.8A3.681,3.681,0,0,1,6.039-5.4V0H3.773V-5.4a1.616,1.616,0,0,0-.281-1.053A1.245,1.245,0,0,0,2.5-6.789a1.409,1.409,0,0,0-1.406.971L1.1,0H-1.156V-5.4A1.6,1.6,0,0,0-1.445-6.46a1.257,1.257,0,0,0-.984-.329,1.463,1.463,0,0,0-1.391.8V0H-6.078V-8.453ZM10.156,0H7.891V-8.453h2.266Zm-2.4-10.641a1.112,1.112,0,0,1,.34-.836,1.277,1.277,0,0,1,.926-.328,1.28,1.28,0,0,1,.922.328,1.105,1.105,0,0,1,.344.836,1.108,1.108,0,0,1-.348.844,1.283,1.283,0,0,1-.918.328A1.283,1.283,0,0,1,8.105-9.8,1.108,1.108,0,0,1,7.758-10.641Zm6.336,2.188.07.977a2.951,2.951,0,0,1,2.43-1.133,2.453,2.453,0,0,1,2,.789,3.682,3.682,0,0,1,.672,2.359V0H17.008V-5.419A1.47,1.47,0,0,0,16.7-6.464a1.4,1.4,0,0,0-1.039-.325,1.553,1.553,0,0,0-1.43.814V0H11.969V-8.453ZM-8.387,12.508v1.859h-.219a3.836,3.836,0,0,0-2.465.8,3.238,3.238,0,0,0-1.121,2.148A3.075,3.075,0,0,1-9.9,16.391a2.9,2.9,0,0,1,2.359,1.063,4.259,4.259,0,0,1,.875,2.8,4.19,4.19,0,0,1-.48,2.008,3.446,3.446,0,0,1-1.359,1.4,3.949,3.949,0,0,1-1.988.5,3.689,3.689,0,0,1-2.9-1.25A4.852,4.852,0,0,1-14.5,19.57v-.812a7.3,7.3,0,0,1,.7-3.27,5.127,5.127,0,0,1,2.008-2.2,5.884,5.884,0,0,1,3.035-.785Zm-2.2,5.7a1.8,1.8,0,0,0-.992.285,1.715,1.715,0,0,0-.656.753v.686a3.04,3.04,0,0,0,.445,1.766,1.439,1.439,0,0,0,1.25.635,1.423,1.423,0,0,0,1.176-.573,2.337,2.337,0,0,0,.449-1.485,2.333,2.333,0,0,0-.453-1.5A1.477,1.477,0,0,0-10.59,18.211ZM2.324,19.3a5.763,5.763,0,0,1-.977,3.609,3.409,3.409,0,0,1-2.859,1.25A3.433,3.433,0,0,1-4.355,22.93a5.594,5.594,0,0,1-1.008-3.516V17.32A5.687,5.687,0,0,1-4.375,13.7a3.434,3.434,0,0,1,2.848-1.234,3.437,3.437,0,0,1,2.844,1.223A5.576,5.576,0,0,1,2.324,17.2Zm-2.258-2.3A4.165,4.165,0,0,0-.32,14.934a1.307,1.307,0,0,0-1.207-.645A1.284,1.284,0,0,0-2.7,14.9a3.9,3.9,0,0,0-.4,1.92v2.768a4.372,4.372,0,0,0,.379,2.068,1.29,1.29,0,0,0,1.215.676,1.268,1.268,0,0,0,1.2-.649A4.268,4.268,0,0,0,.066,19.7ZM12.5,21.664a.727.727,0,0,0-.41-.652,4.659,4.659,0,0,0-1.316-.426q-3.016-.633-3.016-2.562A2.323,2.323,0,0,1,8.7,16.145a3.766,3.766,0,0,1,2.441-.754,4.053,4.053,0,0,1,2.574.758,2.388,2.388,0,0,1,.965,1.969H12.418a1.092,1.092,0,0,0-.312-.8A1.322,1.322,0,0,0,11.129,17a1.351,1.351,0,0,0-.883.258.814.814,0,0,0-.312.656.7.7,0,0,0,.355.605,3.657,3.657,0,0,0,1.2.4,9.8,9.8,0,0,1,1.422.379A2.336,2.336,0,0,1,14.7,21.57a2.2,2.2,0,0,1-.992,1.871,4.28,4.28,0,0,1-2.562.715,4.47,4.47,0,0,1-1.887-.379,3.166,3.166,0,0,1-1.293-1.039A2.414,2.414,0,0,1,7.5,21.313H9.637a1.179,1.179,0,0,0,.445.922,1.766,1.766,0,0,0,1.109.32,1.635,1.635,0,0,0,.98-.246A.766.766,0,0,0,12.5,21.664Z" transform="translate(1034.332 4632.27)" fill="#12263f"/>
      <path id="Trazado_732247" data-name="Trazado 732247" d="M-.961-7.52l-2.453-.695.461-1.413,2.43.976L-.68-11.375H.852L.7-8.6l2.367-.96.461,1.428-2.5.695L2.664-5.355l-1.242.883L0-6.754l-1.406,2.2-1.242-.844Z" transform="translate(992 4646.27)" fill="#12263f"/>
      <path id="Trazado_732246" data-name="Trazado 732246" d="M0,0H56" transform="translate(925.668 4638.5)" fill="none" stroke="#12263f" stroke-linecap="round" stroke-width="2"/>
      <path id="Trazado_732248" data-name="Trazado 732248" d="M0,0H56" transform="translate(1005.832 4638.5)" fill="none" stroke="#12263f" stroke-linecap="round" stroke-width="2"/>
    </g>
  </g>
</svg>
