<svg id="Grupo_966616" data-name="Grupo 966616" xmlns="http://www.w3.org/2000/svg" xmlns:xlink="http://www.w3.org/1999/xlink" width="400" height="232.049" viewBox="0 0 400 232.049">
  <defs>
    <clipPath id="clip-path">
      <rect id="Rectángulo_341979" data-name="Rectángulo 341979" width="400" height="232.049" fill="none"/>
    </clipPath>
    <clipPath id="clip-path-3">
      <rect id="Rectángulo_341926" data-name="Rectángulo 341926" width="397.571" height="231.491" fill="none"/>
    </clipPath>
    <clipPath id="clip-path-4">
      <rect id="Rectángulo_341920" data-name="Rectángulo 341920" width="395.447" height="231.491" fill="none"/>
    </clipPath>
    <clipPath id="clip-path-6">
      <rect id="Rectángulo_341921" data-name="Rectángulo 341921" width="28.231" height="25.392" fill="none"/>
    </clipPath>
    <clipPath id="clip-path-7">
      <rect id="Rectángulo_341922" data-name="Rectángulo 341922" width="14.991" height="16.595" fill="none"/>
    </clipPath>
    <clipPath id="clip-path-8">
      <rect id="Rectángulo_341923" data-name="Rectángulo 341923" width="23.901" height="20.066" fill="none"/>
    </clipPath>
    <clipPath id="clip-path-9">
      <rect id="Rectángulo_341924" data-name="Rectángulo 341924" width="328.836" height="200.36" fill="none"/>
    </clipPath>
    <clipPath id="clip-path-10">
      <rect id="Rectángulo_341925" data-name="Rectángulo 341925" width="202.595" height="122.664" fill="none"/>
    </clipPath>
    <clipPath id="clip-path-11">
      <rect id="Rectángulo_341927" data-name="Rectángulo 341927" width="37.958" height="24.585" fill="none"/>
    </clipPath>
    <clipPath id="clip-path-12">
      <rect id="Rectángulo_341928" data-name="Rectángulo 341928" width="16.62" height="16.68" fill="none"/>
    </clipPath>
    <clipPath id="clip-path-13">
      <rect id="Rectángulo_341929" data-name="Rectángulo 341929" width="11.292" height="36.062" fill="none"/>
    </clipPath>
    <clipPath id="clip-path-14">
      <rect id="Rectángulo_341930" data-name="Rectángulo 341930" width="0.908" height="0.908" fill="none"/>
    </clipPath>
    <clipPath id="clip-path-17">
      <rect id="Rectángulo_341933" data-name="Rectángulo 341933" width="8.539" height="8.959" fill="none"/>
    </clipPath>
    <clipPath id="clip-path-18">
      <rect id="Rectángulo_341934" data-name="Rectángulo 341934" width="18.66" height="44.642" fill="none"/>
    </clipPath>
    <clipPath id="clip-path-19">
      <rect id="Rectángulo_341935" data-name="Rectángulo 341935" width="23.455" height="45.483" fill="none"/>
    </clipPath>
    <clipPath id="clip-path-20">
      <rect id="Rectángulo_341952" data-name="Rectángulo 341952" width="397.516" height="202.906" fill="none"/>
    </clipPath>
    <clipPath id="clip-path-21">
      <rect id="Rectángulo_341951" data-name="Rectángulo 341951" width="1.761" height="1.761" fill="none"/>
    </clipPath>
    <clipPath id="clip-path-22">
      <rect id="Rectángulo_341953" data-name="Rectángulo 341953" width="8.505" height="36.187" fill="none"/>
    </clipPath>
    <clipPath id="clip-path-23">
      <rect id="Rectángulo_341954" data-name="Rectángulo 341954" width="0.946" height="0.945" fill="none"/>
    </clipPath>
    <clipPath id="clip-path-24">
      <rect id="Rectángulo_341955" data-name="Rectángulo 341955" width="0.945" height="0.945" fill="none"/>
    </clipPath>
    <clipPath id="clip-path-26">
      <rect id="Rectángulo_341957" data-name="Rectángulo 341957" width="8.504" height="38.561" fill="none"/>
    </clipPath>
    <clipPath id="clip-path-30">
      <rect id="Rectángulo_341961" data-name="Rectángulo 341961" width="8.504" height="41.15" fill="none"/>
    </clipPath>
    <clipPath id="clip-path-34">
      <rect id="Rectángulo_341967" data-name="Rectángulo 341967" width="32.421" height="40.854" fill="none"/>
    </clipPath>
    <clipPath id="clip-path-35">
      <rect id="Rectángulo_341968" data-name="Rectángulo 341968" width="2.376" height="2.376" fill="none"/>
    </clipPath>
    <clipPath id="clip-path-36">
      <rect id="Rectángulo_341969" data-name="Rectángulo 341969" width="1.32" height="1.32" fill="none"/>
    </clipPath>
    <clipPath id="clip-path-38">
      <rect id="Rectángulo_341972" data-name="Rectángulo 341972" width="42.5" height="33.282" fill="none"/>
    </clipPath>
    <clipPath id="clip-path-39">
      <rect id="Rectángulo_341973" data-name="Rectángulo 341973" width="29.465" height="69.09" fill="none"/>
    </clipPath>
    <clipPath id="clip-path-40">
      <rect id="Rectángulo_341974" data-name="Rectángulo 341974" width="25.675" height="70.227" fill="none"/>
    </clipPath>
    <clipPath id="clip-path-41">
      <rect id="Rectángulo_341975" data-name="Rectángulo 341975" width="35.147" height="27.373" fill="none"/>
    </clipPath>
    <clipPath id="clip-path-42">
      <rect id="Rectángulo_341976" data-name="Rectángulo 341976" width="14.357" height="5.63" fill="none"/>
    </clipPath>
    <clipPath id="clip-path-43">
      <rect id="Rectángulo_341977" data-name="Rectángulo 341977" width="6.412" height="6.37" fill="none"/>
    </clipPath>
  </defs>
  <g id="Grupo_966615" data-name="Grupo 966615" clip-path="url(#clip-path)">
    <g id="Grupo_966614" data-name="Grupo 966614">
      <g id="Grupo_966613" data-name="Grupo 966613" clip-path="url(#clip-path)">
        <g id="Grupo_966513" data-name="Grupo 966513" transform="translate(2.43)" opacity="0.61">
          <g id="Grupo_966512" data-name="Grupo 966512">
            <g id="Grupo_966511" data-name="Grupo 966511" clip-path="url(#clip-path-3)">
              <g id="Grupo_966495" data-name="Grupo 966495" transform="translate(2.124)" opacity="0.68">
                <g id="Grupo_966494" data-name="Grupo 966494">
                  <g id="Grupo_966493" data-name="Grupo 966493" clip-path="url(#clip-path-4)">
                    <g id="Grupo_966492" data-name="Grupo 966492" opacity="0.47">
                      <g id="Grupo_966491" data-name="Grupo 966491">
                        <g id="Grupo_966490" data-name="Grupo 966490" clip-path="url(#clip-path-4)">
                          <path id="Trazado_731571" data-name="Trazado 731571" d="M402.607,103.073a76.9,76.9,0,0,0-27.379-50.905c-25.134-20.894-63.154-26.161-96.475-21.33-13.957,2.023-27.8,5.607-42.089,4.479-20.843-1.645-39.2-12.923-58.18-21.191C152.652,2.873,123.041-3.184,95.578,1.713,64.441,7.265,38.911,28.238,35.864,56.064c-1.38,12.609,12.646,34.822,8.219,46.771-4.49,12.12-37.269,49.242-36.461,77.479.806,28.131,8.355,36.88,19.024,51.177H375.027c6.643-14.487,11.848-26.073,4.069-45.1-6.214-15.2,10.669-27.717,17.2-41.866,5.814-12.592,7.727-27.735,6.309-41.456" transform="translate(-7.608 0)" fill="#aeade7"/>
                        </g>
                      </g>
                    </g>
                  </g>
                </g>
              </g>
              <g id="Grupo_966498" data-name="Grupo 966498" transform="translate(0 90.587)" opacity="0.41">
                <g id="Grupo_966497" data-name="Grupo 966497">
                  <g id="Grupo_966496" data-name="Grupo 966496" clip-path="url(#clip-path-6)">
                    <path id="Trazado_731572" data-name="Trazado 731572" d="M5.415,169.469a11.887,11.887,0,0,1,5.391-16.2c6.083-3.023,17.759-2.775,20.865,3.147S25.413,167.4,21.587,172.905c-5.336,7.682-13.066,2.486-16.172-3.436" transform="translate(-4.06 -151.369)" fill="#aeade7"/>
                  </g>
                </g>
              </g>
              <g id="Grupo_966501" data-name="Grupo 966501" transform="translate(382.258 167.176)" opacity="0.41">
                <g id="Grupo_966500" data-name="Grupo 966500">
                  <g id="Grupo_966499" data-name="Grupo 966499" clip-path="url(#clip-path-7)">
                    <path id="Trazado_731573" data-name="Trazado 731573" d="M654.792,281.182a7.136,7.136,0,0,1,1.521,10.162c-2.463,3.215-8.848,6.111-12.15,3.714s.378-7.563.939-11.536c.782-5.541,6.389-4.737,9.691-2.339" transform="translate(-642.802 -279.347)" fill="#aeade7"/>
                  </g>
                </g>
              </g>
              <g id="Grupo_966504" data-name="Grupo 966504" transform="translate(223.486 4.747)" opacity="0.41">
                <g id="Grupo_966503" data-name="Grupo 966503">
                  <g id="Grupo_966502" data-name="Grupo 966502" clip-path="url(#clip-path-8)">
                    <path id="Trazado_731574" data-name="Trazado 731574" d="M379.79,12.643a10.6,10.6,0,0,1,14.428-3.085c4.758,3.057,9.319,11.518,6.109,16.279s-10.838.228-16.554-.148c-7.973-.525-7.192-8.284-3.982-13.045" transform="translate(-377.499 -7.932)" fill="#aeade7"/>
                  </g>
                </g>
              </g>
              <g id="Grupo_966507" data-name="Grupo 966507" transform="translate(35.429 31.13)" opacity="0.43">
                <g id="Grupo_966506" data-name="Grupo 966506">
                  <g id="Grupo_966505" data-name="Grupo 966505" clip-path="url(#clip-path-9)">
                    <path id="Trazado_731575" data-name="Trazado 731575" d="M386.523,235.805c3.394-16.429-2.047-30.444-3.4-46.554-1.285-15.252,4.28-28.079,7.368-42.606,2.748-12.928,1.832-27.571-1.617-40.278-4.709-17.347-15.554-33.411-31.179-43.2C333.343,47.905,300.874,49.7,273.98,60.2c-11.265,4.4-22.174,10.246-34.238,11.726-17.595,2.158-34.72-5.225-51.86-9.653-23.331-6.029-48.943-6.476-70.956,3.039C91.966,76.1,74.22,100.453,76.294,127.277c.939,12.155,5.745,24.149,4.044,36.224-1.726,12.246-9.2,22.491-13.156,34.025-5.4,15.742-5.892,38.879,2.79,54.852H380.678a65.278,65.278,0,0,0,5.845-16.573" transform="translate(-63.261 -52.018)" fill="#aeade7"/>
                  </g>
                </g>
              </g>
              <g id="Grupo_966510" data-name="Grupo 966510" transform="translate(98.549 108.827)" opacity="0.47">
                <g id="Grupo_966509" data-name="Grupo 966509">
                  <g id="Grupo_966508" data-name="Grupo 966508" clip-path="url(#clip-path-10)">
                    <path id="Trazado_731576" data-name="Trazado 731576" d="M371.1,236.464a41.176,41.176,0,0,0-14.027-26.974c-12.876-11.072-32.355-13.863-49.426-11.3-7.15,1.072-14.241,2.971-21.563,2.373-10.678-.872-20.085-6.848-29.807-11.228-13.235-5.964-28.405-9.173-42.475-6.578-15.952,2.942-29.032,14.055-30.592,28.8-.707,6.681,6.478,18.452,4.211,24.783-2.3,6.422-19.094,26.093-18.68,41.055.413,14.906,4.281,19.543,9.746,27.118H356.969c3.4-7.676,6.07-13.815,2.085-23.9-3.184-8.054,5.466-14.687,8.813-22.184a44.5,44.5,0,0,0,3.232-21.967" transform="translate(-168.733 -181.847)" fill="#aeade7"/>
                  </g>
                </g>
              </g>
            </g>
          </g>
        </g>
        <path id="Trazado_731577" data-name="Trazado 731577" d="M264.453,133.909a15.138,15.138,0,0,0-5.834-7.51q-.513-.347-1.051-.655a15.005,15.005,0,0,0-3.415-1.425c-1.594-.441-3.09-.458-4.069-2.026a7.092,7.092,0,0,1-.773-2.917c-.64-5.01-2.518-9.511-6.442-12.835-5.63-4.769-15.155-7.61-24.35-8.532-7.462-.747-18.335.915-25.4,10.485a5.728,5.728,0,0,0-1.015,5.023c.008.031.02.064.029.095.162.54.375,1.145.636,1.794l-3.62,2.979a10.367,10.367,0,0,0-2.852,12.29l1.545,3.4q-.215.226-.4.44c-.574.66-1.194,1.4-1.843,2.225a17.831,17.831,0,0,0-4.86,11.247c-.3,6.281,2.865,12.044,8.064,15.954a131,131,0,0,1,17.778,15.45,25.715,25.715,0,0,0,18.927,7.851c9.519.005,17.953-4.98,21.471-12.191,5.376-2.853,9.334-7.524,10.545-13.061a15.969,15.969,0,0,0,.359-4.521c-.1-1.328-.648-2.67-.329-4.011.393-1.649,1.9-2.742,3.118-3.917a15.311,15.311,0,0,0,3.785-15.636" transform="translate(-72.565 -39.292)" fill="#390028"/>
        <path id="Trazado_731578" data-name="Trazado 731578" d="M233.962,146.307c-20.8.732-29.349-14.389-31.314-20.933a16.543,16.543,0,0,0-2.091,6L196.729,157.9a16.539,16.539,0,0,0,2.326,11.124,16.749,16.749,0,0,0,12.888,9.705l1.044.151-.028,5.4a10.5,10.5,0,0,0,10.416,10.527l3.317.017a10.5,10.5,0,0,0,10.527-10.416l.124-23.606a10.384,10.384,0,0,0-.065-1.179l2.174.314a6.918,6.918,0,1,0,1.975-13.694l-2.439-.352.038-.265a23.786,23.786,0,0,1-5.065.68" transform="translate(-78.927 -50.343)" fill="#a74f30"/>
        <g id="Grupo_966516" data-name="Grupo 966516" transform="translate(120.128 109.01)" opacity="0.32">
          <g id="Grupo_966515" data-name="Grupo 966515">
            <g id="Grupo_966514" data-name="Grupo 966514" clip-path="url(#clip-path-11)">
              <path id="Trazado_731579" data-name="Trazado 731579" d="M236.494,186.2a16.611,16.611,0,0,1-18.812,14.068l-5.208-.752a16.571,16.571,0,0,1-11.743-7.688,16.75,16.75,0,0,0,12.888,9.706l1.146.165a3.394,3.394,0,0,0-.056.581c0,2.464,2.648,4.461,5.915,4.461s5.914-2,5.914-4.461a3.364,3.364,0,0,0-.068-.642,16.764,16.764,0,0,0,11.4-13.547l.823-5.7-1.611-.233Z" transform="translate(-200.73 -182.153)" fill="#852b0f"/>
            </g>
          </g>
        </g>
        <path id="Trazado_731580" data-name="Trazado 731580" d="M271.458,171.69a.3.3,0,0,1-.174-.055l-2.522-1.794a.3.3,0,0,1-.041-.453l2.893-2.968a.3.3,0,0,1,.429.418l-2.649,2.718,2.237,1.591a.3.3,0,0,1-.174.543" transform="translate(-107.87 -66.789)" fill="#852b0f"/>
        <path id="Trazado_731581" data-name="Trazado 731581" d="M215.511,202.373a.3.3,0,0,1-.2-.078,2.978,2.978,0,0,0-3.344-.357.3.3,0,0,1-.289-.524,3.64,3.64,0,0,1,4.037.439.3.3,0,0,1-.2.521" transform="translate(-84.936 -80.704)" fill="#852b0f"/>
        <path id="Trazado_731582" data-name="Trazado 731582" d="M201.848,148.41a3.475,3.475,0,0,0,1.384.413c.507.081,1.015.175,1.454.272s.94.226,1.434.366a3.459,3.459,0,0,0,1.426.208c.412-.077.666-.5.344-1.159a3.982,3.982,0,0,0-2.716-1.8,3.866,3.866,0,0,0-3.186.5c-.552.467-.487.961-.14,1.2" transform="translate(-80.944 -58.862)" fill="#390028"/>
        <path id="Trazado_731583" data-name="Trazado 731583" d="M220.83,154.968a4.923,4.923,0,0,1,2.033.2c.708.167,1.423.317,2.049.425s1.352.209,2.074.291a4.882,4.882,0,0,1,1.978.494c.5.321.6,1.011-.171,1.7a5.637,5.637,0,0,1-4.522.9,5.467,5.467,0,0,1-3.9-2.36c-.473-.908-.121-1.518.463-1.651" transform="translate(-88.399 -62.206)" fill="#390028"/>
        <path id="Trazado_731584" data-name="Trazado 731584" d="M196.9,167.76a6.755,6.755,0,1,1,6.61-5.373,6.768,6.768,0,0,1-6.61,5.373m-.014-12.913a6.175,6.175,0,1,0,1.273.132,6.217,6.217,0,0,0-1.273-.132" transform="translate(-76.352 -61.937)" fill="#fff"/>
        <path id="Trazado_731585" data-name="Trazado 731585" d="M213.446,159.623l-.487,3.343a2.334,2.334,0,0,1-2.646,1.973,1.167,1.167,0,0,0-1.323.986l-.241,1.657a2.1,2.1,0,0,0,1.774,2.379l3.011.439" transform="translate(-83.814 -64.096)" fill="#a74f30"/>
        <path id="Trazado_731586" data-name="Trazado 731586" d="M213.336,170.5a.27.27,0,0,1-.044,0l-3.011-.439a2.4,2.4,0,0,1-2.028-2.719l.241-1.657a1.467,1.467,0,0,1,1.662-1.239,2.033,2.033,0,0,0,2.305-1.72l.487-3.342a.3.3,0,0,1,.339-.253.3.3,0,0,1,.253.339l-.487,3.343a2.638,2.638,0,0,1-2.984,2.226.867.867,0,0,0-.983.733l-.241,1.657a1.8,1.8,0,0,0,1.521,2.04l3.011.439a.3.3,0,0,1-.042.6" transform="translate(-83.613 -63.894)" fill="#852b0f"/>
        <path id="Trazado_731587" data-name="Trazado 731587" d="M223.783,169.951a6.755,6.755,0,1,1,6.61-5.373h0a6.767,6.767,0,0,1-6.61,5.372m0-12.912a6.159,6.159,0,1,0,1.262.131,6.168,6.168,0,0,0-1.262-.131m6.32,7.478h0Z" transform="translate(-87.145 -62.817)" fill="#fff"/>
        <path id="Trazado_731588" data-name="Trazado 731588" d="M239.212,162.794a.3.3,0,0,1-.058-.592l17.743-3.52a.3.3,0,1,1,.117.586l-17.742,3.52a.293.293,0,0,1-.059.006" transform="translate(-95.935 -63.715)" fill="#fff"/>
        <path id="Trazado_731589" data-name="Trazado 731589" d="M215.28,165.143l-.043,0-3.391-.487a.3.3,0,0,1,.085-.593l3.391.488a.3.3,0,0,1-.042.6" transform="translate(-84.963 -65.876)" fill="#fff"/>
        <path id="Trazado_731590" data-name="Trazado 731590" d="M222.511,181.015a25.683,25.683,0,0,1-6.813,1.8c-3.414.317-1.016,6.1,4.177,5.894s5.433-8.135,2.636-7.69" transform="translate(-85.974 -72.678)" fill="#fff"/>
        <path id="Trazado_731591" data-name="Trazado 731591" d="M204.255,164.446a1.174,1.174,0,1,1-.909-1.39,1.174,1.174,0,0,1,.909,1.39" transform="translate(-81.085 -65.464)" fill="#390028"/>
        <path id="Trazado_731592" data-name="Trazado 731592" d="M224.838,165.835a1.174,1.174,0,1,1-.909-1.39,1.174,1.174,0,0,1,.909,1.39" transform="translate(-89.35 -66.022)" fill="#390028"/>
        <path id="Trazado_731593" data-name="Trazado 731593" d="M204.055,167.566a.3.3,0,0,1-.175-.056,2.758,2.758,0,0,0-2.648-.108.3.3,0,1,1-.238-.549,3.352,3.352,0,0,1,3.237.171.3.3,0,0,1-.176.542" transform="translate(-80.636 -66.868)" fill="#852b0f"/>
        <path id="Trazado_731594" data-name="Trazado 731594" d="M224.193,169.05a.3.3,0,0,1-.2-.077,2.189,2.189,0,0,0-2.527-.1.3.3,0,0,1-.29-.524,2.771,2.771,0,0,1,3.217.175.3.3,0,0,1-.2.521" transform="translate(-88.751 -67.431)" fill="#852b0f"/>
        <path id="Trazado_731595" data-name="Trazado 731595" d="M222.761,212.318a17.413,17.413,0,0,0-14.72-8.816l-10.237-.078-14.31,7.444-9.329-7.639a50.818,50.818,0,0,0-6.188.3l-43.676-8.5,8.763-20.843a2.162,2.162,0,0,0-1.634-2.97l-19.809-3.336a2.3,2.3,0,0,0-2.465,1.282L97.072,194.673a16.161,16.161,0,0,0,8.069,24.258l40.467,17.829.228.869-4.624,12.647a19.25,19.25,0,0,0,1.714,16.744l4.2,6.643,1.641,25.258,98.7.026L249.7,246Z" transform="translate(-37.874 -67.398)" fill="#fff"/>
        <path id="Trazado_731596" data-name="Trazado 731596" d="M182.626,250.065l-10.037,17.7,4.676,2.876,4.425-12.1a37.077,37.077,0,0,1,.936-8.478" transform="translate(-69.302 -100.413)" fill="#eff7fe"/>
        <path id="Trazado_731597" data-name="Trazado 731597" d="M124.576,153.915l-.12-2.828c-1.862-4.043-.671-10.139.619-14.415h0l3,.919s12.58-7.742,19.233-4.256c2.56,1.341-.874,19.146-4.491,23.916Z" transform="translate(-49.588 -53.178)" fill="#a74f30"/>
        <g id="Grupo_966519" data-name="Grupo 966519" transform="translate(79.485 81.037)" opacity="0.32">
          <g id="Grupo_966518" data-name="Grupo 966518">
            <g id="Grupo_966517" data-name="Grupo 966517" clip-path="url(#clip-path-12)">
              <path id="Trazado_731598" data-name="Trazado 731598" d="M139.158,135.411s-.063.059-.178.171c-1.519,1.485-12,12.2-1.652,15.671,11.124,3.731,12.11-6.2,12.11-6.2" transform="translate(-132.817 -135.411)" fill="#852b0f"/>
            </g>
          </g>
        </g>
        <path id="Trazado_731599" data-name="Trazado 731599" d="M143.944,153.584h0a4.98,4.98,0,0,1-4.454-5.456l3.346-33.084,9.91,1L149.4,149.131a4.98,4.98,0,0,1-5.456,4.454" transform="translate(-56.001 -46.195)" fill="#dff5ff"/>
        <g id="Grupo_966522" data-name="Grupo 966522" transform="translate(84.569 68.94)" opacity="0.43">
          <g id="Grupo_966521" data-name="Grupo 966521">
            <g id="Grupo_966520" data-name="Grupo 966520" clip-path="url(#clip-path-13)">
              <path id="Trazado_731600" data-name="Trazado 731600" d="M144.936,151.24h0a4.4,4.4,0,0,1-3.6-5.053l3.134-30.991,8.131.822-3.134,30.991a4.4,4.4,0,0,1-4.535,4.23" transform="translate(-141.313 -115.196)" fill="#fff"/>
            </g>
          </g>
        </g>
        <path id="Trazado_731601" data-name="Trazado 731601" d="M145.4,153.1h0a3.731,3.731,0,0,1-3.337-4.087l2.507-24.786,7.424.751-2.507,24.785A3.731,3.731,0,0,1,145.4,153.1" transform="translate(-57.039 -49.881)" fill="#9f9fdd"/>
        <path id="Trazado_731602" data-name="Trazado 731602" d="M153.634,114.349l-9.072-.917a1.992,1.992,0,1,1,.4-3.964l9.072.917a1.992,1.992,0,1,1-.4,3.964" transform="translate(-57.329 -43.952)" fill="#c5e4ef"/>
        <g id="Grupo_966525" data-name="Grupo 966525" transform="translate(90.797 82.176)" opacity="0.43">
          <g id="Grupo_966524" data-name="Grupo 966524">
            <g id="Grupo_966523" data-name="Grupo 966523" clip-path="url(#clip-path-14)">
              <path id="Trazado_731603" data-name="Trazado 731603" d="M152.626,137.814a.454.454,0,1,1-.406-.5.453.453,0,0,1,.406.5" transform="translate(-151.72 -137.314)" fill="#fff"/>
            </g>
          </g>
        </g>
        <g id="Grupo_966528" data-name="Grupo 966528" transform="translate(87.838 87.756)" opacity="0.43">
          <g id="Grupo_966527" data-name="Grupo 966527">
            <g id="Grupo_966526" data-name="Grupo 966526" clip-path="url(#clip-path-14)">
              <path id="Trazado_731604" data-name="Trazado 731604" d="M147.68,147.138a.454.454,0,1,1-.406-.5.453.453,0,0,1,.406.5" transform="translate(-146.774 -146.638)" fill="#fff"/>
            </g>
          </g>
        </g>
        <g id="Grupo_966531" data-name="Grupo 966531" transform="translate(91.251 90.721)" opacity="0.43">
          <g id="Grupo_966530" data-name="Grupo 966530">
            <g id="Grupo_966529" data-name="Grupo 966529" clip-path="url(#clip-path-14)">
              <path id="Trazado_731605" data-name="Trazado 731605" d="M153.384,152.093a.454.454,0,1,1-.406-.5.454.454,0,0,1,.406.5" transform="translate(-152.478 -151.593)" fill="#fff"/>
            </g>
          </g>
        </g>
        <g id="Grupo_966534" data-name="Grupo 966534" transform="translate(74.688 81.423)" opacity="0.32">
          <g id="Grupo_966533" data-name="Grupo 966533">
            <g id="Grupo_966532" data-name="Grupo 966532" clip-path="url(#clip-path-17)">
              <path id="Trazado_731606" data-name="Trazado 731606" d="M126.1,136.635l-.5.434a2.361,2.361,0,0,0-.224,3.322l3.339,3.822a2.362,2.362,0,0,0,3.323.224l.5-.433a2.362,2.362,0,0,0,.224-3.323l-3.339-3.822a2.362,2.362,0,0,0-3.323-.224" transform="translate(-124.802 -136.056)" fill="#852b0f"/>
            </g>
          </g>
        </g>
        <path id="Trazado_731607" data-name="Trazado 731607" d="M128.64,125.727h0a2.581,2.581,0,0,0-.245,3.631l5.739,6.569a2.573,2.573,0,0,0,3.876-3.385l-5.739-6.57a2.581,2.581,0,0,0-3.631-.245" transform="translate(-51.303 -50.231)" fill="#a74f30"/>
        <path id="Trazado_731608" data-name="Trazado 731608" d="M135.116,120.07h0a2.581,2.581,0,0,0-.245,3.631l5.739,6.569a2.573,2.573,0,0,0,3.876-3.385l-5.739-6.57a2.581,2.581,0,0,0-3.631-.245" transform="translate(-53.903 -47.96)" fill="#a74f30"/>
        <path id="Trazado_731609" data-name="Trazado 731609" d="M124.873,134.309h0a2.581,2.581,0,0,0-.245,3.631l3.452,3.952a2.573,2.573,0,1,0,3.876-3.386l-3.452-3.952a2.581,2.581,0,0,0-3.631-.245" transform="translate(-49.79 -53.677)" fill="#a74f30"/>
        <path id="Trazado_731610" data-name="Trazado 731610" d="M156.309,141.96c-3.03-1.278-7.436-2.481-10.826-.7,0,0-2.559,1.767.186,3.507s7.167,3.351,8.323,5.189c1.029,1.637,2.733-.579,4.056-2.874a3.61,3.61,0,0,0-1.738-5.124" transform="translate(-57.982 -56.362)" fill="#a74f30"/>
        <path id="Trazado_731611" data-name="Trazado 731611" d="M247.385,215.882h0a13.6,13.6,0,0,0-13.569,12.663,13.6,13.6,0,0,0-13.569-12.663,21.931,21.931,0,0,0-.768,6.7h-.022l-.132,4.145,9.092,42.873a1.056,1.056,0,0,0,2.018.183L247.32,227.5a3.649,3.649,0,0,0,.256-1.3,20.453,20.453,0,0,0-.19-10.319" transform="translate(-88.069 -86.686)" fill="#ffa97c"/>
        <g id="Grupo_966537" data-name="Grupo 966537" transform="translate(118.681 138.593)" opacity="0.54">
          <g id="Grupo_966536" data-name="Grupo 966536">
            <g id="Grupo_966535" data-name="Grupo 966535" clip-path="url(#clip-path-18)">
              <path id="Trazado_731612" data-name="Trazado 731612" d="M216.673,276.227a.3.3,0,0,1-.258-.148L201,249.841a1.318,1.318,0,0,1,.493-1.817L206.9,245l-8.054-4.9a1.1,1.1,0,0,1-.139-1.78l7.868-6.665a.3.3,0,0,1,.387.457l-7.869,6.665a.5.5,0,0,0,.063.812l8.93,5.433-6.292,3.524a.718.718,0,0,0-.269.992l15.41,26.239a.3.3,0,0,1-.107.409.294.294,0,0,1-.151.041" transform="translate(-198.312 -231.585)" fill="#74caf3"/>
            </g>
          </g>
        </g>
        <g id="Grupo_966540" data-name="Grupo 966540" transform="translate(147.192 139.35)" opacity="0.54">
          <g id="Grupo_966539" data-name="Grupo 966539">
            <g id="Grupo_966538" data-name="Grupo 966538" clip-path="url(#clip-path-19)">
              <path id="Trazado_731613" data-name="Trazado 731613" d="M246.252,278.332a.3.3,0,0,1-.177-.058.3.3,0,0,1-.064-.418l19.722-26.844a.721.721,0,0,0-.233-.99l-6.123-3.809,9.17-5.017a.5.5,0,0,0,.1-.808l-7.554-7.02a.3.3,0,1,1,.408-.438l7.554,7.02a1.1,1.1,0,0,1-.221,1.771l-8.271,4.525,5.253,3.268a1.316,1.316,0,0,1,.409,1.838L246.493,278.21a.3.3,0,0,1-.241.122" transform="translate(-245.953 -232.85)" fill="#74caf3"/>
            </g>
          </g>
        </g>
        <path id="Trazado_731614" data-name="Trazado 731614" d="M284.161,315.431H264.918a.706.706,0,0,1-.7-.7v-3.051a.705.705,0,0,1,.7-.7h19.243a.7.7,0,0,1,.7.7v3.051a.705.705,0,0,1-.7.7m-19.243-3.861a.106.106,0,0,0-.106.105v3.051a.106.106,0,0,0,.106.106h19.243a.106.106,0,0,0,.106-.106v-3.051a.106.106,0,0,0-.106-.105Z" transform="translate(-106.094 -124.869)" fill="#74caf3"/>
        <path id="Trazado_731615" data-name="Trazado 731615" d="M243.035,246.5h-.005a.3.3,0,0,1-.294-.3l.212-11.758a.3.3,0,0,1,.6.01l-.212,11.758a.3.3,0,0,1-.3.294" transform="translate(-97.47 -94.02)" fill="#fff"/>
        <g id="Grupo_966546" data-name="Grupo 966546" transform="translate(0 4.435)" opacity="0.52">
          <g id="Grupo_966545" data-name="Grupo 966545">
            <g id="Grupo_966544" data-name="Grupo 966544" clip-path="url(#clip-path-20)">
              <path id="Trazado_731616" data-name="Trazado 731616" d="M315.4,90.949a5.349,5.349,0,1,1,.66-.041,5.341,5.341,0,0,1-.66.041m.013-9.472a4.3,4.3,0,0,0-.518.032,4.129,4.129,0,1,0,.518-.032" transform="translate(-124.507 -36.671)" fill="#fff"/>
              <rect id="Rectángulo_341936" data-name="Rectángulo 341936" width="1.197" height="10.376" transform="translate(178.548 40.211) rotate(-50.817)" fill="#fff"/>
              <path id="Trazado_731617" data-name="Trazado 731617" d="M295.962,73.065a2.262,2.262,0,0,1-.276-4.507,2.262,2.262,0,0,1,2.523,1.967,2.265,2.265,0,0,1-1.967,2.523,2.335,2.335,0,0,1-.28.017m0-3.327a1.118,1.118,0,0,0-.133.008,1.061,1.061,0,1,0,.133-.008" transform="translate(-117.935 -31.957)" fill="#fff"/>
              <rect id="Rectángulo_341937" data-name="Rectángulo 341937" width="1.197" height="7.84" transform="translate(194.593 52.2) rotate(-60.745)" fill="#fff"/>
              <path id="Trazado_731618" data-name="Trazado 731618" d="M337.235,101.383a1.766,1.766,0,1,1,.385-.042,1.8,1.8,0,0,1-.385.042m.005-2.333a.577.577,0,0,0-.124.013h0a.565.565,0,1,0,.125-.014" transform="translate(-134.708 -43.727)" fill="#fff"/>
              <rect id="Rectángulo_341938" data-name="Rectángulo 341938" width="6.332" height="1.197" transform="matrix(0.739, -0.674, 0.674, 0.739, 182.653, 56.292)" fill="#fff"/>
              <path id="Trazado_731619" data-name="Trazado 731619" d="M303.49,104.019a1.8,1.8,0,0,1-.2-.01,1.875,1.875,0,1,1,.2.01m-.005-2.569a.685.685,0,0,0-.68.615.686.686,0,1,0,.752-.612.717.717,0,0,0-.072,0" transform="translate(-121.108 -44.691)" fill="#fff"/>
              <rect id="Rectángulo_341939" data-name="Rectángulo 341939" width="8.414" height="1.197" transform="translate(192.184 44.381) rotate(-69.843)" fill="#fff"/>
              <path id="Trazado_731620" data-name="Trazado 731620" d="M326.429,68.062a1.66,1.66,0,1,1,.692-.153,1.658,1.658,0,0,1-.692.153m0-2.118a.45.45,0,0,0-.191.042.455.455,0,0,0-.24.259.461.461,0,0,0,.272.591.467.467,0,0,0,.352-.014.46.46,0,0,0-.193-.878" transform="translate(-130.41 -30.435)" fill="#fff"/>
              <rect id="Rectángulo_341940" data-name="Rectángulo 341940" width="8.414" height="1.197" transform="matrix(0.884, -0.467, 0.467, 0.884, 195.223, 46.803)" fill="#fff"/>
              <path id="Trazado_731621" data-name="Trazado 731621" d="M339.269,80.008a1.67,1.67,0,0,1-.494-.075h0a1.643,1.643,0,1,1,.494.076m-.138-1.218a.46.46,0,1,0-.077-.846.46.46,0,0,0,.077.846" transform="translate(-135.566 -35.231)" fill="#fff"/>
              <path id="Trazado_731622" data-name="Trazado 731622" d="M58.452,208.126a5.345,5.345,0,1,1,.667-.042,5.3,5.3,0,0,1-.667.042m.014-9.472a4.241,4.241,0,0,0-.512.032,4.135,4.135,0,1,0,.512-.032" transform="translate(-21.333 -83.723)" fill="#fff"/>
              <rect id="Rectángulo_341941" data-name="Rectángulo 341941" width="1.197" height="10.376" transform="translate(24.781 110.336) rotate(-50.819)" fill="#fff"/>
              <path id="Trazado_731623" data-name="Trazado 731623" d="M39.02,190.241a2.262,2.262,0,0,1-.276-4.507,2.262,2.262,0,1,1,.557,4.49,2.335,2.335,0,0,1-.28.017m0-3.327a1.118,1.118,0,0,0-.133.008,1.065,1.065,0,1,0,.262,2.114,1.065,1.065,0,0,0,.926-1.187h0a1.065,1.065,0,0,0-1.055-.934" transform="translate(-14.761 -79.009)" fill="#fff"/>
              <rect id="Rectángulo_341942" data-name="Rectángulo 341942" width="1.197" height="7.84" transform="translate(40.825 122.325) rotate(-60.744)" fill="#fff"/>
              <path id="Trazado_731624" data-name="Trazado 731624" d="M80.294,218.56a1.765,1.765,0,0,1-.378-3.489h0a1.765,1.765,0,0,1,.762,3.447,1.791,1.791,0,0,1-.385.042m-.118-2.32a.568.568,0,1,0,.6.86.568.568,0,0,0-.6-.86" transform="translate(-31.534 -90.779)" fill="#fff"/>
              <rect id="Rectángulo_341943" data-name="Rectángulo 341943" width="6.332" height="1.196" transform="matrix(0.739, -0.674, 0.674, 0.739, 28.886, 126.417)" fill="#fff"/>
              <path id="Trazado_731625" data-name="Trazado 731625" d="M46.547,221.2a1.929,1.929,0,0,1-.194-.01,1.88,1.88,0,1,1,.194.01m0-2.569a.686.686,0,0,0-.069,1.368.686.686,0,1,0,.14-1.364.559.559,0,0,0-.071,0" transform="translate(-17.934 -91.744)" fill="#fff"/>
              <rect id="Rectángulo_341944" data-name="Rectángulo 341944" width="8.415" height="1.196" transform="translate(38.418 114.507) rotate(-69.87)" fill="#fff"/>
              <path id="Trazado_731626" data-name="Trazado 731626" d="M69.49,185.236a1.657,1.657,0,1,1,.691-.152h0a1.647,1.647,0,0,1-.69.151m0-2.117a.46.46,0,1,0,.16.029.461.461,0,0,0-.16-.029" transform="translate(-27.237 -77.485)" fill="#fff"/>
              <rect id="Rectángulo_341945" data-name="Rectángulo 341945" width="8.414" height="1.197" transform="translate(41.456 116.929) rotate(-27.847)" fill="#fff"/>
              <path id="Trazado_731627" data-name="Trazado 731627" d="M82.325,197.184a1.657,1.657,0,1,1,1.584-1.165,1.662,1.662,0,0,1-1.584,1.165m0-2.117a.46.46,0,0,0-.138.9h0a.46.46,0,0,0,.273-.878.456.456,0,0,0-.136-.021" transform="translate(-32.392 -82.283)" fill="#fff"/>
              <path id="Trazado_731628" data-name="Trazado 731628" d="M610.15,143.666a5.349,5.349,0,1,1,.66-.041,5.341,5.341,0,0,1-.66.041m.012-9.472a4.3,4.3,0,0,0-.517.032,4.128,4.128,0,1,0,.517-.032" transform="translate(-242.863 -57.839)" fill="#fff"/>
              <rect id="Rectángulo_341946" data-name="Rectángulo 341946" width="1.197" height="10.376" transform="translate(354.943 71.759) rotate(-50.814)" fill="#fff"/>
              <path id="Trazado_731629" data-name="Trazado 731629" d="M590.709,125.781a2.275,2.275,0,1,1,.283-.018,2.245,2.245,0,0,1-.283.018m.007-3.328a1.116,1.116,0,0,0-.133.008,1.065,1.065,0,1,0,.262,2.114,1.065,1.065,0,0,0-.129-2.122" transform="translate(-236.29 -53.125)" fill="#fff"/>
              <rect id="Rectángulo_341947" data-name="Rectángulo 341947" width="1.197" height="7.84" transform="translate(370.987 83.748) rotate(-60.745)" fill="#fff"/>
              <path id="Trazado_731630" data-name="Trazado 731630" d="M631.988,154.1a1.765,1.765,0,1,1,1.723-2.147,1.765,1.765,0,0,1-1.342,2.1,1.772,1.772,0,0,1-.381.042m0-2.333a.582.582,0,0,0-.124.014.563.563,0,1,0,.124-.014" transform="translate(-253.063 -64.896)" fill="#fff"/>
              <rect id="Rectángulo_341948" data-name="Rectángulo 341948" width="6.332" height="1.196" transform="matrix(0.739, -0.674, 0.674, 0.739, 359.048, 87.84)" fill="#fff"/>
              <path id="Trazado_731631" data-name="Trazado 731631" d="M598.238,156.736a1.77,1.77,0,0,1-.194-.01,1.88,1.88,0,1,1,.194.01m0-2.569a.686.686,0,1,0,.07,0,.687.687,0,0,0-.07,0" transform="translate(-239.463 -65.86)" fill="#fff"/>
              <rect id="Rectángulo_341949" data-name="Rectángulo 341949" width="8.414" height="1.197" transform="translate(368.578 75.929) rotate(-69.843)" fill="#fff"/>
              <path id="Trazado_731632" data-name="Trazado 731632" d="M621.18,120.777a1.657,1.657,0,1,1,.691-.152,1.66,1.66,0,0,1-.691.152m0-2.116a.46.46,0,1,0,.191.877h0a.458.458,0,0,0,.226-.609.46.46,0,0,0-.418-.268" transform="translate(-248.766 -51.603)" fill="#fff"/>
              <rect id="Rectángulo_341950" data-name="Rectángulo 341950" width="8.414" height="1.197" transform="translate(371.618 78.351) rotate(-27.834)" fill="#fff"/>
              <path id="Trazado_731633" data-name="Trazado 731633" d="M634.019,132.725a1.66,1.66,0,1,1,.768-.191,1.647,1.647,0,0,1-.768.191m0-2.117a.459.459,0,0,0-.438.323.46.46,0,0,0,.3.576h0a.46.46,0,0,0,.575-.3.46.46,0,0,0-.3-.576.467.467,0,0,0-.137-.021" transform="translate(-253.921 -56.399)" fill="#fff"/>
              <path id="Trazado_731634" data-name="Trazado 731634" d="M332.643,183.22a2.842,2.842,0,0,1-.326-.019,2.879,2.879,0,1,1,.326.019m-.006-4.567a1.7,1.7,0,1,0,.193.011,1.736,1.736,0,0,0-.193-.011" transform="translate(-132.413 -75.692)" fill="#fff"/>
              <path id="Trazado_731635" data-name="Trazado 731635" d="M351.7,152.351a2.845,2.845,0,0,1-.326-.019,2.882,2.882,0,1,1,.647-5.727,2.88,2.88,0,0,1,2.54,3.187,2.887,2.887,0,0,1-2.862,2.559m-.006-4.567a1.7,1.7,0,1,0,.193.011,1.731,1.731,0,0,0-.193-.011" transform="translate(-140.067 -63.296)" fill="#fff"/>
              <path id="Trazado_731636" data-name="Trazado 731636" d="M363.386,185.721a2.842,2.842,0,0,1-.326-.019,2.879,2.879,0,1,1,.326.019m0-4.567a1.7,1.7,0,1,0,.19.011,1.687,1.687,0,0,0-.19-.011" transform="translate(-144.758 -76.696)" fill="#fff"/>
              <path id="Trazado_731637" data-name="Trazado 731637" d="M384.66,136.5a2.882,2.882,0,0,1-1.8-5.136,2.884,2.884,0,0,1,3.209-.259,2.878,2.878,0,0,1,1.451,2.835h0a2.882,2.882,0,0,1-2.858,2.559m-.01-4.567a1.7,1.7,0,1,0,.193.011,1.732,1.732,0,0,0-.193-.011" transform="translate(-153.299 -56.93)" fill="#fff"/>
              <path id="Trazado_731638" data-name="Trazado 731638" d="M353.321,163.589a1.1,1.1,0,0,1-1-.637l-6.365-13.444-9.2,13.9-1-.66,9.286-14.028a1.1,1.1,0,0,1,1.007-.5,1.112,1.112,0,0,1,.925.633l6.353,13.417,11.349-24.224,1.083.508L354.328,162.95a1.1,1.1,0,0,1-1.006.64Z" transform="translate(-134.819 -59.87)" fill="#fff"/>
              <path id="Trazado_731639" data-name="Trazado 731639" d="M544.186,111.027a4.118,4.118,0,0,1-1.314-.233c-3.456-1.163-8.129-6.786-11.626-13.989C527.2,88.475,525.254,78.726,529,76.828a3.3,3.3,0,0,1,2.606-.065c3.456,1.163,8.128,6.785,11.626,13.989,4.044,8.329,5.992,18.079,2.251,19.976a2.812,2.812,0,0,1-1.291.3m-13.9-33.3a1.647,1.647,0,0,0-.755.169c-2.33,1.182-1.759,9.023,2.786,18.385,3.314,6.826,7.809,12.327,10.931,13.378a2.152,2.152,0,0,0,1.683,0c2.33-1.181,1.759-9.023-2.787-18.386-3.314-6.825-7.809-12.326-10.931-13.377a2.941,2.941,0,0,0-.928-.17" transform="translate(-211.613 -35.165)" fill="#fff"/>
              <path id="Trazado_731640" data-name="Trazado 731640" d="M522.391,108.758a9.345,9.345,0,0,1-2.953-.414,3.7,3.7,0,0,1-2.285-1.83c-1.719-3.541,3.959-9.878,12.928-14.426,6.676-3.385,13.272-4.8,16.8-3.616a3.694,3.694,0,0,1,2.284,1.83c1.719,3.542-3.959,9.878-12.928,14.426-5.11,2.591-10.173,4.031-13.85,4.031m21.55-19.506c-3.46,0-8.412,1.416-13.318,3.9-8.94,4.534-13.625,10.3-12.393,12.835a2.559,2.559,0,0,0,1.59,1.219c3.19,1.074,9.573-.352,15.879-3.55,8.94-4.533,13.625-10.3,12.393-12.835a2.558,2.558,0,0,0-1.589-1.219,8.149,8.149,0,0,0-2.562-.354" transform="translate(-207.538 -39.794)" fill="#fff"/>
              <path id="Trazado_731641" data-name="Trazado 731641" d="M542.912,108.368a38.115,38.115,0,0,1-12.47-2.56c-9.593-3.508-16.214-9.15-15.071-12.845a3.448,3.448,0,0,1,1.9-2.047c3.282-1.628,10.079-.97,17.316,1.676,9.593,3.508,16.213,9.15,15.071,12.846a3.449,3.449,0,0,1-1.9,2.046,11.183,11.183,0,0,1-4.846.883M522.09,91.228a9.946,9.946,0,0,0-4.283.761,2.312,2.312,0,0,0-1.293,1.328c-.821,2.657,4.745,7.859,14.34,11.368,6.834,2.5,13.414,3.193,16.373,1.728a2.313,2.313,0,0,0,1.293-1.327c.821-2.658-4.745-7.859-14.34-11.368a37.241,37.241,0,0,0-12.09-2.488" transform="translate(-206.893 -40.587)" fill="#fff"/>
              <path id="Trazado_731642" data-name="Trazado 731642" d="M542.507,105.737a2.857,2.857,0,1,1,.467-.039,2.816,2.816,0,0,1-.467.039m0-4.512a1.657,1.657,0,1,0,1.634,1.387,1.676,1.676,0,0,0-1.634-1.387" transform="translate(-216.695 -44.601)" fill="#fff"/>
              <path id="Trazado_731643" data-name="Trazado 731643" d="M200,62.692a4.964,4.964,0,0,1-1.58-.282c-4.243-1.428-9.99-8.354-14.3-17.236-5.675-11.686-6.926-22.459-2.849-24.528a3.937,3.937,0,0,1,3.114-.073c4.242,1.428,9.99,8.355,14.3,17.236,5.675,11.687,6.926,22.461,2.849,24.528a3.342,3.342,0,0,1-1.534.355M182.8,21.49a2.172,2.172,0,0,0-1,.224c-3,1.524-2.361,11.1,3.384,22.937,4.116,8.477,9.711,15.313,13.608,16.624a2.8,2.8,0,0,0,2.192-.007c3-1.523,2.362-11.1-3.384-22.937C193.49,29.856,187.894,23.019,184,21.708a3.753,3.753,0,0,0-1.193-.218" transform="translate(-71.826 -12.583)" fill="#fff"/>
              <path id="Trazado_731644" data-name="Trazado 731644" d="M173.031,59.884a11.451,11.451,0,0,1-3.615-.507,4.437,4.437,0,0,1-2.744-2.192c-2.093-4.311,4.9-12.068,15.932-17.66,8.229-4.173,16.348-5.927,20.681-4.467a4.437,4.437,0,0,1,2.745,2.192c2.093,4.311-4.906,12.068-15.932,17.66-6.3,3.2-12.544,4.974-17.067,4.974M199.7,35.749c-4.309,0-10.461,1.756-16.55,4.844-11.136,5.646-16.952,12.868-15.4,16.069a3.3,3.3,0,0,0,2.049,1.581c3.983,1.339,11.922-.427,19.759-4.4,11.135-5.646,16.951-12.867,15.4-16.07a3.3,3.3,0,0,0-2.05-1.58,10.187,10.187,0,0,0-3.208-.443" transform="translate(-66.778 -18.309)" fill="#fff"/>
              <path id="Trazado_731645" data-name="Trazado 731645" d="M198.417,59.4a47.037,47.037,0,0,1-15.379-3.16c-11.8-4.315-19.952-11.219-18.562-15.719a4.132,4.132,0,0,1,2.284-2.446c4.03-2,12.395-1.182,21.313,2.08,11.8,4.314,19.952,11.219,18.561,15.719a4.133,4.133,0,0,1-2.285,2.446,13.686,13.686,0,0,1-5.933,1.081M172.653,38.2a12.449,12.449,0,0,0-5.361.953,3,3,0,0,0-1.673,1.728c-1.035,3.35,5.882,9.873,17.83,14.241,8.492,3.1,16.677,3.962,20.37,2.131a3,3,0,0,0,1.673-1.728c1.035-3.35-5.882-9.872-17.83-14.241A46.22,46.22,0,0,0,172.653,38.2" transform="translate(-65.983 -19.291)" fill="#fff"/>
              <path id="Trazado_731646" data-name="Trazado 731646" d="M197.913,56.146a3.406,3.406,0,1,1,.561-.047,3.369,3.369,0,0,1-.561.047m.012-5.583a2.257,2.257,0,0,0-.363.03,2.185,2.185,0,1,0,.363-.03" transform="translate(-78.113 -24.258)" fill="#fff"/>
              <path id="Trazado_731647" data-name="Trazado 731647" d="M3.521,133.994a1.761,1.761,0,1,1-1.761-1.761,1.761,1.761,0,0,1,1.761,1.761" transform="translate(0 -57.533)" fill="#9f9fdd"/>
              <path id="Trazado_731648" data-name="Trazado 731648" d="M245.062,84.595a1.761,1.761,0,1,1-1.761-1.761,1.761,1.761,0,0,1,1.761,1.761" transform="translate(-96.99 -37.697)" fill="#9f9fdd"/>
              <path id="Trazado_731649" data-name="Trazado 731649" d="M509.991,144.583a1.761,1.761,0,1,1-1.761-1.761,1.761,1.761,0,0,1,1.761,1.761" transform="translate(-203.371 -61.785)" fill="#9f9fdd"/>
              <path id="Trazado_731650" data-name="Trazado 731650" d="M123.483,39.876a1.761,1.761,0,1,1-1.761-1.761,1.761,1.761,0,0,1,1.761,1.761" transform="translate(-48.17 -19.74)" fill="#9f9fdd"/>
              <path id="Trazado_731651" data-name="Trazado 731651" d="M548.933,9.172a1.761,1.761,0,1,1-1.761-1.761,1.76,1.76,0,0,1,1.761,1.761" transform="translate(-219.008 -7.411)" fill="#9f9fdd"/>
              <path id="Trazado_731652" data-name="Trazado 731652" d="M100.7,137.878a.88.88,0,1,1-.88-.88.881.881,0,0,1,.88.88" transform="translate(-39.73 -59.446)" fill="#9f9fdd"/>
              <path id="Trazado_731653" data-name="Trazado 731653" d="M427.048,45.088a1.761,1.761,0,1,1-1.761-1.761,1.761,1.761,0,0,1,1.761,1.761" transform="translate(-170.065 -21.833)" fill="#9f9fdd"/>
              <path id="Trazado_731654" data-name="Trazado 731654" d="M19.244,240.629a1.761,1.761,0,1,1-1.761-1.761,1.761,1.761,0,0,1,1.761,1.761" transform="translate(-6.314 -100.352)" fill="#9f9fdd"/>
              <path id="Trazado_731655" data-name="Trazado 731655" d="M661.874,239.877a1.761,1.761,0,1,1-1.761-1.761,1.761,1.761,0,0,1,1.761,1.761" transform="translate(-264.359 -100.05)" fill="#9f9fdd"/>
              <path id="Trazado_731656" data-name="Trazado 731656" d="M594.463,89.171A1.761,1.761,0,1,1,592.7,87.41a1.761,1.761,0,0,1,1.761,1.761" transform="translate(-237.29 -39.534)" fill="#9f9fdd"/>
              <path id="Trazado_731657" data-name="Trazado 731657" d="M592.7,256.643a.88.88,0,1,1-.88-.88.881.881,0,0,1,.88.88" transform="translate(-237.29 -107.136)" fill="#9f9fdd"/>
              <path id="Trazado_731658" data-name="Trazado 731658" d="M359.467,113.82a.88.88,0,1,1-.88-.88.881.881,0,0,1,.88.88" transform="translate(-143.635 -49.786)" fill="#9f9fdd"/>
              <path id="Trazado_731659" data-name="Trazado 731659" d="M3.769,344.4a.88.88,0,1,1-.88-.88.881.881,0,0,1,.88.88" transform="translate(-0.806 -142.374)" fill="#9f9fdd"/>
              <g id="Grupo_966543" data-name="Grupo 966543" transform="translate(128.077 19.384)" opacity="0.47">
                <g id="Grupo_966542" data-name="Grupo 966542">
                  <g id="Grupo_966541" data-name="Grupo 966541" clip-path="url(#clip-path-21)">
                    <path id="Trazado_731660" data-name="Trazado 731660" d="M215.775,40.681a.88.88,0,1,1-.88-.88.881.881,0,0,1,.88.88" transform="translate(-214.013 -39.801)" fill="#fff"/>
                  </g>
                </g>
              </g>
              <path id="Trazado_731661" data-name="Trazado 731661" d="M269.433,33.957a1.761,1.761,0,1,1-1.761-1.761,1.761,1.761,0,0,1,1.761,1.761" transform="translate(-106.776 -17.363)" fill="#fff"/>
              <path id="Trazado_731662" data-name="Trazado 731662" d="M621.577,45.714a1.362,1.362,0,1,1-1.362-1.362,1.362,1.362,0,0,1,1.362,1.362" transform="translate(-248.498 -22.245)" fill="#fff"/>
              <path id="Trazado_731663" data-name="Trazado 731663" d="M388.727,86.9a1.761,1.761,0,1,1-1.761-1.761,1.761,1.761,0,0,1,1.761,1.761" transform="translate(-154.678 -38.622)" fill="#fff"/>
              <path id="Trazado_731664" data-name="Trazado 731664" d="M543.724,174.1a1.083,1.083,0,1,1-1.083-1.083,1.083,1.083,0,0,1,1.083,1.083" transform="translate(-217.46 -73.91)" fill="#fff"/>
              <path id="Trazado_731665" data-name="Trazado 731665" d="M570.195,255.279a1.083,1.083,0,1,1-1.083-1.083,1.083,1.083,0,0,1,1.083,1.083" transform="translate(-228.09 -106.506)" fill="#fff"/>
              <path id="Trazado_731666" data-name="Trazado 731666" d="M130.784,279.168a1.761,1.761,0,1,1-1.761-1.761,1.76,1.76,0,0,1,1.761,1.761" transform="translate(-51.102 -115.827)" fill="#fff"/>
              <path id="Trazado_731667" data-name="Trazado 731667" d="M321.52,229.994a1.761,1.761,0,1,1-1.761-1.761,1.761,1.761,0,0,1,1.761,1.761" transform="translate(-127.691 -96.081)" fill="#fff"/>
              <path id="Trazado_731668" data-name="Trazado 731668" d="M9.576,25.64a1.761,1.761,0,1,1-1.761-1.761A1.761,1.761,0,0,1,9.576,25.64" transform="translate(-2.431 -14.024)" fill="#fff"/>
              <path id="Trazado_731669" data-name="Trazado 731669" d="M151.672,87.461a1.5,1.5,0,1,1-1.5-1.5,1.5,1.5,0,0,1,1.5,1.5" transform="translate(-59.696 -38.951)" fill="#fff"/>
            </g>
          </g>
        </g>
        <path id="Trazado_731670" data-name="Trazado 731670" d="M156.253,344.491h0a5.109,5.109,0,0,0,5.183-5.032v-33.6H151.07v33.6a5.109,5.109,0,0,0,5.183,5.032" transform="translate(-60.662 -122.817)" fill="#dff5ff"/>
        <g id="Grupo_966549" data-name="Grupo 966549" transform="translate(91.333 183.043)" opacity="0.43">
          <g id="Grupo_966548" data-name="Grupo 966548">
            <g id="Grupo_966547" data-name="Grupo 966547" clip-path="url(#clip-path-22)">
              <path id="Trazado_731671" data-name="Trazado 731671" d="M156.867,342.047h0a4.5,4.5,0,0,0,4.252-4.714V305.86h-8.5v31.473a4.5,4.5,0,0,0,4.252,4.714" transform="translate(-152.614 -305.86)" fill="#fff"/>
            </g>
          </g>
        </g>
        <path id="Trazado_731672" data-name="Trazado 731672" d="M157.125,343.909h0a3.827,3.827,0,0,0,3.883-3.77V314.968h-7.766v25.171a3.827,3.827,0,0,0,3.883,3.77" transform="translate(-61.534 -126.474)" fill="#74caf3"/>
        <path id="Trazado_731673" data-name="Trazado 731673" d="M150.345,304.1h9.488a2.073,2.073,0,1,0,0-4.146h-9.488a2.073,2.073,0,1,0,0,4.146" transform="translate(-59.538 -120.445)" fill="#c5e4ef"/>
        <g id="Grupo_966552" data-name="Grupo 966552" transform="translate(94.285 196.377)" opacity="0.43">
          <g id="Grupo_966551" data-name="Grupo 966551">
            <g id="Grupo_966550" data-name="Grupo 966550" clip-path="url(#clip-path-23)">
              <path id="Trazado_731674" data-name="Trazado 731674" d="M157.548,328.613a.472.472,0,1,0,.473-.472.473.473,0,0,0-.473.472" transform="translate(-157.548 -328.141)" fill="#fff"/>
            </g>
          </g>
        </g>
        <g id="Grupo_966555" data-name="Grupo 966555" transform="translate(96.766 202.464)" opacity="0.43">
          <g id="Grupo_966554" data-name="Grupo 966554">
            <g id="Grupo_966553" data-name="Grupo 966553" clip-path="url(#clip-path-24)">
              <path id="Trazado_731675" data-name="Trazado 731675" d="M161.693,338.785a.472.472,0,1,0,.472-.472.472.472,0,0,0-.472.472" transform="translate(-161.693 -338.313)" fill="#fff"/>
            </g>
          </g>
        </g>
        <g id="Grupo_966558" data-name="Grupo 966558" transform="translate(92.921 205.177)" opacity="0.43">
          <g id="Grupo_966557" data-name="Grupo 966557">
            <g id="Grupo_966556" data-name="Grupo 966556" clip-path="url(#clip-path-24)">
              <path id="Trazado_731676" data-name="Trazado 731676" d="M155.269,343.318a.472.472,0,1,0,.473-.473.473.473,0,0,0-.473.473" transform="translate(-155.269 -342.845)" fill="#fff"/>
            </g>
          </g>
        </g>
        <path id="Trazado_731677" data-name="Trazado 731677" d="M120.317,347.025h0a5.275,5.275,0,0,0,5.183-5.362v-35.8H115.134v35.8a5.275,5.275,0,0,0,5.183,5.362" transform="translate(-46.232 -122.817)" fill="#dff5ff"/>
        <g id="Grupo_966561" data-name="Grupo 966561" transform="translate(69.827 183.043)" opacity="0.43">
          <g id="Grupo_966560" data-name="Grupo 966560">
            <g id="Grupo_966559" data-name="Grupo 966559" clip-path="url(#clip-path-26)">
              <path id="Trazado_731678" data-name="Trazado 731678" d="M120.931,344.421h0c2.348,0,4.252-2.249,4.252-5.023V305.86h-8.5V339.4c0,2.774,1.9,5.023,4.252,5.023" transform="translate(-116.679 -305.86)" fill="#fff"/>
            </g>
          </g>
        </g>
        <path id="Trazado_731679" data-name="Trazado 731679" d="M121.19,346.406h0a3.952,3.952,0,0,0,3.883-4.017V315.566h-7.766v26.822a3.952,3.952,0,0,0,3.883,4.017" transform="translate(-47.104 -126.714)" fill="#aeade7"/>
        <path id="Trazado_731680" data-name="Trazado 731680" d="M114.409,304.1H123.9a2.073,2.073,0,1,0,0-4.146h-9.488a2.073,2.073,0,1,0,0,4.146" transform="translate(-45.108 -120.445)" fill="#c5e4ef"/>
        <g id="Grupo_966564" data-name="Grupo 966564" transform="translate(72.78 196.377)" opacity="0.43">
          <g id="Grupo_966563" data-name="Grupo 966563">
            <g id="Grupo_966562" data-name="Grupo 966562" clip-path="url(#clip-path-24)">
              <path id="Trazado_731681" data-name="Trazado 731681" d="M121.613,328.613a.472.472,0,1,0,.473-.472.473.473,0,0,0-.473.472" transform="translate(-121.613 -328.141)" fill="#fff"/>
            </g>
          </g>
        </g>
        <g id="Grupo_966567" data-name="Grupo 966567" transform="translate(75.26 202.464)" opacity="0.43">
          <g id="Grupo_966566" data-name="Grupo 966566">
            <g id="Grupo_966565" data-name="Grupo 966565" clip-path="url(#clip-path-24)">
              <path id="Trazado_731682" data-name="Trazado 731682" d="M125.758,338.785a.472.472,0,1,0,.472-.472.472.472,0,0,0-.472.472" transform="translate(-125.758 -338.313)" fill="#fff"/>
            </g>
          </g>
        </g>
        <g id="Grupo_966570" data-name="Grupo 966570" transform="translate(71.415 205.177)" opacity="0.43">
          <g id="Grupo_966569" data-name="Grupo 966569">
            <g id="Grupo_966568" data-name="Grupo 966568" clip-path="url(#clip-path-24)">
              <path id="Trazado_731683" data-name="Trazado 731683" d="M119.333,343.318a.472.472,0,1,0,.473-.473.472.472,0,0,0-.473.473" transform="translate(-119.333 -342.845)" fill="#fff"/>
            </g>
          </g>
        </g>
        <path id="Trazado_731684" data-name="Trazado 731684" d="M83.092,349.222h0a5.473,5.473,0,0,0,5.183-5.722V305.293H77.909V343.5a5.473,5.473,0,0,0,5.183,5.722" transform="translate(-31.284 -122.589)" fill="#dff5ff"/>
        <g id="Grupo_966573" data-name="Grupo 966573" transform="translate(47.549 182.704)" opacity="0.43">
          <g id="Grupo_966572" data-name="Grupo 966572">
            <g id="Grupo_966571" data-name="Grupo 966571" clip-path="url(#clip-path-30)">
              <path id="Trazado_731685" data-name="Trazado 731685" d="M83.705,346.443h0c2.348,0,4.252-2.4,4.252-5.36V305.293h-8.5v35.789c0,2.961,1.9,5.36,4.252,5.36" transform="translate(-79.453 -305.293)" fill="#fff"/>
            </g>
          </g>
        </g>
        <path id="Trazado_731686" data-name="Trazado 731686" d="M83.964,348.561h0a4.1,4.1,0,0,0,3.883-4.287V315.651H80.081v28.623a4.1,4.1,0,0,0,3.883,4.287" transform="translate(-32.156 -126.748)" fill="#ffa97c"/>
        <path id="Trazado_731687" data-name="Trazado 731687" d="M77.183,304.1h9.488a2.073,2.073,0,1,0,0-4.146H77.183a2.073,2.073,0,1,0,0,4.146" transform="translate(-30.16 -120.445)" fill="#c5e4ef"/>
        <g id="Grupo_966576" data-name="Grupo 966576" transform="translate(50.502 196.377)" opacity="0.43">
          <g id="Grupo_966575" data-name="Grupo 966575">
            <g id="Grupo_966574" data-name="Grupo 966574" clip-path="url(#clip-path-24)">
              <path id="Trazado_731688" data-name="Trazado 731688" d="M84.387,328.613a.472.472,0,1,0,.472-.472.473.473,0,0,0-.472.472" transform="translate(-84.387 -328.141)" fill="#fff"/>
            </g>
          </g>
        </g>
        <g id="Grupo_966579" data-name="Grupo 966579" transform="translate(52.982 202.464)" opacity="0.43">
          <g id="Grupo_966578" data-name="Grupo 966578">
            <g id="Grupo_966577" data-name="Grupo 966577" clip-path="url(#clip-path-24)">
              <path id="Trazado_731689" data-name="Trazado 731689" d="M88.532,338.785a.472.472,0,1,0,.472-.472.472.472,0,0,0-.472.472" transform="translate(-88.532 -338.313)" fill="#fff"/>
            </g>
          </g>
        </g>
        <g id="Grupo_966582" data-name="Grupo 966582" transform="translate(49.137 205.177)" opacity="0.43">
          <g id="Grupo_966581" data-name="Grupo 966581">
            <g id="Grupo_966580" data-name="Grupo 966580" clip-path="url(#clip-path-24)">
              <path id="Trazado_731690" data-name="Trazado 731690" d="M82.107,343.318a.472.472,0,1,0,.472-.473.472.472,0,0,0-.472.473" transform="translate(-82.107 -342.845)" fill="#fff"/>
            </g>
          </g>
        </g>
        <rect id="Rectángulo_341965" data-name="Rectángulo 341965" width="3.023" height="35.862" transform="translate(107.221 192.887)" fill="#a7b0be"/>
        <rect id="Rectángulo_341966" data-name="Rectángulo 341966" width="3.023" height="35.862" transform="translate(35.926 192.887)" fill="#a7b0be"/>
        <path id="Trazado_731691" data-name="Trazado 731691" d="M58.529,324.406H133.84a2,2,0,0,0,2-2v-.83a2,2,0,0,0-2-2H58.529a2,2,0,0,0-2,2v.83a2,2,0,0,0,2,2" transform="translate(-22.699 -128.325)" fill="#525f72"/>
        <path id="Trazado_731692" data-name="Trazado 731692" d="M58.235,345.953h75.433a.91.91,0,0,0,0-1.82H58.235a.91.91,0,0,0,0,1.82" transform="translate(-23.019 -138.185)" fill="#3a4451"/>
        <path id="Trazado_731693" data-name="Trazado 731693" d="M62.226,385.014h-5.7a1.61,1.61,0,1,1,0-3.221h5.7a1.61,1.61,0,0,1,0,3.221" transform="translate(-22.05 -153.307)" fill="#525f72"/>
        <path id="Trazado_731694" data-name="Trazado 731694" d="M181.991,385.014h-5.7a1.61,1.61,0,1,1,0-3.221h5.7a1.61,1.61,0,1,1,0,3.221" transform="translate(-70.141 -153.307)" fill="#525f72"/>
        <path id="Trazado_731695" data-name="Trazado 731695" d="M240.968,351.553l-12.283-21.046-.071-15.1-11.1.052.068,14.507-12.425,21.756a4.664,4.664,0,0,0,4.072,6.977l27.733-.13a4.664,4.664,0,0,0,4.007-7.015" transform="translate(-82.13 -126.65)" fill="#dff5ff"/>
        <g id="Grupo_966585" data-name="Grupo 966585" transform="translate(124.893 189.291)" opacity="0.43">
          <g id="Grupo_966584" data-name="Grupo 966584">
            <g id="Grupo_966583" data-name="Grupo 966583" clip-path="url(#clip-path-34)">
              <path id="Trazado_731696" data-name="Trazado 731696" d="M240.552,351.039,228.594,331l-.069-14.7-7.466.035.068,14.492-11.892,20.36a3.989,3.989,0,0,0,3.56,5.966l24.252-.114a3.989,3.989,0,0,0,3.5-6" transform="translate(-208.693 -316.299)" fill="#fff"/>
            </g>
          </g>
        </g>
        <path id="Trazado_731697" data-name="Trazado 731697" d="M230.972,356.659a3.071,3.071,0,0,1,3.739,1.221l1.36,2.177,2.851,4.992a4.053,4.053,0,0,1-3.539,6.064l-16.152-.076a4.053,4.053,0,0,1-3.482-6.1l3.447-5.948c1.382-2.367,4.689-2.665,7.252-1.689,1.259.479,2.832.024,4.524-.645" transform="translate(-86.409 -143.128)" fill="#aeade7"/>
        <path id="Trazado_731698" data-name="Trazado 731698" d="M236.525,356.055A1.056,1.056,0,1,1,235.469,355a1.056,1.056,0,0,1,1.056,1.056" transform="translate(-94.128 -142.548)" fill="#aeade7"/>
        <path id="Trazado_731699" data-name="Trazado 731699" d="M230.761,352.79a.792.792,0,1,1-.792-.792.793.793,0,0,1,.792.792" transform="translate(-92.025 -141.343)" fill="#aeade7"/>
        <path id="Trazado_731700" data-name="Trazado 731700" d="M237.879,349.379a.792.792,0,1,1-.792-.792.792.792,0,0,1,.792.792" transform="translate(-94.883 -139.974)" fill="#aeade7"/>
        <path id="Trazado_731701" data-name="Trazado 731701" d="M235.769,313.894l-9.457.044a1.8,1.8,0,1,1-.017-3.57l9.457-.044a1.8,1.8,0,1,1,.017,3.57" transform="translate(-90.041 -124.609)" fill="#c5e4ef"/>
        <g id="Grupo_966588" data-name="Grupo 966588" transform="translate(135.375 218.77)" opacity="0.43">
          <g id="Grupo_966587" data-name="Grupo 966587">
            <g id="Grupo_966586" data-name="Grupo 966586" clip-path="url(#clip-path-35)">
              <path id="Trazado_731702" data-name="Trazado 731702" d="M228.582,366.746a1.188,1.188,0,1,1-1.188-1.188,1.188,1.188,0,0,1,1.188,1.188" transform="translate(-226.207 -365.558)" fill="#fff"/>
            </g>
          </g>
        </g>
        <g id="Grupo_966591" data-name="Grupo 966591" transform="translate(143.506 216.657)" opacity="0.43">
          <g id="Grupo_966590" data-name="Grupo 966590">
            <g id="Grupo_966589" data-name="Grupo 966589" clip-path="url(#clip-path-36)">
              <path id="Trazado_731703" data-name="Trazado 731703" d="M241.115,362.688a.66.66,0,1,1-.66-.66.66.66,0,0,1,.66.66" transform="translate(-239.795 -362.028)" fill="#fff"/>
            </g>
          </g>
        </g>
        <g id="Grupo_966594" data-name="Grupo 966594" transform="translate(143.454 221.938)" opacity="0.43">
          <g id="Grupo_966593" data-name="Grupo 966593">
            <g id="Grupo_966592" data-name="Grupo 966592" clip-path="url(#clip-path-36)">
              <path id="Trazado_731704" data-name="Trazado 731704" d="M241.027,371.512a.66.66,0,1,1-.66-.66.66.66,0,0,1,.66.66" transform="translate(-239.707 -370.852)" fill="#fff"/>
            </g>
          </g>
        </g>
        <path id="Trazado_731705" data-name="Trazado 731705" d="M321.188,271.734l-16.176,48.915a15.188,15.188,0,0,0,14.55,20.189l21.745-.3-15.155-64.193Z" transform="translate(-122.131 -109.114)" fill="#eff7fe"/>
        <path id="Trazado_731706" data-name="Trazado 731706" d="M459.137,79.194a10.4,10.4,0,0,0-12.8-7.069,6.613,6.613,0,0,0-7.921-3.311,6.69,6.69,0,0,0-3.859,3.32c-.525-.056-1.051-.095-1.579-.106L417.795,71.7c-9.49-.207-17.356,7.068-17.571,16.25l-.168,7.214a5.925,5.925,0,0,0-2.519,4.742,5.827,5.827,0,0,0,5.608,6.026,5.676,5.676,0,0,0,4.717-2.36l1,.022c.2,0,.4.021.593.042,4.945-3.843,8.456-11.947,8.456-11.947.646,2.476,4.082,3.857,8.57,4.573a7.387,7.387,0,0,0,9.351,1.035c.177-.116.344-.239.507-.367.367,0,.731,0,1.1-.007a9.3,9.3,0,0,0,18.191-2.827,9.837,9.837,0,0,0-.375-2.917,10.887,10.887,0,0,0,3.889-11.98" transform="translate(-159.629 -27.502)" fill="#390028"/>
        <path id="Trazado_731707" data-name="Trazado 731707" d="M416.679,101.822s-.071,7.549-4.856,11.392c-.189-.021-.38-.038-.573-.042l-3.177-.072-2.153-.048-2.787-.063c-.2,0-.392,0-.585.016a6.552,6.552,0,0,0-6.115,6.388l-.045,1.983a6.554,6.554,0,0,0,6.4,6.7l2.74.062-.832,36.876a11.5,11.5,0,0,0,11.238,11.757l6.689.151a11.5,11.5,0,0,0,11.756-11.237l.227-10.057a19,19,0,0,0,13.213-17.665l.052-2.3h0l.44-19.489.229-10.128c-9.2.782-30.33,1.854-31.865-4.225" transform="translate(-159.167 -40.886)" fill="#fdbea6"/>
        <path id="Trazado_731708" data-name="Trazado 731708" d="M452.452,141.363a1.233,1.233,0,1,1-1.185-1.279,1.234,1.234,0,0,1,1.185,1.279" transform="translate(-180.69 -56.249)" fill="#1c191a"/>
        <path id="Trazado_731709" data-name="Trazado 731709" d="M477.211,144.312a1.233,1.233,0,1,1-1.185-1.279,1.234,1.234,0,0,1,1.185,1.279" transform="translate(-190.632 -57.434)" fill="#1c191a"/>
        <path id="Trazado_731710" data-name="Trazado 731710" d="M459.705,174.3a.3.3,0,0,1-.213-.509,3.684,3.684,0,0,1,4.05-.731.3.3,0,1,1-.261.539,3.07,3.07,0,0,0-3.363.612.3.3,0,0,1-.212.089" transform="translate(-184.472 -69.353)" fill="#ff8e77"/>
        <path id="Trazado_731711" data-name="Trazado 731711" d="M451.352,124.624a5.3,5.3,0,0,1-2.1.641c-.772.127-1.545.275-2.211.426s-1.429.351-2.181.57a5.262,5.262,0,0,1-2.17.328c-.628-.113-1.019-.754-.534-1.762a6.065,6.065,0,0,1,4.121-2.764,5.886,5.886,0,0,1,4.855.729c.845.707.749,1.458.224,1.832" transform="translate(-177.457 -48.936)" fill="#390028"/>
        <path id="Trazado_731712" data-name="Trazado 731712" d="M404.687,133.442a.3.3,0,0,1-.118-.575l2.269-.973-1.677-3.774a.3.3,0,0,1,.547-.243l1.924,4.329-2.827,1.212a.3.3,0,0,1-.118.024" transform="translate(-162.38 -51.277)" fill="#ff8e77"/>
        <path id="Trazado_731713" data-name="Trazado 731713" d="M460.173,144.871q-.242,0-.489-.023a12.559,12.559,0,0,1-2.354-.476.3.3,0,0,1,.169-.574,12.012,12.012,0,0,0,2.241.455,3.533,3.533,0,0,0,3.032-1.031,2.06,2.06,0,0,0,.473-1.868L461.254,133a.3.3,0,1,1,.582-.138l1.993,8.356a2.643,2.643,0,0,1-.6,2.4,4,4,0,0,1-3.051,1.257" transform="translate(-183.553 -53.256)" fill="#ff8e77"/>
        <path id="Trazado_731714" data-name="Trazado 731714" d="M450.945,158.746a6.264,6.264,0,0,1-2.217-.393,6.942,6.942,0,0,1-3.688-3.485.3.3,0,0,1,.551-.235,6.438,6.438,0,0,0,3.354,3.162,7.444,7.444,0,0,0,5.906-.665.3.3,0,0,1,.261.539,9.642,9.642,0,0,1-4.167,1.077" transform="translate(-178.694 -62.02)" fill="#ff8e77"/>
        <path id="Trazado_731715" data-name="Trazado 731715" d="M452.137,144.946a.3.3,0,0,1-.206-.082c-1.333-1.26-2.373-.408-2.417-.371a.3.3,0,0,1-.391-.452,2.347,2.347,0,0,1,3.22.389.3.3,0,0,1-.206.516" transform="translate(-180.302 -57.654)" fill="#ff8e77"/>
        <path id="Trazado_731716" data-name="Trazado 731716" d="M477.186,147.7a.3.3,0,0,1-.206-.082c-1.333-1.26-2.372-.408-2.416-.371a.3.3,0,0,1-.391-.452,2.344,2.344,0,0,1,3.219.389.3.3,0,0,1-.206.516" transform="translate(-190.361 -58.761)" fill="#ff8e77"/>
        <path id="Trazado_731717" data-name="Trazado 731717" d="M447.46,141.435h-.005a6.763,6.763,0,0,1-6.749-6.76h0a6.754,6.754,0,0,1,6.755-6.749h.005a6.755,6.755,0,0,1-.005,13.51m0-12.911a6.156,6.156,0,0,0-.005,12.313h.005a6.156,6.156,0,0,0,.005-12.313Z" transform="translate(-176.963 -51.368)" fill="#fff"/>
        <path id="Trazado_731718" data-name="Trazado 731718" d="M475.166,144.964h-.005a6.754,6.754,0,0,1,.005-13.509h.005a6.754,6.754,0,0,1-.005,13.509m0-12.91a6.156,6.156,0,0,0-.005,12.312h.005a6.156,6.156,0,0,0,.005-12.312Z" transform="translate(-188.088 -52.785)" fill="#fff"/>
        <path id="Trazado_731719" data-name="Trazado 731719" d="M479.954,129.282a4.689,4.689,0,0,0-1.941-.165c-.692.032-1.389.048-1.995.041s-1.3-.04-2-.09a4.668,4.668,0,0,0-1.941.118c-.523.214-.743.842-.136,1.625a5.373,5.373,0,0,0,4.083,1.631,5.213,5.213,0,0,0,4.071-1.531c.6-.769.378-1.4-.146-1.629" transform="translate(-189.361 -51.81)" fill="#390028"/>
        <rect id="Rectángulo_341971" data-name="Rectángulo 341971" width="0.598" height="3.777" transform="matrix(0.098, -0.995, 0.995, 0.098, 276.954, 83.438)" fill="#fff"/>
        <path id="Trazado_731720" data-name="Trazado 731720" d="M432.452,128.035a.3.3,0,0,1-.139-.035l-15.422-8.159a.3.3,0,1,1,.279-.529l15.422,8.159a.3.3,0,0,1-.139.564" transform="translate(-167.337 -47.895)" fill="#fff"/>
        <g id="Grupo_966597" data-name="Grupo 966597" transform="translate(246.208 87.253)" opacity="0.46">
          <g id="Grupo_966596" data-name="Grupo 966596">
            <g id="Grupo_966595" data-name="Grupo 966595" clip-path="url(#clip-path-38)">
              <path id="Trazado_731721" data-name="Trazado 731721" d="M435.15,171.252l-3.6-.081a18.347,18.347,0,0,1-17.929-18.757l.148-6.567-2.153-.048-.2,8.865a19.01,19.01,0,0,0,12.963,18.452c0,.041-.008.08-.008.121,0,3.227,3.609,5.844,8.061,5.844,4.4,0,7.975-2.56,8.055-5.737a19.007,19.007,0,0,0,13.374-17.722l.052-2.3a18.348,18.348,0,0,1-18.757,17.928" transform="translate(-411.406 -145.798)" fill="#ff8e77"/>
            </g>
          </g>
        </g>
        <path id="Trazado_731722" data-name="Trazado 731722" d="M400.82,196.3l-9.059,12.39L371.483,196.3H356.335c-10.687,0-19.561,6.418-21.341,14.861l-14.308,48.14.057.009L312.385,287.5c-2.162,9.444,4.412,19.018,14.682,21.385a17.637,17.637,0,0,0,7.262.156l0,1.35,97.248-.211,1.753-85.422c0-15.715-13.562-28.454-32.506-28.454" transform="translate(-125.272 -78.825)" fill="#fff"/>
        <g id="Grupo_966600" data-name="Grupo 966600" transform="translate(226.727 121.939)" opacity="0.54">
          <g id="Grupo_966599" data-name="Grupo 966599">
            <g id="Grupo_966598" data-name="Grupo 966598" clip-path="url(#clip-path-39)">
              <path id="Trazado_731723" data-name="Trazado 731723" d="M408.02,272.848a.3.3,0,0,1-.266-.162L381.539,222a1.3,1.3,0,0,1-.128-1,1.31,1.31,0,0,1,.628-.806l5.4-3.022-8.054-4.9a1.1,1.1,0,0,1-.139-1.779l7.869-6.665a.3.3,0,1,1,.387.457l-7.87,6.664a.5.5,0,0,0,.064.811l8.93,5.434-6.293,3.524a.719.719,0,0,0-.269.992l26.223,50.7a.3.3,0,0,1-.129.4.3.3,0,0,1-.137.034" transform="translate(-378.855 -203.757)" fill="#74caf3"/>
            </g>
          </g>
        </g>
        <g id="Grupo_966603" data-name="Grupo 966603" transform="translate(271.687 121.619)" opacity="0.54">
          <g id="Grupo_966602" data-name="Grupo 966602">
            <g id="Grupo_966601" data-name="Grupo 966601" clip-path="url(#clip-path-40)">
              <path id="Trazado_731724" data-name="Trazado 731724" d="M454.28,273.45a.3.3,0,0,1-.273-.42l23.073-52.192a.728.728,0,0,0,.047-.571.715.715,0,0,0-.369-.417l-6.5-3.133,8.582-5.968a.5.5,0,0,0,.013-.815l-8.261-6.172a.3.3,0,0,1,.357-.479l8.262,6.172a1.1,1.1,0,0,1-.03,1.785l-7.74,5.384,5.572,2.688a1.318,1.318,0,0,1,.6,1.784l-23.066,52.177a.3.3,0,0,1-.273.178" transform="translate(-453.981 -203.222)" fill="#74caf3"/>
            </g>
          </g>
        </g>
        <path id="Trazado_731725" data-name="Trazado 731725" d="M496.9,281.956H480.4a.706.706,0,0,1-.7-.7V278.2a.705.705,0,0,1,.7-.7h16.5a.7.7,0,0,1,.7.7v3.051a.705.705,0,0,1-.7.7M480.4,278.1a.106.106,0,0,0-.106.105v3.051a.106.106,0,0,0,.106.106h16.5a.106.106,0,0,0,.106-.106V278.2a.106.106,0,0,0-.106-.105Z" transform="translate(-192.621 -111.428)" fill="#74caf3"/>
        <path id="Trazado_731726" data-name="Trazado 731726" d="M404.515,196.2l-10.28-.007,29.782,89.944,20.392-89.108-10.641-.977-8.977,12.5Z" transform="translate(-158.304 -78.726)" fill="#74caf3"/>
        <path id="Trazado_731727" data-name="Trazado 731727" d="M429.566,234l-4.506,33.373,11.405,35.344,7.745-35.344-4.788-33.021Z" transform="translate(-170.681 -93.961)" fill="#9f9fdd"/>
        <path id="Trazado_731728" data-name="Trazado 731728" d="M430.467,214.006l-2.241,9.691a1.918,1.918,0,0,0,.444,1.716l6.156,6.829a1.918,1.918,0,0,0,2.953-.126l5.511-7.274a1.913,1.913,0,0,0,.354-1.522l-1.761-9.1a1.918,1.918,0,0,0-1.844-1.553l-7.666-.15a1.917,1.917,0,0,0-1.906,1.485" transform="translate(-171.932 -85.337)" fill="#8f8fcc"/>
        <path id="Trazado_731729" data-name="Trazado 731729" d="M430.467,210.829l-2.241,9.691a1.918,1.918,0,0,0,.444,1.716l6.156,6.829a1.918,1.918,0,0,0,2.953-.126l5.511-7.274a1.913,1.913,0,0,0,.354-1.522l-1.761-9.1a1.918,1.918,0,0,0-1.844-1.553l-7.666-.15a1.917,1.917,0,0,0-1.906,1.485" transform="translate(-171.932 -84.061)" fill="#9f9fdd"/>
        <path id="Trazado_731730" data-name="Trazado 731730" d="M412.406,220.544a.869.869,0,0,1-.171-.017.838.838,0,0,1-.545-.39l-10.265-17.244a.3.3,0,1,1,.515-.306L412.2,219.831a.236.236,0,0,0,.154.11.228.228,0,0,0,.185-.038l4.6-3.256a.3.3,0,0,1,.346.489l-4.6,3.256a.839.839,0,0,1-.484.153" transform="translate(-161.174 -81.289)" fill="#fff"/>
        <path id="Trazado_731731" data-name="Trazado 731731" d="M458.306,219.251a.8.8,0,0,1-.532-.2l-4.408-3.94a.3.3,0,1,1,.4-.446l4.408,3.94a.2.2,0,0,0,.323-.083l5.455-15.351a.3.3,0,1,1,.563.2l-5.454,15.351a.8.8,0,0,1-.555.507.808.808,0,0,1-.2.025" transform="translate(-182.007 -81.501)" fill="#fff"/>
        <path id="Trazado_731732" data-name="Trazado 731732" d="M532.385,264.078,510.89,189.5l-18.873,3.467,4.038,62.556c1.189,7.752,11.429,15.852,19.1,14.209l10.1-2.164" transform="translate(-197.567 -76.093)" fill="#eff7fe"/>
        <path id="Trazado_731733" data-name="Trazado 731733" d="M534.249,263.019l-21.495-74.578-19.778,3.451,7.715,65.519a13.63,13.63,0,0,0,16.327,11.262l10.1-2.164" transform="translate(-197.952 -75.668)" fill="#fff"/>
        <g id="Grupo_966606" data-name="Grupo 966606" transform="translate(278.599 93.759)" opacity="0.46">
          <g id="Grupo_966605" data-name="Grupo 966605">
            <g id="Grupo_966604" data-name="Grupo 966604" clip-path="url(#clip-path-41)">
              <path id="Trazado_731734" data-name="Trazado 731734" d="M478.441,156.778a18.107,18.107,0,0,0-11.871,2.807,3.218,3.218,0,0,0-.64.482c-1.15,1.765.339,4.787,2.439,4.63.6-.045,5.658-3.045,5.658-3.045a10.767,10.767,0,0,0-4.98,3.546,4.978,4.978,0,0,0,.247,5.762l.471.621.15-.269a8.1,8.1,0,0,1,4.2-3.628l2.046-.777s-7.058,2.671-6.294,6.307,2.3,3.069,2.3,3.069,2.485-3.582,6.122-3.412c0,0-9.713,2.953-6.646,8.014,2.447,4.037,9.46,3.235,12.2,2.745a1.266,1.266,0,0,0,1.038-1.336,2.014,2.014,0,0,0-1.12-1.666l-3.433-1.689,9.929,2.131a8.3,8.3,0,0,0,8.683-3.571l1.74-2.661-2.632-6.612a17.4,17.4,0,0,0-14.277-10.865Z" transform="translate(-465.531 -156.668)" fill="#ff8e77"/>
            </g>
          </g>
        </g>
        <path id="Trazado_731735" data-name="Trazado 731735" d="M480.206,158.19A18.106,18.106,0,0,0,468.335,161a3.216,3.216,0,0,0-.64.482c-1.15,1.765.339,4.787,2.439,4.63.6-.045,5.658-3.045,5.658-3.045a10.768,10.768,0,0,0-4.98,3.546,4.978,4.978,0,0,0,.247,5.762l.471.621.15-.269a8.1,8.1,0,0,1,4.2-3.628l2.046-.777s-7.058,2.672-6.295,6.307,2.3,3.069,2.3,3.069,2.485-3.582,6.122-3.412c0,0-9.713,2.953-6.646,8.015,2.446,4.037,9.46,3.235,12.2,2.745a1.266,1.266,0,0,0,1.038-1.336,2.013,2.013,0,0,0-1.12-1.665l-3.433-1.689,9.929,2.13a8.294,8.294,0,0,0,8.683-3.571l1.74-2.661-2.632-6.612a17.4,17.4,0,0,0-14.277-10.865Z" transform="translate(-187.641 -63.476)" fill="#fdbea6"/>
        <path id="Trazado_731736" data-name="Trazado 731736" d="M486.166,185.19a6.51,6.51,0,0,0-2.241,0,8.319,8.319,0,0,0-2.167.677,9.238,9.238,0,0,0-.99.564c-.157.107-.323.2-.473.32l-.447.357a4.075,4.075,0,0,0-.429.378l-.415.4c-.263.278-.509.573-.764.858l-.023.026a.348.348,0,1,1-.518-.464l0,0c.275-.3.539-.6.822-.892l.447-.412a4.5,4.5,0,0,1,.463-.394l.483-.371c.163-.121.341-.221.511-.333a9.968,9.968,0,0,1,1.071-.585,8.9,8.9,0,0,1,2.34-.687,6.986,6.986,0,0,1,2.459.048.266.266,0,0,1-.105.521Z" transform="translate(-191.782 -74.101)" fill="#ff8970"/>
        <path id="Trazado_731737" data-name="Trazado 731737" d="M481.455,175.022a6.552,6.552,0,0,0-2.2.533,8.308,8.308,0,0,0-1.958,1.172,9.284,9.284,0,0,0-.833.783c-.128.142-.266.274-.386.423l-.352.452a4.026,4.026,0,0,0-.329.469l-.311.482c-.191.332-.36.677-.542,1.014l-.016.031a.348.348,0,1,1-.613-.33l0-.008c.2-.351.391-.708.6-1.051l.344-.5a4.472,4.472,0,0,1,.363-.487l.388-.468c.132-.154.283-.291.424-.437a9.971,9.971,0,0,1,.912-.806,8.83,8.83,0,0,1,2.12-1.184,6.926,6.926,0,0,1,2.387-.5.205.205,0,0,1,.013.41Z" transform="translate(-190.283 -70.114)" fill="#ff8970"/>
        <path id="Trazado_731738" data-name="Trazado 731738" d="M479.306,166.134a6.562,6.562,0,0,0-2.233.365,8.342,8.342,0,0,0-2.04,1.022,9.322,9.322,0,0,0-.89.718c-.138.132-.286.253-.417.393l-.385.424a4.054,4.054,0,0,0-.363.443l-.346.457c-.215.317-.411.648-.617.97l-.019.029a.348.348,0,1,1-.585-.375l0-.008c.228-.335.444-.677.682-1l.381-.474a4.6,4.6,0,0,1,.4-.458l.422-.437c.143-.144.3-.269.455-.4a9.9,9.9,0,0,1,.971-.734,8.81,8.81,0,0,1,2.2-1.022,6.951,6.951,0,0,1,2.417-.315.205.205,0,0,1-.018.41Z" transform="translate(-189.271 -66.542)" fill="#ff8970"/>
        <path id="Trazado_731739" data-name="Trazado 731739" d="M428.008,343.2l10.593-1.873A5.725,5.725,0,0,1,443.731,343l7.812,8.147a3.98,3.98,0,0,1-.27,5.766l-1.791,1.548-3.325-6.679,4.745,9.53a1.745,1.745,0,0,1-1.318,2.506,3.071,3.071,0,0,1-2.789-1.076l-7.141-8.582,6.787,10.763a1.035,1.035,0,0,1-1.08,1.567,15.118,15.118,0,0,1-8.671-5.2l-1.918-2.327a17.084,17.084,0,0,1-15.381,5s-10.851-13.085,8.619-20.76" transform="translate(-167.193 -137.022)" fill="#fdbea6"/>
        <path id="Trazado_731740" data-name="Trazado 731740" d="M469.538,364.224a.46.46,0,0,0,.028-.489l-3.733-6.8a.461.461,0,0,0-.808.444l3.733,6.8a.461.461,0,0,0,.626.182.455.455,0,0,0,.154-.137" transform="translate(-186.706 -143.231)" fill="#ff8e77"/>
        <path id="Trazado_731741" data-name="Trazado 731741" d="M456.774,362.646a.461.461,0,0,0-.653-.636s-.75.563-1.578,1.208a.461.461,0,1,0,.567.727c.819-.638,1.563-1.2,1.565-1.2a.471.471,0,0,0,.1-.1" transform="translate(-182.448 -145.326)" fill="#ff8e77"/>
        <path id="Trazado_731742" data-name="Trazado 731742" d="M465.553,356.111a.461.461,0,0,0-.653-.636s-.75.563-1.577,1.206a.461.461,0,0,0,.566.727c.819-.637,1.563-1.2,1.565-1.2a.453.453,0,0,0,.1-.1" transform="translate(-185.974 -142.703)" fill="#ff8e77"/>
        <path id="Trazado_731743" data-name="Trazado 731743" d="M447.432,370.111a.462.462,0,0,0-.026-.567,6.682,6.682,0,0,1-.854-1.437.461.461,0,1,0-.848.361,7.563,7.563,0,0,0,1,1.677.461.461,0,0,0,.65.05.5.5,0,0,0,.076-.083" transform="translate(-178.956 -147.699)" fill="#ff8e77"/>
        <g id="Grupo_966609" data-name="Grupo 966609" transform="translate(213.026 194.985)" opacity="0.32">
          <g id="Grupo_966608" data-name="Grupo 966608">
            <g id="Grupo_966607" data-name="Grupo 966607" clip-path="url(#clip-path-42)">
              <path id="Trazado_731744" data-name="Trazado 731744" d="M370.317,325.815l-14.356,4.493,12.815,1.137" transform="translate(-355.96 -325.815)" fill="#eff7fe"/>
            </g>
          </g>
        </g>
        <path id="Trazado_731745" data-name="Trazado 731745" d="M387.269,274.234l-4.083,32.528,33.865,8.66-39.991-4.788Z" transform="translate(-151.407 -110.118)" fill="#eff7fe"/>
        <path id="Trazado_731746" data-name="Trazado 731746" d="M534.053,280.587H470.146a5.076,5.076,0,0,0-4.9,3.7l-14.722,53.016H407.709a.969.969,0,0,0-.812,1.507l3.381,5.038H521.727l17.225-56.713a5.09,5.09,0,0,0-4.9-6.552" transform="translate(-163.322 -112.668)" fill="#3a4451"/>
        <path id="Trazado_731747" data-name="Trazado 731747" d="M559.066,344.071H486.048l16.539-59.561a5.075,5.075,0,0,1,4.9-3.7h63.907a5.09,5.09,0,0,1,4.9,6.552Z" transform="translate(-195.17 -112.756)" fill="#525f72"/>
        <path id="Trazado_731748" data-name="Trazado 731748" d="M558.236,327.753A5.27,5.27,0,0,1,563.518,333v1.01a5.27,5.27,0,0,1-5.281,5.247h-1.016a5.27,5.27,0,0,1-5.282-5.247V333a5.27,5.27,0,0,1,5.282-5.247Zm0-1.339h-1.016a6.627,6.627,0,0,0-6.63,6.585v1.01a6.627,6.627,0,0,0,6.63,6.585h1.016a6.627,6.627,0,0,0,6.629-6.585V333a6.627,6.627,0,0,0-6.629-6.585" transform="translate(-221.087 -131.07)" fill="#fff"/>
        <g id="Grupo_966612" data-name="Grupo 966612" transform="translate(333.593 199.41)" opacity="0.18">
          <g id="Grupo_966611" data-name="Grupo 966611">
            <g id="Grupo_966610" data-name="Grupo 966610" clip-path="url(#clip-path-43)">
              <path id="Trazado_731749" data-name="Trazado 731749" d="M560.86,333.81a2.367,2.367,0,0,1,2.372,2.357v.453a2.367,2.367,0,0,1-2.372,2.357H560.4a2.367,2.367,0,0,1-2.372-2.357v-.453a2.367,2.367,0,0,1,2.372-2.357Zm0-.6H560.4a2.976,2.976,0,0,0-2.977,2.958v.453a2.976,2.976,0,0,0,2.977,2.958h.457a2.977,2.977,0,0,0,2.978-2.958v-.453a2.977,2.977,0,0,0-2.978-2.958" transform="translate(-557.425 -333.209)" fill="#fff"/>
            </g>
          </g>
        </g>
        <path id="Trazado_731750" data-name="Trazado 731750" d="M143.3,114.268a3.679,3.679,0,1,1,3.678-3.679,3.682,3.682,0,0,1-3.678,3.679m0-6.759a3.08,3.08,0,1,0,3.08,3.08,3.084,3.084,0,0,0-3.08-3.08" transform="translate(-56.063 -42.93)" fill="#fff"/>
        <path id="Trazado_731751" data-name="Trazado 731751" d="M100.214,97.141a.3.3,0,0,1-.212-.087l-23.78-23.78h-43.6a.3.3,0,0,1,0-.6H76.47l23.956,23.955a.3.3,0,0,1-.212.51" transform="translate(-12.98 -29.183)" fill="#fff"/>
        <path id="Trazado_731752" data-name="Trazado 731752" d="M52.228,83.744H33.944a.3.3,0,1,1,0-.6H52.228a.3.3,0,1,1,0,.6" transform="translate(-13.51 -33.387)" fill="#fff"/>
        <path id="Trazado_731753" data-name="Trazado 731753" d="M92.591,83.744H74.307a.3.3,0,1,1,0-.6H92.591a.3.3,0,0,1,0,.6" transform="translate(-29.718 -33.387)" fill="#fff"/>
        <path id="Trazado_731754" data-name="Trazado 731754" d="M52.228,105.707H33.944a.3.3,0,1,1,0-.6H52.228a.3.3,0,1,1,0,.6" transform="translate(-13.51 -42.206)" fill="#fff"/>
        <path id="Trazado_731755" data-name="Trazado 731755" d="M92.591,105.707H74.307a.3.3,0,0,1,0-.6H92.591a.3.3,0,0,1,0,.6" transform="translate(-29.718 -42.206)" fill="#fff"/>
        <path id="Trazado_731756" data-name="Trazado 731756" d="M62.949,95.193h-29a.3.3,0,1,1,0-.6h29a.3.3,0,1,1,0,.6" transform="translate(-13.51 -37.984)" fill="#fff"/>
        <path id="Trazado_731757" data-name="Trazado 731757" d="M98.084,95.193h-10.1a.3.3,0,0,1,0-.6h10.1a.3.3,0,0,1,0,.6" transform="translate(-35.21 -37.984)" fill="#fff"/>
        <path id="Trazado_731758" data-name="Trazado 731758" d="M44.34,117.155h-10.1a.3.3,0,1,1,0-.6h10.1a.3.3,0,1,1,0,.6" transform="translate(-13.629 -46.803)" fill="#fff"/>
        <path id="Trazado_731759" data-name="Trazado 731759" d="M119.44,300.922a3.015,3.015,0,1,1,3.015-3.015,3.018,3.018,0,0,1-3.015,3.015m0-5.431a2.416,2.416,0,1,0,2.417,2.416,2.419,2.419,0,0,0-2.417-2.416" transform="translate(-46.75 -118.413)" fill="#fff"/>
        <path id="Trazado_731760" data-name="Trazado 731760" d="M84.819,285.034a.3.3,0,0,1-.227-.1L65.5,262.686h-35a.3.3,0,1,1,0-.6H65.777l.09.1,19.18,22.347a.3.3,0,0,1-.227.494" transform="translate(-12.129 -105.24)" fill="#fff"/>
        <path id="Trazado_731761" data-name="Trazado 731761" d="M46.259,271.1H31.567a.3.3,0,1,1,0-.6H46.259a.3.3,0,1,1,0,.6" transform="translate(-12.556 -108.619)" fill="#fff"/>
        <path id="Trazado_731762" data-name="Trazado 731762" d="M78.694,271.1H64a.3.3,0,1,1,0-.6H78.694a.3.3,0,1,1,0,.6" transform="translate(-25.579 -108.619)" fill="#fff"/>
        <path id="Trazado_731763" data-name="Trazado 731763" d="M46.259,288.749H31.567a.3.3,0,1,1,0-.6H46.259a.3.3,0,1,1,0,.6" transform="translate(-12.556 -115.706)" fill="#fff"/>
        <path id="Trazado_731764" data-name="Trazado 731764" d="M78.694,288.749H64a.3.3,0,0,1,0-.6H78.694a.3.3,0,1,1,0,.6" transform="translate(-25.579 -115.706)" fill="#fff"/>
        <path id="Trazado_731765" data-name="Trazado 731765" d="M54.874,280.3H31.567a.3.3,0,1,1,0-.6H54.874a.3.3,0,1,1,0,.6" transform="translate(-12.556 -112.313)" fill="#fff"/>
        <path id="Trazado_731766" data-name="Trazado 731766" d="M83.107,280.3H74.992a.3.3,0,1,1,0-.6h8.115a.3.3,0,0,1,0,.6" transform="translate(-29.993 -112.313)" fill="#fff"/>
        <path id="Trazado_731767" data-name="Trazado 731767" d="M39.921,297.949H31.806a.3.3,0,1,1,0-.6h8.114a.3.3,0,1,1,0,.6" transform="translate(-12.651 -119.4)" fill="#fff"/>
        <path id="Trazado_731768" data-name="Trazado 731768" d="M534.288,290.878a3.679,3.679,0,1,1,3.678-3.679,3.683,3.683,0,0,1-3.678,3.679m0-6.759a3.08,3.08,0,1,0,3.08,3.08,3.084,3.084,0,0,0-3.08-3.08" transform="translate(-213.064 -113.847)" fill="#eff7fe"/>
        <path id="Trazado_731769" data-name="Trazado 731769" d="M536.154,242.186a.333.333,0,0,1-.054,0,.3.3,0,0,1-.241-.348l12.717-70.779,55.407-.379h0a.3.3,0,0,1,0,.6l-54.91.376-12.63,70.29a.3.3,0,0,1-.294.246" transform="translate(-215.17 -68.534)" fill="#eff7fe"/>
        <path id="Trazado_731770" data-name="Trazado 731770" d="M627.909,183.487H609.625a.3.3,0,1,1,0-.6h18.284a.3.3,0,0,1,0,.6" transform="translate(-244.672 -73.438)" fill="#eff7fe"/>
        <path id="Trazado_731771" data-name="Trazado 731771" d="M587.546,183.487H569.262a.3.3,0,1,1,0-.6h18.283a.3.3,0,1,1,0,.6" transform="translate(-228.465 -73.438)" fill="#eff7fe"/>
        <path id="Trazado_731772" data-name="Trazado 731772" d="M627.909,203.112H609.625a.3.3,0,1,1,0-.6h18.284a.3.3,0,0,1,0,.6" transform="translate(-244.672 -81.319)" fill="#eff7fe"/>
        <path id="Trazado_731773" data-name="Trazado 731773" d="M587.546,203.112H569.262a.3.3,0,1,1,0-.6h18.283a.3.3,0,1,1,0,.6" transform="translate(-228.465 -81.319)" fill="#eff7fe"/>
        <path id="Trazado_731774" data-name="Trazado 731774" d="M620.716,193.717H591.71a.3.3,0,1,1,0-.6h29.005a.3.3,0,0,1,0,.6" transform="translate(-237.479 -77.546)" fill="#eff7fe"/>
        <path id="Trazado_731775" data-name="Trazado 731775" d="M579.361,193.717h-10.1a.3.3,0,1,1,0-.6h10.1a.3.3,0,1,1,0,.6" transform="translate(-228.465 -77.546)" fill="#eff7fe"/>
        <path id="Trazado_731776" data-name="Trazado 731776" d="M627.909,212.5H609.625a.3.3,0,1,1,0-.6h18.284a.3.3,0,0,1,0,.6" transform="translate(-244.672 -85.089)" fill="#eff7fe"/>
        <path id="Trazado_731777" data-name="Trazado 731777" d="M587.546,212.5H569.262a.3.3,0,1,1,0-.6h18.283a.3.3,0,1,1,0,.6" transform="translate(-228.465 -85.089)" fill="#eff7fe"/>
        <path id="Trazado_731778" data-name="Trazado 731778" d="M627.909,232.126H609.625a.3.3,0,1,1,0-.6h18.284a.3.3,0,0,1,0,.6" transform="translate(-244.672 -92.969)" fill="#eff7fe"/>
        <path id="Trazado_731779" data-name="Trazado 731779" d="M587.546,232.126H569.262a.3.3,0,1,1,0-.6h18.283a.3.3,0,1,1,0,.6" transform="translate(-228.465 -92.969)" fill="#eff7fe"/>
        <path id="Trazado_731780" data-name="Trazado 731780" d="M620.716,222.731H591.71a.3.3,0,1,1,0-.6h29.005a.3.3,0,0,1,0,.6" transform="translate(-237.479 -89.197)" fill="#eff7fe"/>
        <path id="Trazado_731781" data-name="Trazado 731781" d="M579.361,222.731h-10.1a.3.3,0,1,1,0-.6h10.1a.3.3,0,1,1,0,.6" transform="translate(-228.465 -89.197)" fill="#eff7fe"/>
        <path id="Trazado_731782" data-name="Trazado 731782" d="M633.1,242.355h-10.1a.3.3,0,0,1,0-.6h10.1a.3.3,0,1,1,0,.6" transform="translate(-250.045 -97.076)" fill="#eff7fe"/>
      </g>
    </g>
  </g>
</svg>
