<svg xmlns="http://www.w3.org/2000/svg" xmlns:xlink="http://www.w3.org/1999/xlink" width="505" height="300.746" viewBox="0 0 505 300.746">
  <defs>
    <clipPath id="clip-path">
      <rect id="Rectángulo_342077" data-name="Rectángulo 342077" width="503.965" height="300.746" fill="none"/>
    </clipPath>
  </defs>
  <g id="Grupo_966704" data-name="Grupo 966704" transform="translate(-915 -403)">
    <path id="Rectángulo_341364" data-name="Rectángulo 341364" d="M70,0H505a0,0,0,0,1,0,0V227.5a0,0,0,0,1,0,0H0a0,0,0,0,1,0,0V70A70,70,0,0,1,70,0Z" transform="translate(915 429.499)" fill="#badc61"/>
    <g id="Grupo_966703" data-name="Grupo 966703" transform="translate(916.035 403)">
      <g id="Grupo_966700" data-name="Grupo 966700">
        <g id="Grupo_966699" data-name="Grupo 966699" clip-path="url(#clip-path)">
          <path id="Trazado_732110" data-name="Trazado 732110" d="M502.577,184.345H473.109a1.37,1.37,0,0,1-1.387-1.353V157.409a1.372,1.372,0,0,0-1.388-1.354h-2.088a1.371,1.371,0,0,1-1.388-1.353v-4.982a1.371,1.371,0,0,0-1.388-1.353h-1.525a1.371,1.371,0,0,1-1.388-1.353V127.357A1.371,1.371,0,0,0,461.168,126H424.511a1.371,1.371,0,0,0-1.387,1.354v19.658a1.371,1.371,0,0,1-1.388,1.353h-7.021a1.371,1.371,0,0,0-1.388,1.353V154.7a1.37,1.37,0,0,1-1.387,1.353h-8.364a1.371,1.371,0,0,1-1.388-1.353V116.874a1.37,1.37,0,0,0-1.387-1.353h-17.58a1.371,1.371,0,0,1-1.388-1.353V81.443a1.371,1.371,0,0,0-1.387-1.354h-1.132a1.371,1.371,0,0,1-1.388-1.353V66.9a1.371,1.371,0,0,0-1.388-1.353H367.3a1.37,1.37,0,0,0-1.387,1.353V78.737a1.371,1.371,0,0,1-1.388,1.353H351.378a1.371,1.371,0,0,0-1.388,1.354v32.725a1.37,1.37,0,0,1-1.387,1.353H331.682a1.371,1.371,0,0,1-1.388-1.353V44.016a1.371,1.371,0,0,0-1.388-1.353H289.421a1.371,1.371,0,0,0-1.388,1.353v96.01a1.371,1.371,0,0,1-1.388,1.353H271.112a1.371,1.371,0,0,1-1.388-1.353V105.255a1.37,1.37,0,0,0-1.387-1.353H262a1.37,1.37,0,0,1-1.387-1.353V38.528a1.372,1.372,0,0,0-1.388-1.354h-1.551a1.371,1.371,0,0,1-1.388-1.353v-9.56a1.371,1.371,0,0,0-1.388-1.353h-1.714a1.37,1.37,0,0,1-1.387-1.353V14a1.371,1.371,0,0,0-1.388-1.353h-3.676a1.371,1.371,0,0,1-1.388-1.354V1.73A1.371,1.371,0,0,0,243.951.376h-8.157a1.372,1.372,0,0,0-1.388,1.354v9.56a1.371,1.371,0,0,1-1.387,1.354h-3.736A1.371,1.371,0,0,0,227.895,14v9.56a1.371,1.371,0,0,1-1.388,1.353h-2.446a1.371,1.371,0,0,0-1.388,1.353v9.56a1.371,1.371,0,0,1-1.388,1.353h-1.551a1.372,1.372,0,0,0-1.388,1.354V102.55a1.37,1.37,0,0,1-1.387,1.353h-6.341a1.37,1.37,0,0,1-1.387-1.353V81.494a1.371,1.371,0,0,0-1.388-1.354H150.123a1.371,1.371,0,0,0-1.387,1.354v38.963a1.371,1.371,0,0,1-1.388,1.353h-6.34a1.371,1.371,0,0,1-1.388-1.353V62.6a1.371,1.371,0,0,0-1.388-1.353h-2.87a1.371,1.371,0,0,1-1.387-1.354v-9.56a1.371,1.371,0,0,0-1.388-1.354H105.311a1.371,1.371,0,0,0-1.387,1.354V59.9a1.372,1.372,0,0,1-1.388,1.354h-3.79A1.371,1.371,0,0,0,97.357,62.6v57.854a1.371,1.371,0,0,1-1.388,1.353h-6.34a1.371,1.371,0,0,0-1.388,1.354v41.323a1.37,1.37,0,0,1-1.387,1.353H56.88a1.371,1.371,0,0,1-1.388-1.353V138.525a1.371,1.371,0,0,0-1.388-1.353H29.134a1.371,1.371,0,0,0-1.388,1.353v54.326a1.371,1.371,0,0,1-1.388,1.353H1.387A1.37,1.37,0,0,0,0,195.556v67.878a1.37,1.37,0,0,0,1.387,1.353H502.48a1.485,1.485,0,0,0,1.485-1.485V185.7a1.371,1.371,0,0,0-1.388-1.353" transform="translate(0 -0.099)" fill="#e6e8ea"/>
          <path id="Trazado_732111" data-name="Trazado 732111" d="M355.162,381.987c0-1.355-73.412-2.454-163.97-2.454s-163.97,1.1-163.97,2.454,73.412,2.454,163.97,2.454,163.97-1.1,163.97-2.454" transform="translate(-7.164 -99.883)" fill="#ccd4db"/>
          <path id="Trazado_732112" data-name="Trazado 732112" d="M590.786,403.546c0-1.488-16.989-2.694-37.947-2.694s-37.947,1.206-37.947,2.694,16.989,2.694,37.947,2.694,37.947-1.206,37.947-2.694" transform="translate(-135.506 -105.493)" fill="#ccd4db"/>
        </g>
      </g>
      <g id="Grupo_966702" data-name="Grupo 966702">
        <g id="Grupo_966701" data-name="Grupo 966701" clip-path="url(#clip-path)">
          <path id="Trazado_732113" data-name="Trazado 732113" d="M491.883,230.928a.9.9,0,0,0-.743.395l-1.715-.155a2.5,2.5,0,0,0-.348-.9l.715-.623a.7.7,0,0,0,.143.015.712.712,0,1,0-.713-.713c0,.015,0,.029,0,.043l-.728.634a2.519,2.519,0,0,0-.942-.463l-.027-1.832a.9.9,0,1,0-.866-.08l.027,1.844a2.517,2.517,0,0,0-.9.265l-.5-.571a.848.848,0,0,0,.015-.144.9.9,0,1,0-.564.83l.355.407a2.532,2.532,0,0,0-.528.851L483,230.59a.969.969,0,1,0,.021.87l1.391.125c0,.008,0,.016,0,.024a2.516,2.516,0,0,0,.348,1.276l-.475.414a.894.894,0,1,0,.591.839.88.88,0,0,0-.021-.189l.462-.4a2.518,2.518,0,0,0,1.452.583l.021,1.48a.9.9,0,1,0,.865-.013l-.023-1.556a2.532,2.532,0,0,0,.775-.373l.656.751a.7.7,0,0,0-.015.142.712.712,0,1,0,.712-.713c-.015,0-.029,0-.044,0l-.7-.8a2.508,2.508,0,0,0,.415-1.015l1.637.147a.9.9,0,1,0,.819-1.256" transform="translate(-126.632 -59.375)" fill="#c2da6a"/>
          <path id="Trazado_732114" data-name="Trazado 732114" d="M127.4,79.329a.9.9,0,0,0-.743.395l-1.715-.155a2.5,2.5,0,0,0-.348-.9l.715-.623a.7.7,0,0,0,.143.015.712.712,0,1,0-.713-.713c0,.015,0,.029,0,.043l-.728.634a2.52,2.52,0,0,0-.942-.463l-.027-1.832a.9.9,0,1,0-.866-.08l.027,1.844a2.517,2.517,0,0,0-.9.265l-.5-.571a.849.849,0,0,0,.015-.144.9.9,0,1,0-.564.83l.355.407a2.532,2.532,0,0,0-.528.851l-1.57-.141a.969.969,0,1,0,.021.87l1.391.125c0,.008,0,.016,0,.024a2.516,2.516,0,0,0,.348,1.276l-.475.414a.894.894,0,1,0,.591.839.881.881,0,0,0-.021-.189l.462-.4a2.518,2.518,0,0,0,1.452.583l.021,1.48a.9.9,0,1,0,.865-.013l-.023-1.556a2.532,2.532,0,0,0,.775-.373l.656.751a.7.7,0,0,0-.015.142.712.712,0,1,0,.713-.713c-.015,0-.029,0-.044,0l-.7-.8a2.517,2.517,0,0,0,.414-1.015l1.636.147a.9.9,0,1,0,.819-1.256" transform="translate(-30.71 -19.479)" fill="#c2da6a"/>
          <path id="Trazado_732115" data-name="Trazado 732115" d="M37.863,208.8a.9.9,0,0,0-.743.395l-1.715-.155a2.5,2.5,0,0,0-.348-.9l.715-.623a.7.7,0,0,0,.143.015.712.712,0,1,0-.713-.713c0,.015,0,.029,0,.043l-.728.634a2.52,2.52,0,0,0-.942-.463L33.51,205.2a.9.9,0,1,0-.866-.08l.027,1.844a2.517,2.517,0,0,0-.9.265l-.5-.571a.849.849,0,0,0,.015-.144.9.9,0,1,0-.564.83l.355.407a2.532,2.532,0,0,0-.528.851l-1.57-.141a.969.969,0,1,0,.021.87l1.391.125c0,.008,0,.016,0,.024a2.516,2.516,0,0,0,.348,1.276l-.475.414a.894.894,0,1,0,.591.839.881.881,0,0,0-.021-.189l.462-.4a2.518,2.518,0,0,0,1.452.583l.021,1.48a.9.9,0,1,0,.865-.013l-.023-1.556a2.533,2.533,0,0,0,.775-.373l.656.751a.7.7,0,0,0-.015.142.712.712,0,1,0,.713-.713c-.015,0-.029,0-.044,0l-.7-.8a2.508,2.508,0,0,0,.415-1.015l1.636.147a.9.9,0,1,0,.819-1.256" transform="translate(-7.146 -53.553)" fill="#c2da6a"/>
          <path id="Trazado_732116" data-name="Trazado 732116" d="M366.651,77.921a1.707,1.707,0,0,0-1.415.752l-3.268-.294a4.784,4.784,0,0,0-.662-1.718l1.362-1.187a1.385,1.385,0,0,0,.273.027,1.357,1.357,0,1,0-1.357-1.356c0,.028.007.054.008.082L360.2,75.435a4.8,4.8,0,0,0-1.8-.883l-.051-3.49a1.706,1.706,0,1,0-1.651-.153l.052,3.514a4.791,4.791,0,0,0-1.722.506l-.951-1.088a1.686,1.686,0,0,0,.028-.275,1.716,1.716,0,1,0-1.074,1.583l.676.774a4.812,4.812,0,0,0-1,1.622l-2.993-.27a1.845,1.845,0,1,0,.04,1.659l2.65.239c0,.015,0,.031,0,.046a4.788,4.788,0,0,0,.663,2.432l-.906.79a1.7,1.7,0,1,0-.581,3.305,1.7,1.7,0,0,0,1.667-2.067l.881-.768a4.79,4.79,0,0,0,2.768,1.111l.041,2.819a1.707,1.707,0,1,0,1.648-.024l-.043-2.966a4.817,4.817,0,0,0,1.476-.71l1.25,1.431a1.357,1.357,0,1,0,1.33-1.086c-.029,0-.055.007-.083.008l-1.334-1.527a4.791,4.791,0,0,0,.789-1.935l3.118.281a1.706,1.706,0,1,0,1.561-2.394" transform="translate(-91.123 -17.842)" fill="#c2da6a"/>
          <path id="Trazado_732117" data-name="Trazado 732117" d="M502.159,147.915a1.655,1.655,0,0,0-1.373.729l-3.169-.285a4.633,4.633,0,0,0-.643-1.667l1.321-1.151a1.291,1.291,0,0,0,.264.027,1.316,1.316,0,1,0-1.316-1.315c0,.027.006.052.008.079l-1.345,1.172a4.646,4.646,0,0,0-1.741-.855l-.049-3.385a1.655,1.655,0,1,0-1.6-.148l.049,3.408a4.653,4.653,0,0,0-1.67.491l-.922-1.055a1.674,1.674,0,0,0,.027-.267,1.662,1.662,0,1,0-1.042,1.535l.656.751a4.668,4.668,0,0,0-.975,1.572l-2.9-.262a1.79,1.79,0,1,0,.038,1.608l2.571.231c0,.015,0,.03,0,.046a4.646,4.646,0,0,0,.643,2.358l-.879.766a1.653,1.653,0,1,0-.563,3.206,1.651,1.651,0,0,0,1.617-2l.854-.744a4.655,4.655,0,0,0,2.684,1.077l.04,2.734a1.656,1.656,0,1,0,1.6-.023l-.042-2.877a4.654,4.654,0,0,0,1.432-.688l1.212,1.388a1.333,1.333,0,0,0-.027.262,1.316,1.316,0,1,0,1.316-1.316c-.028,0-.054.007-.081.009l-1.293-1.481a4.648,4.648,0,0,0,.766-1.876l3.024.272a1.655,1.655,0,1,0,1.513-2.322" transform="translate(-126.947 -36.343)" fill="#c2da6a"/>
          <path id="Trazado_732118" data-name="Trazado 732118" d="M650.328,125.32a1.149,1.149,0,0,0-.955.508l-2.206-.2a3.216,3.216,0,0,0-.447-1.16l.92-.8a.879.879,0,0,0,.183.019.916.916,0,1,0-.916-.916c0,.018,0,.036.005.055l-.936.816a3.235,3.235,0,0,0-1.212-.6l-.034-2.356a1.152,1.152,0,1,0-1.115-.1l.035,2.373a3.214,3.214,0,0,0-1.162.342l-.641-.735a1.192,1.192,0,0,0,.018-.186,1.158,1.158,0,1,0-.725,1.068l.457.523a3.241,3.241,0,0,0-.678,1.094l-2.02-.182a1.245,1.245,0,1,0,.027,1.12l1.788.161c0,.011,0,.021,0,.032a3.23,3.23,0,0,0,.448,1.641l-.612.533a1.132,1.132,0,0,0-.392-.073,1.155,1.155,0,1,0,1.126.909l.595-.519a3.234,3.234,0,0,0,1.868.75l.028,1.9a1.153,1.153,0,1,0,1.112-.015l-.029-2a3.238,3.238,0,0,0,1-.48l.844.967a.925.925,0,0,0-.018.182.916.916,0,1,0,.916-.916c-.019,0-.038,0-.057.006l-.9-1.031a3.234,3.234,0,0,0,.533-1.306l2.1.189a1.152,1.152,0,1,0,1.054-1.616" transform="translate(-167.524 -31.182)" fill="#c2da6a"/>
          <path id="Trazado_732119" data-name="Trazado 732119" d="M236.934,104.35a1.655,1.655,0,0,0-1.373.729l-3.169-.285a4.634,4.634,0,0,0-.643-1.667l1.321-1.151a1.291,1.291,0,0,0,.264.027,1.316,1.316,0,1,0-1.316-1.315c0,.027.006.052.008.079l-1.345,1.172a4.645,4.645,0,0,0-1.741-.855L228.89,97.7a1.655,1.655,0,1,0-1.6-.148l.049,3.409a4.637,4.637,0,0,0-1.67.491l-.922-1.055a1.679,1.679,0,0,0,.027-.267,1.662,1.662,0,1,0-1.042,1.535l.657.751a4.668,4.668,0,0,0-.975,1.572l-2.9-.262a1.79,1.79,0,1,0,.038,1.608l2.571.231c0,.015,0,.03,0,.046a4.646,4.646,0,0,0,.643,2.358l-.879.766a1.653,1.653,0,1,0-.563,3.206,1.651,1.651,0,0,0,1.617-2l.854-.744a4.655,4.655,0,0,0,2.684,1.077l.04,2.734a1.656,1.656,0,1,0,1.6-.023l-.042-2.877a4.654,4.654,0,0,0,1.432-.688l1.212,1.388a1.334,1.334,0,0,0-.027.262A1.316,1.316,0,1,0,233,109.748c-.028,0-.054.007-.081.009l-1.293-1.481a4.647,4.647,0,0,0,.766-1.876l3.024.272a1.655,1.655,0,1,0,1.513-2.322" transform="translate(-57.147 -24.878)" fill="#c2da6a"/>
          <path id="Trazado_732120" data-name="Trazado 732120" d="M634.5,200.53a.9.9,0,0,0-.743.395l-1.715-.155a2.506,2.506,0,0,0-.348-.9l.715-.623a.7.7,0,0,0,.143.015.712.712,0,1,0-.713-.713c0,.015,0,.029,0,.043l-.728.634a2.52,2.52,0,0,0-.942-.463l-.027-1.832a.9.9,0,1,0-.866-.08l.026,1.844a2.517,2.517,0,0,0-.9.265l-.5-.571a.848.848,0,0,0,.015-.144.9.9,0,1,0-.564.83l.355.407a2.533,2.533,0,0,0-.528.851l-1.57-.141a.969.969,0,1,0,.021.87l1.391.125c0,.008,0,.016,0,.024a2.517,2.517,0,0,0,.348,1.276l-.475.414a.894.894,0,1,0,.591.839.882.882,0,0,0-.021-.189l.462-.4a2.518,2.518,0,0,0,1.452.583l.021,1.48a.9.9,0,1,0,.865-.013l-.023-1.556a2.531,2.531,0,0,0,.775-.373l.656.751a.7.7,0,0,0-.015.142.712.712,0,1,0,.713-.713c-.015,0-.029,0-.044,0l-.7-.8a2.508,2.508,0,0,0,.415-1.015l1.637.147a.9.9,0,1,0,.819-1.256" transform="translate(-164.165 -51.376)" fill="#c2da6a"/>
          <path id="Trazado_732121" data-name="Trazado 732121" d="M451.379,91.66a3.948,3.948,0,1,1-3.948-3.948,3.948,3.948,0,0,1,3.948,3.948" transform="translate(-116.713 -23.083)" fill="#c1eae3"/>
          <path id="Trazado_732122" data-name="Trazado 732122" d="M621.025,39.734a3.948,3.948,0,1,1-3.948-3.948,3.948,3.948,0,0,1,3.948,3.948" transform="translate(-161.359 -9.418)" fill="#c1eae3"/>
          <path id="Trazado_732123" data-name="Trazado 732123" d="M244.044,38.176a3.948,3.948,0,1,1-3.948-3.948,3.948,3.948,0,0,1,3.948,3.948" transform="translate(-62.148 -9.008)" fill="#c1eae3"/>
          <path id="Trazado_732124" data-name="Trazado 732124" d="M94.391,45.092a3.948,3.948,0,1,1-3.948-3.948,3.948,3.948,0,0,1,3.948,3.948" transform="translate(-22.763 -10.828)" fill="#c1eae3"/>
          <path id="Trazado_732125" data-name="Trazado 732125" d="M647.488,285.327a3.948,3.948,0,1,1-3.948-3.948,3.948,3.948,0,0,1,3.948,3.948" transform="translate(-168.323 -74.051)" fill="#c1eae3"/>
          <path id="Trazado_732126" data-name="Trazado 732126" d="M35.925,114.2a3.948,3.948,0,1,1-3.948-3.948,3.948,3.948,0,0,1,3.948,3.948" transform="translate(-7.376 -29.016)" fill="#c1eae3"/>
          <line id="Línea_374" data-name="Línea 374" y1="1.659" x2="3.289" transform="translate(61.952 107.27)" fill="none" stroke="#d9e2e8" stroke-linecap="round" stroke-linejoin="round" stroke-width="3"/>
          <path id="Trazado_732127" data-name="Trazado 732127" d="M97.34,110.131l172.2-86.84L431.667,60.949" transform="translate(-25.617 -6.13)" fill="none" stroke="#d9e2e8" stroke-linecap="round" stroke-linejoin="round" stroke-width="3" stroke-dasharray="9.851 9.851"/>
          <line id="Línea_375" data-name="Línea 375" x2="3.588" y2="0.833" transform="translate(409.585 55.64)" fill="none" stroke="#d9e2e8" stroke-linecap="round" stroke-linejoin="round" stroke-width="3"/>
          <path id="Trazado_732128" data-name="Trazado 732128" d="M338.339,10.528c.013-.211.012-.34.011-.383v-.018C338.35,4.534,333.259,0,326.978,0s-11.372,4.534-11.372,10.126c0,0-.006.146.013.431a10.259,10.259,0,0,0,.22,1.615c1.273,6.125,5.606,12.861,8.478,16.821a3.357,3.357,0,0,0,5.324.021c6.081-8.258,7.92-13.984,8.474-16.827a9.1,9.1,0,0,0,.225-1.659" transform="translate(-83.059)" fill="#feb12e"/>
          <path id="Trazado_732129" data-name="Trazado 732129" d="M335.512,11.368a6.956,6.956,0,1,1-6.956-6.956,6.956,6.956,0,0,1,6.956,6.956" transform="translate(-84.636 -1.161)" fill="#fff"/>
          <path id="Trazado_732130" data-name="Trazado 732130" d="M577.671,68.636c.017-.28.016-.449.015-.508V68.1c0-7.4-6.74-13.4-15.053-13.4s-15.052,6-15.052,13.4c0,0-.008.193.016.57a13.575,13.575,0,0,0,.291,2.138c1.686,8.107,7.42,17.022,11.221,22.263a4.444,4.444,0,0,0,7.048.028c8.049-10.929,10.483-18.51,11.215-22.273a12.026,12.026,0,0,0,.3-2.2" transform="translate(-144.108 -14.396)" fill="#feb12e"/>
          <path id="Trazado_732131" data-name="Trazado 732131" d="M573.927,69.747a9.207,9.207,0,1,1-9.207-9.207,9.206,9.206,0,0,1,9.207,9.207" transform="translate(-146.196 -15.932)" fill="#fff"/>
          <path id="Trazado_732132" data-name="Trazado 732132" d="M82.659,145.631c.008-.14.008-.225.007-.254v-.012c0-3.71-3.378-6.718-7.544-6.718s-7.544,3.008-7.544,6.718c0,0,0,.1.008.286a6.767,6.767,0,0,0,.146,1.071c.845,4.063,3.719,8.531,5.624,11.158a2.226,2.226,0,0,0,3.532.014c4.034-5.478,5.254-9.277,5.621-11.162a6.045,6.045,0,0,0,.149-1.1" transform="translate(-17.785 -36.488)" fill="#feb12e"/>
          <path id="Trazado_732133" data-name="Trazado 732133" d="M80.783,146.187a4.614,4.614,0,1,1-4.614-4.614,4.614,4.614,0,0,1,4.614,4.614" transform="translate(-18.831 -37.258)" fill="#fff"/>
          <rect id="Rectángulo_342078" data-name="Rectángulo 342078" width="8.319" height="10.182" transform="translate(411.473 150.915)" fill="#feac97"/>
          <path id="Trazado_732134" data-name="Trazado 732134" d="M566.758,205.988l-8.319-.681v5.029s5.43.231,8.319-4.348" transform="translate(-146.966 -54.031)" fill="#f97373"/>
          <path id="Trazado_732135" data-name="Trazado 732135" d="M576.317,191.055c.032-.1,1.127-1.849,2.282-.606s1.56,7.2-3.134,6.69c0,0-.448-2.126.852-6.084" transform="translate(-151.427 -50.004)" fill="#feac97"/>
          <path id="Trazado_732136" data-name="Trazado 732136" d="M551.157,191.015c-.032-.1-1.127-1.849-2.282-.606s-1.56,7.2,3.134,6.69c0,0,.448-2.126-.852-6.084" transform="translate(-144.25 -49.994)" fill="#feac97"/>
          <path id="Trazado_732137" data-name="Trazado 732137" d="M560.737,171.182c-6.153.26-10.139,6.152-10.139,9.649a18.323,18.323,0,0,0,1.17,6.859c.693,2.339.3,2.513.693,4.2s1.083,2.9,3.336,4.506a10.824,10.824,0,0,0,3.165,1.5,6.223,6.223,0,0,0,3.547,0,10.837,10.837,0,0,0,3.166-1.5c2.253-1.6,2.946-2.816,3.336-4.506s0-1.863.693-4.2a18.324,18.324,0,0,0,1.17-6.859c0-3.5-3.986-9.389-10.139-9.649" transform="translate(-144.902 -45.05)" fill="#feac97"/>
          <path id="Trazado_732138" data-name="Trazado 732138" d="M576.937,193.824s.444-1.524,1.092-1.189.237,2.543-.6,2.759-.234-.228-.217-.928-.276-.643-.276-.643" transform="translate(-151.834 -50.684)" fill="#f97373"/>
          <path id="Trazado_732139" data-name="Trazado 732139" d="M551.263,193.452s-.444-1.524-1.092-1.188-.237,2.543.6,2.759.234-.228.217-.928.276-.643.276-.643" transform="translate(-144.706 -50.586)" fill="#f97373"/>
          <path id="Trazado_732140" data-name="Trazado 732140" d="M558.44,188.324a7.444,7.444,0,0,0-2.117.3c-1.013.325-1.331-.217-1.092-.875s2.016-.907,3.043-.581,1.129,1.091.166,1.152" transform="translate(-146.102 -49.221)" fill="#14313f"/>
          <path id="Trazado_732141" data-name="Trazado 732141" d="M559.842,191.744a3.651,3.651,0,0,0-2.381-1.237c-1.437-.08-2.143.342-2.5.213s-.281.562.586.668,2.376-.439,4.291.357" transform="translate(-145.999 -50.134)" fill="#14313f"/>
          <path id="Trazado_732142" data-name="Trazado 732142" d="M558.781,191.694a.773.773,0,1,1-.766-.878.828.828,0,0,1,.766.878" transform="translate(-146.652 -50.218)" fill="#14313f"/>
          <path id="Trazado_732143" data-name="Trazado 732143" d="M568.676,188.215a7.443,7.443,0,0,1,2.117.3c1.013.325,1.331-.217,1.092-.875s-2.016-.907-3.043-.581-1.129,1.091-.166,1.152" transform="translate(-149.484 -49.192)" fill="#14313f"/>
          <path id="Trazado_732144" data-name="Trazado 732144" d="M566.872,191.635a3.65,3.65,0,0,1,2.381-1.237c1.438-.08,2.143.342,2.5.213s.281.562-.587.668-2.375-.439-4.291.357" transform="translate(-149.185 -50.105)" fill="#14313f"/>
          <path id="Trazado_732145" data-name="Trazado 732145" d="M569.2,191.585a.773.773,0,1,0,.766-.878.828.828,0,0,0-.766.878" transform="translate(-149.798 -50.189)" fill="#14313f"/>
          <path id="Trazado_732146" data-name="Trazado 732146" d="M551.6,199.552a5.019,5.019,0,0,0,2.229,2.49.309.309,0,0,0,.214.037,5.915,5.915,0,0,1-1.248-2.454,4.1,4.1,0,0,1-1.194-.074" transform="translate(-145.167 -52.517)" fill="#14313f"/>
          <path id="Trazado_732147" data-name="Trazado 732147" d="M570.855,179.885c-.087-2.317-.458-5.97-1.992-6.6a62.894,62.894,0,0,0-7.723-2.973.488.488,0,0,0-.136-.069,5.352,5.352,0,0,0-.869,0,.5.5,0,0,0-.136.069,62.839,62.839,0,0,0-7.723,2.973c-1.6.654-1.888,5.391-2.016,7.548l-.311.071s.035,1.844.135,3.88a1.11,1.11,0,0,1,.763.184c.225.892.791,2.919,1.328,3.136.69.279.64-1.678.395-3.442s-.455-5.1,1.245-5.541c1.5-.389,3.957,1.087,6.755.872,2.8.215,5.257-1.261,6.755-.872,1.7.441,1.49,3.778,1.245,5.541s-.295,3.72.4,3.442c.509-.206,1.046-2.044,1.292-2.993a1.4,1.4,0,0,1,.62-.3c.223-2.523.369-4.911.369-4.911Z" transform="translate(-144.732 -44.797)" fill="#14313f"/>
          <path id="Trazado_732148" data-name="Trazado 732148" d="M574.892,199.683l0-.013a5.993,5.993,0,0,1-1.677,2.908,4.565,4.565,0,0,0,2.608-2.891,4.551,4.551,0,0,1-.928-.005" transform="translate(-150.854 -52.548)" fill="#14313f"/>
          <path id="Trazado_732149" data-name="Trazado 732149" d="M549.816,179.978c.046-.426-.755-10.022,8.9-12.668a7.175,7.175,0,0,1,3.915.029c3.279.959,9.414,3.831,8.621,11.788Z" transform="translate(-144.696 -43.964)" fill="#2c4351"/>
          <path id="Trazado_732150" data-name="Trazado 732150" d="M551.344,178.347a.58.58,0,0,1-.094-.008.552.552,0,0,1-.452-.637,13.563,13.563,0,0,1,3.476-6.817,10.961,10.961,0,0,1,6.312-2.853.553.553,0,0,1,.069,1.1,10.005,10.005,0,0,0-5.62,2.551,12.664,12.664,0,0,0-3.148,6.2.553.553,0,0,1-.544.46" transform="translate(-144.953 -44.221)" fill="#3a5c6d"/>
          <path id="Trazado_732151" data-name="Trazado 732151" d="M549.816,183.618s2.8,2,9.807,1.981a23.931,23.931,0,0,0,11.632-2.885l.028-.32a46.3,46.3,0,0,0-9.671-1.685c-4.19-.248-9.931,1.046-11.8,2.548Z" transform="translate(-144.697 -47.55)" fill="#2c4351"/>
          <path id="Trazado_732152" data-name="Trazado 732152" d="M549.816,183.031s2.852,1.72,9.856,1.7a26.071,26.071,0,0,0,11.612-2.566,37.211,37.211,0,0,0-9.622-2.324c-4.429-.262-10.327,1.628-11.845,3.187" transform="translate(-144.697 -47.324)" fill="#2f4f5e"/>
          <path id="Trazado_732153" data-name="Trazado 732153" d="M552.321,183.653a.553.553,0,0,1-.214-1.062c.209-.088,5.162-2.128,8.95-2.059a37.467,37.467,0,0,1,8.51,1.535.553.553,0,0,1-.323,1.057,37.126,37.126,0,0,0-8.211-1.486l-.206,0c-3.532,0-8.246,1.956-8.293,1.975a.561.561,0,0,1-.214.043" transform="translate(-145.21 -47.51)" fill="#365c6b"/>
          <path id="Trazado_732154" data-name="Trazado 732154" d="M554.356,195.979s-.413,3.2.987,4.9a9.627,9.627,0,0,0,6.368,2.915c2.942.171,6.6-2.492,7.2-3.666s.577-4.371.1-4.675-6.068-2.837-7.3-2.863-6.225,2.359-7.355,3.392" transform="translate(-145.876 -50.684)" fill="#e1e0f0"/>
          <path id="Trazado_732155" data-name="Trazado 732155" d="M569.24,197.119a6.482,6.482,0,0,1-.452,2.444c-.6,1.174-4.257,3.837-7.2,3.666a9.632,9.632,0,0,1-6.369-2.915,4.793,4.793,0,0,1-.92-2.252,6.44,6.44,0,0,0,1.041,4.006,9.633,9.633,0,0,0,6.369,2.914c2.941.172,6.595-2.491,7.2-3.665a8.318,8.318,0,0,0,.33-4.2" transform="translate(-145.876 -51.876)" fill="#b7b7e2"/>
          <path id="Trazado_732156" data-name="Trazado 732156" d="M575.755,192.786a36.065,36.065,0,0,1-1.776,3.174c-.3.4,0-.159,0-.159l-1.115-.683a29.14,29.14,0,0,1,2.891-2.332" transform="translate(-150.762 -50.736)" fill="#e1e0f0"/>
          <path id="Trazado_732157" data-name="Trazado 732157" d="M552.186,193.586c.4.6,1.628,2.829,1.694,3.029.157.476-.021-.158-.021-.158l1.015-.825a21.9,21.9,0,0,0-1.737-1.347Z" transform="translate(-145.32 -50.947)" fill="#e1e0f0"/>
          <path id="Trazado_732158" data-name="Trazado 732158" d="M576.145,350.6c-.943-9.593-2.168-25.916-1.865-35.239.368-11.292-4.377-32.9-5.5-37.844a53.941,53.941,0,0,1-28.934-.345c-.253,2.342-.4,4.537-.481,6.395,0,0-1.96,22.07.3,34.742,1.528,8.579,2.616,23.293,3.119,33.049a1,1,0,0,0-.011.141c.077,2.547-.76,12.188-.01,12.729s2.762-.052,4.7-.366c.673-.11,1.382-2.1,2.02-4.649,2.181-6.607,4.484-22.138,3.868-24.283-.78-2.717-1.706-12.511-1.665-13.642.017-.472.488-6.064,1.068-12.824l3.035-13.437,5.609,18.1c.78,3.555,1.324,6.057,1.381,6.371.2,1.118.695,10.935.312,13.707-.2,1.419,1.634,8.3,3.8,14.694h0s4.194,15.464,6.155,15.535,4.03.406,4.708-.224-1.348-10.046-1.6-12.609" transform="translate(-141.738 -72.944)" fill="#0e494d"/>
          <path id="Trazado_732159" data-name="Trazado 732159" d="M539.6,292.871a.553.553,0,0,1-.089-1.1c1.188-.2,4.468-.924,5.369-1.914.808-.888,1.6-5.567,1.916-8.307a.553.553,0,0,1,1.1.125c-.087.762-.886,7.484-2.2,8.926s-5.529,2.182-6.006,2.261a.541.541,0,0,1-.091.007" transform="translate(-141.863 -73.968)" fill="#3a5c6d"/>
          <path id="Trazado_732160" data-name="Trazado 732160" d="M579.625,292.871a.588.588,0,0,1-.138-.017,43.837,43.837,0,0,1-5.577-1.767c-1.232-.655-1.986-6.18-2.327-9.415a.553.553,0,1,1,1.1-.115c.394,3.748,1.181,8.089,1.764,8.566a42.335,42.335,0,0,0,5.315,1.66.553.553,0,0,1-.137,1.088" transform="translate(-150.424 -73.968)" fill="#3a5c6d"/>
          <path id="Trazado_732161" data-name="Trazado 732161" d="M539.707,393.478s-3.092,4.817-4.785,5.56c-1.652.724-4.219.977-5.269,1.524s-1.495,3.057-1.495,3.057,17.035-.419,17.986-.7-.574-9.681-.623-9.572-4.393.817-5.814.133" transform="translate(-138.997 -103.518)" fill="#14313f"/>
          <path id="Trazado_732162" data-name="Trazado 732162" d="M531.007,402.135a.552.552,0,0,1-.083-1.1c2.731-.419,5.856-1.107,6.357-1.533a30.179,30.179,0,0,0,3.1-4.644.553.553,0,1,1,.958.551c-.24.418-2.378,4.114-3.345,4.935-.99.842-5.926,1.634-6.906,1.783a.538.538,0,0,1-.084.007" transform="translate(-139.601 -103.843)" fill="#2c4351"/>
          <path id="Trazado_732163" data-name="Trazado 732163" d="M589.618,393.606s3.2,4.744,4.912,5.448c1.668.687,4.24.881,5.3,1.4s1.564,3.022,1.564,3.022-17.041-.027-18-.288.351-9.692.4-9.585,4.411.716,5.815,0" transform="translate(-153.443 -103.586)" fill="#14313f"/>
          <path id="Trazado_732164" data-name="Trazado 732164" d="M601.328,402.135a.538.538,0,0,1-.084-.007c-.979-.15-5.916-.941-6.906-1.783-.967-.821-3.105-4.517-3.345-4.935a.553.553,0,1,1,.958-.551,29.658,29.658,0,0,0,3.1,4.644c.5.427,3.627,1.113,6.357,1.533a.552.552,0,0,1-.083,1.1" transform="translate(-155.514 -103.843)" fill="#2c4351"/>
          <path id="Trazado_732165" data-name="Trazado 732165" d="M569.556,212.486c.005-.015.007-.026.007-.026Z" transform="translate(-149.892 -55.914)" fill="#00af9e"/>
          <path id="Trazado_732166" data-name="Trazado 732166" d="M575.376,214.43a23.954,23.954,0,0,0-5.591-1.625,37.775,37.775,0,0,1-8.314-2.505,3.893,3.893,0,0,1-.61,1.888s-.42.794-4.017.76c-4.5-.043-4.53-3.44-4.53-3.44A62.29,62.29,0,0,1,544,210.933a18.965,18.965,0,0,0-6.925,1.753l-.015.417s3.386,27.159,1.8,46.065a53.152,53.152,0,0,0,30.239.355s.4-23.215,2.273-30.956c1.4-5.769,3.032-10.817,3.775-13.016,0,0,.339-1.155.225-1.121" transform="translate(-141.341 -55.137)" fill="#34bc85"/>
          <path id="Trazado_732167" data-name="Trazado 732167" d="M561.7,213.545c-4.8,0-5.069-3.768-5.071-3.807a.737.737,0,0,1,1.471-.09c.021.265.288,2.533,3.866,2.419,3.749-.125,4.294-2.09,4.316-2.174a.744.744,0,0,1,.886-.541.731.731,0,0,1,.551.868c-.028.129-.747,3.157-5.7,3.319-.108,0-.212.006-.315.006" transform="translate(-146.49 -54.992)" fill="#54848c"/>
          <rect id="Rectángulo_342079" data-name="Rectángulo 342079" width="25.131" height="28.116" transform="matrix(0.036, -0.999, 0.999, 0.036, 399.292, 190.44)" fill="#3f636d"/>
          <path id="Trazado_732168" data-name="Trazado 732168" d="M571.228,224.7l-5.537-2.241-18.215-.679-4.346,1.912Z" transform="translate(-142.937 -58.367)" fill="#4a757f"/>
          <rect id="Rectángulo_342080" data-name="Rectángulo 342080" width="19.299" height="7.294" transform="translate(416.14 188.127) rotate(-87.945)" fill="#4a757f"/>
          <path id="Trazado_732169" data-name="Trazado 732169" d="M544.571,232.5a.553.553,0,0,1-.553-.553V226.7a.549.549,0,0,1,.167-.395.583.583,0,0,1,.4-.158l24.245.553a.553.553,0,0,1,.539.566.582.582,0,0,1-.564.539l-23.681-.539v4.684a.553.553,0,0,1-.553.553" transform="translate(-143.171 -59.515)" fill="#4a757f"/>
          <path id="Trazado_732170" data-name="Trazado 732170" d="M568.527,257.516h-.018l-24.821-.829a.554.554,0,0,1-.534-.571.537.537,0,0,1,.572-.534l24.82.829a.553.553,0,0,1-.018,1.105" transform="translate(-142.943 -67.262)" fill="#4a757f"/>
          <path id="Trazado_732171" data-name="Trazado 732171" d="M533.248,213.889s-2.927,1.814-4.595,6.975-5.721,17.677-5.571,21.32,3.5,3.563,6,2.759,5.8-11.846,6.791-15.092-.23-14.846-2.625-15.963" transform="translate(-137.66 -56.29)" fill="#2aae79"/>
          <path id="Trazado_732172" data-name="Trazado 732172" d="M535.478,238.537s-10.251,3.13-12.2,7.235c-.877,1.853-1.4,9.547,1.976,9.4s9.6-7.979,11.541-10.088.753-6.587-1.321-6.542" transform="translate(-137.541 -62.776)" fill="#2aae79"/>
          <path id="Trazado_732173" data-name="Trazado 732173" d="M543.87,236.98l.184-.027s-.237.508-1.468.765a10.412,10.412,0,0,0-2.762,1.233l4.719-.371s-.2.615-.665.7-3.717,1.172-3.717,1.172l-.637,1,4.892-1.138a2.051,2.051,0,0,1-1.113.945c-.762.244-2.77,1.094-3.091,1.13s3.92-.041,3.92-.041a1.153,1.153,0,0,1-.817.667,4.635,4.635,0,0,0-1.8,1.035c-.263.314-2.188-1.654-2.188-1.654l-.031-.807.125-2.009.442-1.463a9.105,9.105,0,0,1,4.005-1.14" transform="translate(-141.928 -62.36)" fill="#e0877c"/>
          <path id="Trazado_732174" data-name="Trazado 732174" d="M539.156,238.858a14.484,14.484,0,0,1,.639-2.2,9.349,9.349,0,0,1,2.261-.8c.375-.125,1.958-.035,1.925.384s-.081.659-.663.693a9.52,9.52,0,0,0-2.337.635c-.2.143-1.208.91-1.208.91s.9-.572,1-.677,1.539-.318,2-.477,1.116-.328,1.357-.155.535.957.15,1.256a13.835,13.835,0,0,1-2.973.858,4.181,4.181,0,0,0-1.789.882,5.119,5.119,0,0,0-.23.792,3.7,3.7,0,0,1,.379-.85c.158-.168,1.632-.565,1.967-.733.187-.094,1.651-.272,2.294-.439.554-.144.711.763.18,1.3a5.129,5.129,0,0,1-2.241.641,2.813,2.813,0,0,0-1.655,1.021s.457-.158.693-.212a4.5,4.5,0,0,1,2.648-.735c.643.041.71.978.266,1.3-.315.23-1.763.436-2.148.985s-.5,1.15-.625,1.126a3.615,3.615,0,0,1-1.266-.553c-.154-.231-.106-.971-.26-1.077s-.838-.693-.785-.957.268-1.222.264-1.448-.39-.928.167-1.468" transform="translate(-141.777 -62.058)" fill="#feac97"/>
          <path id="Trazado_732175" data-name="Trazado 732175" d="M525.079,245.827a.552.552,0,0,1-.4-.937c.119-.124,3.014-3.06,9.427-5.377a.552.552,0,0,1,.376,1.039c-6.15,2.222-8.983,5.079-9.01,5.107a.55.55,0,0,1-.4.167" transform="translate(-138.041 -63.025)" fill="#34bc85"/>
          <path id="Trazado_732176" data-name="Trazado 732176" d="M587.6,216.161s2.79,2.019,4.083,7.286,4.439,18.042,4.028,21.665-3.747,3.3-6.183,2.322-4.932-12.231-5.691-15.54,1.295-14.792,3.764-15.733" transform="translate(-153.606 -56.888)" fill="#2aae79"/>
          <path id="Trazado_732177" data-name="Trazado 732177" d="M583.128,240.515s10,3.857,11.645,8.091c.743,1.911.711,9.623-2.644,9.23s-9-8.647-10.788-10.89-.279-6.624,1.788-6.431" transform="translate(-152.784 -63.295)" fill="#2aae79"/>
          <path id="Trazado_732178" data-name="Trazado 732178" d="M578.459,238.569l-.182-.041s.2.524,1.409.868a10.415,10.415,0,0,1,2.667,1.428l-4.68-.709s.16.628.613.75,3.622,1.436,3.622,1.436l.564,1.042-4.8-1.485a2.052,2.052,0,0,0,1.043,1.022c.743.3,2.685,1.29,3,1.349s-3.907-.322-3.907-.322a1.155,1.155,0,0,0,.768.724,4.643,4.643,0,0,1,1.72,1.161c.239.332,2.3-1.493,2.3-1.493l.088-.8.019-2.014-.336-1.491a9.108,9.108,0,0,0-3.913-1.424" transform="translate(-152.027 -62.774)" fill="#e0877c"/>
          <path id="Trazado_732179" data-name="Trazado 732179" d="M582.811,240.8a14.519,14.519,0,0,0-.479-2.239,9.335,9.335,0,0,0-2.2-.96c-.365-.152-1.95-.175-1.947.245s.034.663.612.739a9.515,9.515,0,0,1,2.285.8c.192.157,1.14.994,1.14.994s-.855-.634-.944-.746-1.513-.428-1.957-.62-1.09-.407-1.342-.252-.6.917-.239,1.242a13.885,13.885,0,0,0,2.9,1.069,4.172,4.172,0,0,1,1.721,1.007,5.125,5.125,0,0,1,.172.807,3.7,3.7,0,0,0-.317-.875c-.146-.179-1.587-.681-1.909-.872-.18-.108-1.627-.389-2.257-.6-.542-.183-.764.71-.272,1.279a5.126,5.126,0,0,0,2.19.8,2.812,2.812,0,0,1,1.577,1.137s-.444-.192-.676-.262a8.61,8.61,0,0,0-1.324-.7,8.492,8.492,0,0,0-1.264-.225c-.644-.005-.778.925-.358,1.281.3.253,1.727.562,2.071,1.137s.421,1.183.542,1.168a3.628,3.628,0,0,0,1.3-.461c.17-.219.176-.962.337-1.056s.885-.631.851-.9a14.343,14.343,0,0,1-.159-1.463c.021-.225.456-.9-.062-1.476" transform="translate(-151.985 -62.503)" fill="#feac97"/>
          <path id="Trazado_732180" data-name="Trazado 732180" d="M595.453,248.063a.552.552,0,0,1-.461-.247c-3.012-4.531-8.9-5.971-8.96-5.985a.552.552,0,1,1,.255-1.075c.259.061,6.374,1.558,9.626,6.448a.553.553,0,0,1-.46.858" transform="translate(-154.116 -63.357)" fill="#34bc85"/>
          <path id="Trazado_732181" data-name="Trazado 732181" d="M414.8,338.878A25.805,25.805,0,1,1,389,313.073,25.805,25.805,0,0,1,414.8,338.878" transform="translate(-95.582 -82.392)" fill="#2c4351"/>
          <path id="Trazado_732182" data-name="Trazado 732182" d="M405.681,343.194a13.723,13.723,0,1,1-13.723-13.723,13.722,13.722,0,0,1,13.723,13.723" transform="translate(-99.541 -86.708)" fill="#2c4351"/>
          <path id="Trazado_732183" data-name="Trazado 732183" d="M192.536,339.767a25.805,25.805,0,1,1-25.805-25.805,25.805,25.805,0,0,1,25.805,25.805" transform="translate(-37.088 -82.626)" fill="#2c4351"/>
          <path id="Trazado_732184" data-name="Trazado 732184" d="M183.414,344.083a13.723,13.723,0,1,1-13.723-13.723,13.723,13.723,0,0,1,13.723,13.723" transform="translate(-41.047 -86.942)" fill="#2c4351"/>
          <rect id="Rectángulo_342081" data-name="Rectángulo 342081" width="89.765" height="21.587" transform="translate(246.417 233.394)" fill="#456c75"/>
          <path id="Trazado_732185" data-name="Trazado 732185" d="M421.416,320.451h-84.14a1.105,1.105,0,0,1,0-2.21h84.14a1.105,1.105,0,0,1,0,2.21" transform="translate(-88.471 -83.752)" fill="#55868e"/>
          <path id="Trazado_732186" data-name="Trazado 732186" d="M339.031,327.27v6.264a2.885,2.885,0,1,0,5.7,0V327.27a2.885,2.885,0,1,0-5.7,0" transform="translate(-89.224 -85.253)" fill="#fff"/>
          <path id="Trazado_732187" data-name="Trazado 732187" d="M444.125,327.27v6.264a2.885,2.885,0,1,0,5.7,0V327.27a2.885,2.885,0,1,0-5.7,0" transform="translate(-116.882 -85.253)" fill="#fff"/>
          <rect id="Rectángulo_342082" data-name="Rectángulo 342082" width="84.141" height="126.283" transform="translate(248.805 107.111)" fill="#2aae79"/>
          <path id="Trazado_732188" data-name="Trazado 732188" d="M447.6,225.46a1.106,1.106,0,0,1-1.105-1.105v-74.91a1.105,1.105,0,0,1,2.211,0v74.91a1.106,1.106,0,0,1-1.105,1.105" transform="translate(-117.505 -39.039)" fill="#40e2c3"/>
          <path id="Trazado_732189" data-name="Trazado 732189" d="M341.145,225.085a1.105,1.105,0,0,1-1.105-1.105V149.069a1.105,1.105,0,1,1,2.21,0V223.98a1.105,1.105,0,0,1-1.105,1.105" transform="translate(-89.489 -38.94)" fill="#40e2c3"/>
          <rect id="Rectángulo_342083" data-name="Rectángulo 342083" width="5.702" height="15.291" transform="translate(248.806 204.792)" fill="#385863"/>
          <rect id="Rectángulo_342084" data-name="Rectángulo 342084" width="5.702" height="15.291" transform="translate(327.244 204.792)" fill="#385863"/>
          <rect id="Rectángulo_342085" data-name="Rectángulo 342085" width="72.737" height="112.522" transform="translate(254.507 113.317)" fill="#00af9e"/>
          <path id="Trazado_732190" data-name="Trazado 732190" d="M418.146,153.791,345.409,266.312V153.791Z" transform="translate(-90.902 -40.473)" fill="#02998e"/>
          <rect id="Rectángulo_342086" data-name="Rectángulo 342086" width="37.91" height="74.882" transform="translate(254.508 150.956)" fill="#3f636d"/>
          <rect id="Rectángulo_342087" data-name="Rectángulo 342087" width="37.91" height="40.522" transform="translate(277.682 185.316)" fill="#4a757f"/>
          <path id="Trazado_732191" data-name="Trazado 732191" d="M137.265,160.505H123.329c-4.386,0-8.469,2.607-10.836,6.917L84.558,218.3,50.3,237.8,41.1,276.092h96.16Z" transform="translate(-10.818 -42.241)" fill="#0e494d"/>
          <path id="Trazado_732192" data-name="Trazado 732192" d="M46.88,284.81h6.545L49,304.613l-6.438-.305Z" transform="translate(-11.201 -74.954)" fill="#00dfc0"/>
          <path id="Trazado_732193" data-name="Trazado 732193" d="M56.911,262.521a1.1,1.1,0,0,1-.559-2.059l31.06-18.19a1.1,1.1,0,1,1,1.117,1.906L57.468,262.369a1.094,1.094,0,0,1-.557.152" transform="translate(-14.686 -63.719)" fill="#3a5b68"/>
          <path id="Trazado_732194" data-name="Trazado 732194" d="M132.048,179.06l-24.953,44.8h47.537V172.664l-13.881.626a10.665,10.665,0,0,0-8.7,5.769" transform="translate(-28.184 -45.44)" fill="#d9fff8"/>
          <path id="Trazado_732195" data-name="Trazado 732195" d="M131.57,202.442a1.1,1.1,0,0,1-.63-2.013L156.141,183a1.105,1.105,0,1,1,1.258,1.818l-25.2,17.432a1.1,1.1,0,0,1-.628.2" transform="translate(-34.334 -48.108)" fill="#fff"/>
          <path id="Trazado_732196" data-name="Trazado 732196" d="M123.894,221.49a1.1,1.1,0,0,1-.63-2.014l25.2-17.433a1.105,1.105,0,1,1,1.258,1.818l-25.2,17.433a1.1,1.1,0,0,1-.628.2" transform="translate(-32.314 -53.121)" fill="#fff"/>
          <path id="Trazado_732197" data-name="Trazado 732197" d="M139.6,224.947a1.1,1.1,0,0,1-.63-2.014l18.55-12.831a1.1,1.1,0,1,1,1.258,1.817l-18.55,12.831a1.1,1.1,0,0,1-.628.2" transform="translate(-36.447 -55.241)" fill="#fff"/>
          <path id="Trazado_732214" data-name="Trazado 732214" d="M0,0H122.358V126.283H0Z" transform="translate(126.448 107.111)" fill="#34bc85"/>
          <path id="Trazado_732198" data-name="Trazado 732198" d="M177.641,216.2a1.105,1.105,0,0,1-1.105-1.105V149.95a1.106,1.106,0,0,1,1.1-1.105l56.445-.505h.01a1.105,1.105,0,0,1,.01,2.21l-55.35.5V215.1a1.105,1.105,0,0,1-1.105,1.105" transform="translate(-46.459 -39.039)" fill="#11efca"/>
          <rect id="Rectángulo_342089" data-name="Rectángulo 342089" width="5.702" height="15.291" transform="translate(243.104 204.792)" fill="#3f636d"/>
          <rect id="Rectángulo_342090" data-name="Rectángulo 342090" width="220.136" height="21.587" transform="translate(26.281 233.394)" fill="#3f636d"/>
          <path id="Trazado_732205" data-name="Trazado 732205" d="M221.177,322.269H132.956a1.105,1.105,0,1,1,0-2.21h88.221a1.105,1.105,0,1,1,0,2.21" transform="translate(-34.7 -84.231)" fill="#55868e"/>
          <path id="Trazado_732206" data-name="Trazado 732206" d="M60.219,320.794H37.228a1.105,1.105,0,1,1,0-2.21H60.219a1.105,1.105,0,1,1,0,2.21" transform="translate(-9.507 -83.843)" fill="#55868e"/>
          <path id="Trazado_732207" data-name="Trazado 732207" d="M307.745,338.638s-1.391-24.948-22.752-28.512-33,14.613-33.516,28.512Z" transform="translate(-66.182 -81.497)" fill="#243f44"/>
          <path id="Trazado_732208" data-name="Trazado 732208" d="M306.7,341.123A25.805,25.805,0,1,1,280.9,315.318,25.805,25.805,0,0,1,306.7,341.123" transform="translate(-67.133 -82.983)" fill="#2c4351"/>
          <path id="Trazado_732209" data-name="Trazado 732209" d="M297.577,345.439a13.723,13.723,0,1,1-13.723-13.723,13.722,13.722,0,0,1,13.723,13.723" transform="translate(-71.091 -87.299)" fill="#3f636d"/>
          <path id="Trazado_732210" data-name="Trazado 732210" d="M117.544,338.638s-1.391-24.948-22.752-28.512-33,14.613-33.516,28.512Z" transform="translate(-16.126 -81.497)" fill="#243f44"/>
          <path id="Trazado_732211" data-name="Trazado 732211" d="M116.047,339.767a25.805,25.805,0,1,1-25.805-25.805,25.805,25.805,0,0,1,25.805,25.805" transform="translate(-16.958 -82.626)" fill="#2c4351"/>
          <path id="Trazado_732212" data-name="Trazado 732212" d="M106.925,344.083A13.723,13.723,0,1,1,93.2,330.36a13.722,13.722,0,0,1,13.723,13.723" transform="translate(-20.917 -86.942)" fill="#3f636d"/>
        </g>
      </g>
    </g>
  </g>
</svg>
