<svg xmlns="http://www.w3.org/2000/svg" width="234.727" height="125.606" viewBox="0 0 234.727 125.606">
  <g id="Grupo_966767" data-name="Grupo 966767" transform="translate(-210.168 -4408.966)">
    <rect id="Rectángulo_341893" data-name="Rectángulo 341893" width="234.727" height="125.606" transform="translate(210.168 4408.966)" fill="#fdf8e4"/>
    <g id="Grupo_966466" data-name="Grupo 966466" transform="translate(2 -169)">
      <path id="Trazado_732234" data-name="Trazado 732234" d="M3.57-10.531v2.078H5.016V-6.8H3.57v4.219a1.007,1.007,0,0,0,.18.672.9.9,0,0,0,.688.2A3.6,3.6,0,0,0,5.1-1.758V-.047a4.648,4.648,0,0,1-1.367.2,2.156,2.156,0,0,1-2.422-2.4V-6.8H.078V-8.453H1.313v-2.078Zm13.867,4.7H10.453V-7.672h6.984Zm0,3.383H10.453V-4.289h6.984Z" transform="translate(226.168 4649)" fill="#12263f"/>
      <path id="Trazado_732237" data-name="Trazado 732237" d="M8.047-5.828H1.063V-7.672H8.047Zm0,3.383H1.063V-4.289H8.047Z" transform="translate(333.105 4649)" fill="#12263f"/>
      <g id="Grupo_966465" data-name="Grupo 966465" transform="translate(-949.781 331.5)">
        <path id="Trazado_732235" data-name="Trazado 732235" d="M8.43-4.7a5.762,5.762,0,0,1-.977,3.609A3.409,3.409,0,0,1,4.594.156,3.433,3.433,0,0,1,1.75-1.07,5.594,5.594,0,0,1,.742-4.586V-6.68A5.687,5.687,0,0,1,1.73-10.3a3.434,3.434,0,0,1,2.848-1.234,3.437,3.437,0,0,1,2.844,1.223A5.576,5.576,0,0,1,8.43-6.8Zm-2.258-2.3a4.165,4.165,0,0,0-.387-2.061,1.307,1.307,0,0,0-1.207-.645A1.284,1.284,0,0,0,3.4-9.1,3.9,3.9,0,0,0,3-7.177v2.768a4.372,4.372,0,0,0,.379,2.068,1.29,1.29,0,0,0,1.215.676,1.268,1.268,0,0,0,1.2-.649A4.268,4.268,0,0,0,6.172-4.3Zm4.461,9.857-1.18-.617.281-.508a4.059,4.059,0,0,0,.539-1.9v-1.75H12.18L12.172-.359a4.059,4.059,0,0,1-.437,1.75A4.486,4.486,0,0,1,10.633,2.852Zm9.906-7.133h1.289v1.82H20.539V0H18.281V-2.461H13.617l-.1-1.422,4.742-7.492h2.281Zm-4.773,0h2.516V-8.3l-.148.258Zm13.844,2.4h4.977V0h-7.32V-11.375h2.344Zm-22.7,22.9A1.2,1.2,0,0,0,6.445,20a6.148,6.148,0,0,0-1.687-.75,11.963,11.963,0,0,1-1.93-.777,3.153,3.153,0,0,1-1.937-2.82A2.747,2.747,0,0,1,1.41,14,3.389,3.389,0,0,1,2.9,12.875a5.616,5.616,0,0,1,2.184-.406,5.112,5.112,0,0,1,2.172.441,3.458,3.458,0,0,1,1.48,1.246,3.261,3.261,0,0,1,.527,1.828H6.922A1.534,1.534,0,0,0,6.43,14.77a2.023,2.023,0,0,0-1.383-.434,2.162,2.162,0,0,0-1.336.363,1.146,1.146,0,0,0-.477.957,1.1,1.1,0,0,0,.559.93,6.311,6.311,0,0,0,1.645.7,7.106,7.106,0,0,1,2.914,1.492A2.972,2.972,0,0,1,9.266,21a2.737,2.737,0,0,1-1.117,2.316,4.891,4.891,0,0,1-3.008.84,5.808,5.808,0,0,1-2.391-.48,3.783,3.783,0,0,1-1.645-1.316,3.371,3.371,0,0,1-.566-1.937H2.891q0,1.883,2.25,1.883a2.189,2.189,0,0,0,1.3-.34A1.106,1.106,0,0,0,6.914,21.016Z" transform="translate(1220.449 4334)" fill="#12263f"/>
        <path id="Trazado_732236" data-name="Trazado 732236" d="M0,0H50" transform="translate(1212.949 4341)" fill="none" stroke="#12263f" stroke-linecap="round" stroke-width="2"/>
      </g>
      <g id="Grupo_966464" data-name="Grupo 966464" transform="translate(-965.563 274.5)">
        <path id="Trazado_732231" data-name="Trazado 732231" d="M-18.426,0h-2.258V-8.715l-2.7.832V-9.7l4.711-1.687h.242ZM-7.074-4.7a5.762,5.762,0,0,1-.977,3.609A3.409,3.409,0,0,1-10.91.156,3.433,3.433,0,0,1-13.754-1.07a5.594,5.594,0,0,1-1.008-3.516V-6.68a5.687,5.687,0,0,1,.988-3.617,3.434,3.434,0,0,1,2.848-1.234,3.437,3.437,0,0,1,2.844,1.223A5.576,5.576,0,0,1-7.074-6.8Zm-2.258-2.3a4.165,4.165,0,0,0-.387-2.061,1.307,1.307,0,0,0-1.207-.645A1.284,1.284,0,0,0-12.1-9.1a3.9,3.9,0,0,0-.4,1.92v2.768a4.372,4.372,0,0,0,.379,2.068,1.29,1.29,0,0,0,1.215.676,1.268,1.268,0,0,0,1.2-.649A4.268,4.268,0,0,0-9.332-4.3ZM2.105-4.7a5.762,5.762,0,0,1-.977,3.609A3.409,3.409,0,0,1-1.73.156,3.433,3.433,0,0,1-4.574-1.07,5.594,5.594,0,0,1-5.582-4.586V-6.68A5.687,5.687,0,0,1-4.594-10.3a3.434,3.434,0,0,1,2.848-1.234A3.437,3.437,0,0,1,1.1-10.309,5.576,5.576,0,0,1,2.105-6.8Zm-2.258-2.3A4.165,4.165,0,0,0-.539-9.066a1.307,1.307,0,0,0-1.207-.645A1.284,1.284,0,0,0-2.922-9.1a3.9,3.9,0,0,0-.4,1.92v2.768a4.372,4.372,0,0,0,.379,2.068,1.29,1.29,0,0,0,1.215.676,1.268,1.268,0,0,0,1.2-.649A4.268,4.268,0,0,0-.152-4.3ZM11.285-4.7a5.762,5.762,0,0,1-.977,3.609A3.409,3.409,0,0,1,7.449.156,3.433,3.433,0,0,1,4.605-1.07,5.594,5.594,0,0,1,3.6-4.586V-6.68A5.687,5.687,0,0,1,4.586-10.3a3.434,3.434,0,0,1,2.848-1.234,3.437,3.437,0,0,1,2.844,1.223A5.576,5.576,0,0,1,11.285-6.8Zm-2.258-2.3a4.165,4.165,0,0,0-.387-2.061,1.307,1.307,0,0,0-1.207-.645A1.284,1.284,0,0,0,6.258-9.1a3.9,3.9,0,0,0-.4,1.92v2.768a4.372,4.372,0,0,0,.379,2.068,1.29,1.29,0,0,0,1.215.676,1.268,1.268,0,0,0,1.2-.649A4.268,4.268,0,0,0,9.027-4.3ZM19.379-1.883h4.977V0h-7.32V-11.375h2.344ZM1.668,24H-.59V15.285l-2.7.832V14.3l4.711-1.687h.242Z" transform="translate(1255.168 4334)" fill="#12263f"/>
        <path id="Trazado_732232" data-name="Trazado 732232" d="M0,0H52" transform="translate(1227.73 4341)" fill="none" stroke="#12263f" stroke-linecap="round" stroke-width="2"/>
      </g>
      <path id="Trazado_732233" data-name="Trazado 732233" d="M0,0H74.563" transform="translate(250.668 4643.5)" fill="none" stroke="#12263f" stroke-linecap="round" stroke-width="2"/>
      <g id="Grupo_966460" data-name="Grupo 966460" transform="translate(-953.063 303)">
        <path id="Trazado_732238" data-name="Trazado 732238" d="M6.258,0H4V-8.715l-2.7.832V-9.7l4.711-1.687h.242ZM17.609-4.7a5.763,5.763,0,0,1-.977,3.609A3.409,3.409,0,0,1,13.773.156,3.433,3.433,0,0,1,10.93-1.07,5.594,5.594,0,0,1,9.922-4.586V-6.68A5.687,5.687,0,0,1,10.91-10.3a3.434,3.434,0,0,1,2.848-1.234A3.437,3.437,0,0,1,16.6-10.309,5.576,5.576,0,0,1,17.609-6.8Zm-2.258-2.3a4.165,4.165,0,0,0-.387-2.061,1.307,1.307,0,0,0-1.207-.645,1.284,1.284,0,0,0-1.176.614,3.9,3.9,0,0,0-.4,1.92v2.768a4.372,4.372,0,0,0,.379,2.068,1.29,1.29,0,0,0,1.215.676,1.268,1.268,0,0,0,1.2-.649A4.268,4.268,0,0,0,15.352-4.3ZM26.789-4.7a5.763,5.763,0,0,1-.977,3.609A3.409,3.409,0,0,1,22.953.156,3.433,3.433,0,0,1,20.109-1.07,5.594,5.594,0,0,1,19.1-4.586V-6.68A5.687,5.687,0,0,1,20.09-10.3a3.434,3.434,0,0,1,2.848-1.234,3.437,3.437,0,0,1,2.844,1.223A5.576,5.576,0,0,1,26.789-6.8Zm-2.258-2.3a4.165,4.165,0,0,0-.387-2.061,1.307,1.307,0,0,0-1.207-.645,1.284,1.284,0,0,0-1.176.614,3.9,3.9,0,0,0-.4,1.92v2.768a4.373,4.373,0,0,0,.379,2.068,1.29,1.29,0,0,0,1.215.676,1.268,1.268,0,0,0,1.2-.649A4.268,4.268,0,0,0,24.531-4.3ZM35.969-4.7a5.762,5.762,0,0,1-.977,3.609A3.409,3.409,0,0,1,32.133.156,3.433,3.433,0,0,1,29.289-1.07a5.594,5.594,0,0,1-1.008-3.516V-6.68A5.687,5.687,0,0,1,29.27-10.3a3.434,3.434,0,0,1,2.848-1.234,3.437,3.437,0,0,1,2.844,1.223A5.576,5.576,0,0,1,35.969-6.8Zm-2.258-2.3a4.165,4.165,0,0,0-.387-2.061,1.307,1.307,0,0,0-1.207-.645,1.284,1.284,0,0,0-1.176.614,3.9,3.9,0,0,0-.4,1.92v2.768a4.373,4.373,0,0,0,.379,2.068,1.29,1.29,0,0,0,1.215.676,1.268,1.268,0,0,0,1.2-.649A4.268,4.268,0,0,0,33.711-4.3ZM44.063-1.883h4.977V0h-7.32V-11.375h2.344ZM56.016-7.52l-2.453-.695.461-1.413,2.43.976L56.3-11.375h1.531L57.672-8.6l2.367-.96L60.5-8.128,58-7.434l1.641,2.078L58.4-4.473,56.977-6.754l-1.406,2.2-1.242-.844ZM70.031-2.336a.727.727,0,0,0-.41-.652A4.659,4.659,0,0,0,68.3-3.414q-3.016-.633-3.016-2.562a2.323,2.323,0,0,1,.934-1.879,3.766,3.766,0,0,1,2.441-.754,4.053,4.053,0,0,1,2.574.758A2.388,2.388,0,0,1,72.2-5.883H69.945a1.092,1.092,0,0,0-.312-.8A1.322,1.322,0,0,0,68.656-7a1.351,1.351,0,0,0-.883.258.814.814,0,0,0-.312.656.7.7,0,0,0,.355.605,3.657,3.657,0,0,0,1.2.4,9.8,9.8,0,0,1,1.422.379A2.336,2.336,0,0,1,72.227-2.43a2.2,2.2,0,0,1-.992,1.871,4.28,4.28,0,0,1-2.562.715,4.47,4.47,0,0,1-1.887-.379,3.166,3.166,0,0,1-1.293-1.039,2.414,2.414,0,0,1-.469-1.426h2.141a1.179,1.179,0,0,0,.445.922,1.766,1.766,0,0,0,1.109.32,1.635,1.635,0,0,0,.98-.246A.766.766,0,0,0,70.031-2.336ZM8.43,19.3a5.762,5.762,0,0,1-.977,3.609,3.409,3.409,0,0,1-2.859,1.25A3.433,3.433,0,0,1,1.75,22.93,5.594,5.594,0,0,1,.742,19.414V17.32A5.687,5.687,0,0,1,1.73,13.7a3.434,3.434,0,0,1,2.848-1.234,3.437,3.437,0,0,1,2.844,1.223A5.576,5.576,0,0,1,8.43,17.2Zm-2.258-2.3a4.165,4.165,0,0,0-.387-2.061,1.307,1.307,0,0,0-1.207-.645A1.284,1.284,0,0,0,3.4,14.9a3.9,3.9,0,0,0-.4,1.92v2.768a4.372,4.372,0,0,0,.379,2.068,1.29,1.29,0,0,0,1.215.676,1.268,1.268,0,0,0,1.2-.649A4.268,4.268,0,0,0,6.172,19.7Zm4.461,9.857-1.18-.617.281-.508a4.059,4.059,0,0,0,.539-1.9v-1.75H12.18l-.008,1.563a4.059,4.059,0,0,1-.437,1.75A4.486,4.486,0,0,1,10.633,26.852Zm9.906-7.133h1.289v1.82H20.539V24H18.281V21.539H13.617l-.1-1.422,4.742-7.492h2.281Zm-4.773,0h2.516V15.7l-.148.258ZM31.7,21.664a.727.727,0,0,0-.41-.652,4.659,4.659,0,0,0-1.316-.426q-3.016-.633-3.016-2.562a2.323,2.323,0,0,1,.934-1.879,3.766,3.766,0,0,1,2.441-.754,4.053,4.053,0,0,1,2.574.758,2.388,2.388,0,0,1,.965,1.969H31.609a1.092,1.092,0,0,0-.312-.8A1.322,1.322,0,0,0,30.32,17a1.351,1.351,0,0,0-.883.258.814.814,0,0,0-.312.656.7.7,0,0,0,.355.605,3.657,3.657,0,0,0,1.2.4A9.8,9.8,0,0,1,32.1,19.3a2.336,2.336,0,0,1,1.789,2.273,2.2,2.2,0,0,1-.992,1.871,4.28,4.28,0,0,1-2.562.715,4.47,4.47,0,0,1-1.887-.379,3.166,3.166,0,0,1-1.293-1.039,2.414,2.414,0,0,1-.469-1.426h2.141a1.179,1.179,0,0,0,.445.922,1.766,1.766,0,0,0,1.109.32,1.635,1.635,0,0,0,.98-.246A.766.766,0,0,0,31.7,21.664Z" transform="translate(1306.168 4334)" fill="#12263f"/>
        <path id="Trazado_732239" data-name="Trazado 732239" d="M0,0H55.5" transform="translate(1303.668 4340.5)" fill="none" stroke="#12263f" stroke-linecap="round" stroke-width="2"/>
      </g>
    </g>
  </g>
</svg>
