<svg xmlns="http://www.w3.org/2000/svg" xmlns:xlink="http://www.w3.org/1999/xlink" width="294" height="294" viewBox="0 0 294 294">
  <defs>
    <clipPath id="clip-path">
      <rect id="Rect치ngulo_342050" data-name="Rect치ngulo 342050" width="294" height="294" transform="translate(-0.164 0)" fill="none"/>
    </clipPath>
  </defs>
  <g id="Grupo_966682" data-name="Grupo 966682" transform="translate(0.5 0.336)">
    <g id="Grupo_966681" data-name="Grupo 966681" transform="translate(-0.336 -0.336)" clip-path="url(#clip-path)">
      <path id="Trazado_731793" data-name="Trazado 731793" d="M293.207,146.6A146.6,146.6,0,1,1,146.6,0a146.6,146.6,0,0,1,146.6,146.6" transform="translate(0.314 0.315)" fill="#f2e6dc"/>
      <path id="Trazado_731794" data-name="Trazado 731794" d="M1482.1,379.754a7.581,7.581,0,1,1,2.79,10.352,7.581,7.581,0,0,1-2.79-10.352" transform="translate(-1243.473 -315.402)" fill="#efbc73"/>
      <path id="Trazado_731795" data-name="Trazado 731795" d="M1354.861,155.371a7.581,7.581,0,1,1,2.79,10.352,7.581,7.581,0,0,1-2.79-10.352" transform="translate(-1136.618 -126.97)" fill="#efbc73"/>
      <path id="Trazado_731796" data-name="Trazado 731796" d="M1223.344,380.4a7.581,7.581,0,1,1,2.79,10.352,7.581,7.581,0,0,1-2.79-10.352" transform="translate(-1026.172 -315.948)" fill="#efbc73"/>
      <path id="Trazado_731797" data-name="Trazado 731797" d="M966.842,382.451a7.581,7.581,0,1,1,2.79,10.352,7.581,7.581,0,0,1-2.79-10.352" transform="translate(-810.769 -317.667)" fill="#efbc73"/>
      <path id="Trazado_731798" data-name="Trazado 731798" d="M1093.134,155.729a7.581,7.581,0,1,1,2.79,10.352,7.581,7.581,0,0,1-2.79-10.352" transform="translate(-916.825 -127.271)" fill="#efbc73"/>
      <path id="Trazado_731799" data-name="Trazado 731799" d="M1158.411,170.379a.351.351,0,0,1-.176-.047l-20.814-11.977a.354.354,0,0,1-.177-.306l-.034-24.014a.353.353,0,0,1,.176-.306l20.779-12.037a.351.351,0,0,1,.353,0l20.814,11.977a.354.354,0,0,1,.177.306l.034,24.014a.353.353,0,0,1-.176.306l-20.78,12.037a.354.354,0,0,1-.177.048m-20.461-12.535,20.46,11.774,20.427-11.833-.034-23.606-20.46-11.774-20.426,11.833Z" transform="translate(-954.688 -101.839)" fill="#efbc73"/>
      <path id="Trazado_731800" data-name="Trazado 731800" d="M1418.609,383.5a.353.353,0,0,1-.353-.353l-.034-23.81-20.637-11.876a.353.353,0,0,1,.352-.613l20.814,11.977a.354.354,0,0,1,.177.306l.034,24.014a.353.353,0,0,1-.353.354Z" transform="translate(-1173.197 -290.924)" fill="#efbc73"/>
      <path id="Trazado_731801" data-name="Trazado 731801" d="M1008.078,383.484a.353.353,0,0,1-.353-.353l-.034-24.014a.353.353,0,0,1,.176-.306l20.78-12.037a.352.352,0,0,1,.353,0l20.814,11.977a.354.354,0,0,1,.177.306l.035,24.014a.353.353,0,0,1-.353.354h0a.353.353,0,0,1-.353-.353l-.034-23.81-20.46-11.774L1008.4,359.32l.034,23.81a.353.353,0,0,1-.353.354Z" transform="translate(-845.921 -290.858)" fill="#efbc73"/>
      <path id="Trazado_731802" data-name="Trazado 731802" d="M1129.177,743.762a29.418,29.418,0,0,1-3.234-12.267c-.351-10.541,5.532-17.814,7.633-20.173a24.606,24.606,0,0,0-4.113,10.92,26.177,26.177,0,0,0,3.123,15.4,11.334,11.334,0,0,1,1.075-12.952c3.714-4.33,9.592-4.378,10.4-4.372-1.224.48-6.061,2.533-8.04,7.452-2.1,5.219-.136,11.56,5,16.015l-11.842-.024" transform="translate(-945.214 -597.037)" fill="#9e9569"/>
      <path id="Trazado_731803" data-name="Trazado 731803" d="M1243,742.983a29.419,29.419,0,0,1-3.234-12.267c-.351-10.541,5.532-17.814,7.633-20.173a24.6,24.6,0,0,0-4.113,10.92,26.177,26.177,0,0,0,3.123,15.4,11.335,11.335,0,0,1,1.075-12.952c3.714-4.33,9.592-4.378,10.4-4.372-1.224.48-6.061,2.533-8.04,7.452-2.1,5.219-.136,11.56,5,16.015L1243,742.983" transform="translate(-1040.802 -596.383)" fill="#9e9569"/>
      <path id="Trazado_731804" data-name="Trazado 731804" d="M1173.519,737.882a32.268,32.268,0,0,1-6.528-11.594,30.378,30.378,0,0,1,1.948-22A32.31,32.31,0,0,0,1170.1,722.8a36.953,36.953,0,0,0,8.785,13.4,18.423,18.423,0,0,1-4.522-10.574,17.641,17.641,0,0,1,2.818-10.729,17.633,17.633,0,0,0,.907,12.5c2.928,6.325,8.677,9.416,10.465,10.3l-15.038.19" transform="translate(-978.648 -591.133)" fill="#8b865c"/>
      <path id="Trazado_731805" data-name="Trazado 731805" d="M1036.98,742.983a25.222,25.222,0,0,1-4-12.267c-.435-10.541,6.847-17.814,9.448-20.173a22.121,22.121,0,0,0-5.09,10.92c-1.061,7.257,2.249,12.994,3.865,15.4-2.934-4.383-2.429-9.411,1.33-12.952,4.6-4.33,11.872-4.378,12.871-4.372-1.516.48-7.5,2.533-9.952,7.452-2.6,5.219-.169,11.56,6.187,16.015l-14.657-.024" transform="translate(-867.141 -596.383)" fill="#8b865c"/>
      <path id="Trazado_731806" data-name="Trazado 731806" d="M950.978,737.367a31.438,31.438,0,0,1-8.08-11.594c-3.849-10.177.45-18.707,2.411-22a26.44,26.44,0,0,0,1.44,18.509,37.584,37.584,0,0,0,10.873,13.4c-1.551-1.448-5.114-5.182-5.6-10.574a15.278,15.278,0,0,1,3.488-10.729,14.519,14.519,0,0,0,1.123,12.5c3.624,6.325,10.739,9.416,12.953,10.3l-18.612.191" transform="translate(-790.21 -590.7)" fill="#8b865c"/>
      <path id="Trazado_731807" data-name="Trazado 731807" d="M798.344,711.162a40.354,40.354,0,0,1-3.234-14.617,38.623,38.623,0,0,1,7.633-24.037,32.782,32.782,0,0,0-4.113,13.012,36.144,36.144,0,0,0,3.123,18.35c-2.37-5.223-1.962-11.214,1.075-15.433a12.985,12.985,0,0,1,10.4-5.209,15.416,15.416,0,0,0-8.04,8.88c-2.1,6.219-.136,13.775,5,19.083l-11.841-.029" transform="translate(-667.388 -564.442)" fill="#9e9569"/>
      <path id="Trazado_731808" data-name="Trazado 731808" d="M1078.937,749.827a.353.353,0,0,1-.352-.33,39.986,39.986,0,0,1,2.033-15.68,39.55,39.55,0,0,1,3.34-7.261.353.353,0,0,1,.609.359,38.82,38.82,0,0,0-3.28,7.13,39.281,39.281,0,0,0-2,15.4.354.354,0,0,1-.329.376h-.024" transform="translate(-905.378 -609.685)" fill="#8b865c"/>
      <path id="Trazado_731809" data-name="Trazado 731809" d="M1093.219,707.94c-.96,1.919-4.267,2.21-7.385.65s-4.869-4.381-3.908-6.3,4.267-2.21,7.385-.65,4.869,4.381,3.908,6.3" transform="translate(-908.042 -588.064)" fill="#efbc73"/>
      <path id="Trazado_731810" data-name="Trazado 731810" d="M912.169,710.234a40.356,40.356,0,0,1-3.234-14.617,38.625,38.625,0,0,1,7.633-24.037,32.781,32.781,0,0,0-4.113,13.012,36.144,36.144,0,0,0,3.123,18.35c-2.37-5.223-1.962-11.214,1.075-15.433a12.984,12.984,0,0,1,10.4-5.209,15.417,15.417,0,0,0-8.04,8.88c-2.1,6.219-.136,13.774,5,19.083l-11.842-.029" transform="translate(-762.976 -563.663)" fill="#9e9569"/>
      <path id="Trazado_731811" data-name="Trazado 731811" d="M842.686,704.155a40.791,40.791,0,0,1-6.528-13.815,42.448,42.448,0,0,1,1.948-26.21,45.132,45.132,0,0,0,9.949,38.016,23.889,23.889,0,0,1-1.7-25.384,24.485,24.485,0,0,0,11.372,27.166l-15.038.227" transform="translate(-700.822 -557.406)" fill="#8b865c"/>
      <path id="Trazado_731812" data-name="Trazado 731812" d="M706.147,711.162a34.055,34.055,0,0,1-4-14.617c-.435-12.56,6.847-21.227,9.448-24.037a28.693,28.693,0,0,0-5.09,13.012,30.246,30.246,0,0,0,3.865,18.35c-2.934-5.223-2.428-11.214,1.33-15.433,4.6-5.159,11.873-5.216,12.872-5.209-1.516.572-7.5,3.019-9.952,8.88-2.6,6.219-.169,13.775,6.187,19.083l-14.657-.029" transform="translate(-589.315 -564.442)" fill="#8b865c"/>
      <path id="Trazado_731813" data-name="Trazado 731813" d="M621.355,704.006c-2.686-2.99-7.325-7.482-9.288-13.667-3.849-12.127.45-22.29,2.411-26.21a37.136,37.136,0,0,0,1.44,22.054,43.968,43.968,0,0,0,10.874,15.962,21.588,21.588,0,0,1-5.6-12.6,20.454,20.454,0,0,1,3.488-12.784,20.285,20.285,0,0,0,1.123,14.894c3.624,7.537,10.739,11.22,12.953,12.272-6.2.076-11.2,0-17.4.079" transform="translate(-512.385 -557.406)" fill="#8b865c"/>
      <path id="Trazado_731814" data-name="Trazado 731814" d="M659.489,716.735a.353.353,0,0,1-.352-.331,45.494,45.494,0,0,1,2.031-16.752,43.7,43.7,0,0,1,3.337-7.758.353.353,0,1,1,.619.341,42.988,42.988,0,0,0-3.283,7.632,44.788,44.788,0,0,0-2,16.492.353.353,0,0,1-.331.375h-.022" transform="translate(-553.135 -580.568)" fill="#8b865c"/>
      <path id="Trazado_731815" data-name="Trazado 731815" d="M676.017,663.835c-.96,1.919-4.267,2.21-7.385.65s-4.869-4.381-3.908-6.3,4.267-2.21,7.385-.65,4.868,4.381,3.908,6.3" transform="translate(-557.685 -551.025)" fill="#efbc73"/>
      <path id="Trazado_731816" data-name="Trazado 731816" d="M1610.576,737.367a31.438,31.438,0,0,1-8.08-11.594c-3.849-10.177.45-18.707,2.411-22a26.44,26.44,0,0,0,1.44,18.509,37.585,37.585,0,0,0,10.873,13.4c-1.551-1.448-5.114-5.182-5.6-10.574a15.279,15.279,0,0,1,3.488-10.729,14.52,14.52,0,0,0,1.123,12.5c3.624,6.325,10.74,9.416,12.953,10.3l-18.613.191" transform="translate(-1344.126 -590.7)" fill="#8b865c"/>
      <path id="Trazado_731817" data-name="Trazado 731817" d="M1457.943,711.162a40.359,40.359,0,0,1-3.234-14.617,38.622,38.622,0,0,1,7.633-24.037,32.78,32.78,0,0,0-4.113,13.012,36.143,36.143,0,0,0,3.123,18.35c-2.37-5.223-1.962-11.214,1.075-15.433a12.985,12.985,0,0,1,10.4-5.209,15.416,15.416,0,0,0-8.04,8.88c-2.1,6.219-.136,13.775,5,19.083l-11.842-.029" transform="translate(-1221.305 -564.442)" fill="#9e9569"/>
      <path id="Trazado_731818" data-name="Trazado 731818" d="M1571.768,710.234a40.355,40.355,0,0,1-3.234-14.617,38.622,38.622,0,0,1,7.633-24.037,32.782,32.782,0,0,0-4.113,13.012,36.144,36.144,0,0,0,3.123,18.35c-2.37-5.223-1.962-11.214,1.075-15.433a12.984,12.984,0,0,1,10.4-5.209,15.417,15.417,0,0,0-8.04,8.88c-2.1,6.219-.136,13.774,5,19.083l-11.842-.029" transform="translate(-1316.892 -563.663)" fill="#9e9569"/>
      <path id="Trazado_731819" data-name="Trazado 731819" d="M1502.284,703.542a40.793,40.793,0,0,1-6.528-13.815,42.449,42.449,0,0,1,1.948-26.211,45.131,45.131,0,0,0,9.949,38.016,23.889,23.889,0,0,1-1.7-25.384,24.771,24.771,0,0,0,.907,14.894,26.485,26.485,0,0,0,10.465,12.667c-5.013.076-10.025-.244-15.038-.168" transform="translate(-1254.738 -556.891)" fill="#8b865c"/>
      <path id="Trazado_731820" data-name="Trazado 731820" d="M1365.745,710.234a34.054,34.054,0,0,1-4-14.617c-.435-12.56,6.847-21.226,9.448-24.037a28.7,28.7,0,0,0-5.09,13.012,30.247,30.247,0,0,0,3.865,18.35c-2.934-5.223-2.429-11.214,1.33-15.433,4.6-5.159,11.872-5.216,12.871-5.209-1.516.572-7.5,3.019-9.951,8.88-2.6,6.219-.169,13.774,6.187,19.083l-14.657-.029" transform="translate(-1143.23 -563.663)" fill="#8b865c"/>
      <path id="Trazado_731821" data-name="Trazado 731821" d="M1279.744,703.542a38.116,38.116,0,0,1-8.079-13.815c-3.849-12.127.45-22.29,2.411-26.211a37.135,37.135,0,0,0,1.44,22.055,43.967,43.967,0,0,0,10.874,15.961,21.587,21.587,0,0,1-5.6-12.6,20.454,20.454,0,0,1,3.488-12.784,20.284,20.284,0,0,0,1.123,14.894c3.624,7.537,10.739,11.22,12.953,12.272l-18.613.227" transform="translate(-1066.3 -556.891)" fill="#8b865c"/>
      <path id="Trazado_731822" data-name="Trazado 731822" d="M1319.087,716.735a.353.353,0,0,1-.352-.331,45.5,45.5,0,0,1,2.031-16.752,43.7,43.7,0,0,1,3.337-7.758.353.353,0,1,1,.619.341,42.979,42.979,0,0,0-3.283,7.632,44.787,44.787,0,0,0-2,16.492.353.353,0,0,1-.33.375h-.023" transform="translate(-1107.051 -580.568)" fill="#8b865c"/>
      <path id="Trazado_731823" data-name="Trazado 731823" d="M1335.615,663.835c-.96,1.919-4.266,2.21-7.385.65s-4.869-4.381-3.908-6.3,4.267-2.21,7.385-.65,4.869,4.381,3.908,6.3" transform="translate(-1111.6 -551.025)" fill="#efbc73"/>
      <rect id="Rect치ngulo_342049" data-name="Rect치ngulo 342049" width="175.916" height="47.06" transform="translate(108.97 230.845)" fill="#b77250"/>
      <path id="Trazado_731824" data-name="Trazado 731824" d="M1426.772,1540.818a.355.355,0,0,1-.137-.027l-8.12-3.408a.353.353,0,0,1-.207-.406l1.771-7.575a.353.353,0,0,1,.266-.264l6.864-1.544a.357.357,0,0,1,.2.013l6.5,2.364,8.389-2.371a.353.353,0,0,1,.273.034l5.663,3.281a.354.354,0,0,1,.15.44l-3.089,7.509a.353.353,0,0,1-.327.219h-9.574l-8.545,1.73a.365.365,0,0,1-.07.007m-7.708-3.971,7.744,3.25,8.473-1.715a.362.362,0,0,1,.07-.007h9.373l2.881-7-5.266-3.052-8.354,2.362a.355.355,0,0,1-.217-.008l-6.505-2.367-6.547,1.473Z" transform="translate(-1190.741 -1282.517)" fill="#d3bba3"/>
      <path id="Trazado_731825" data-name="Trazado 731825" d="M1444.292,1617.33a.354.354,0,0,1-.2-.061l-6.821-4.642a.355.355,0,0,1-.154-.318l.476-6.682a.354.354,0,0,1,.041-.142l4.629-8.633a.355.355,0,0,1,.241-.179l8.58-1.736a.353.353,0,0,1,.423.348l-.043,7.963a.354.354,0,0,1-.147.285l-3.846,2.761,2.018,6.319a.354.354,0,0,1-.1.374l-4.863,4.256a.353.353,0,0,1-.232.087m-6.454-5.173,6.427,4.374,4.483-3.923-2.025-6.344a.353.353,0,0,1,.13-.394l3.908-2.806.04-7.349-7.991,1.618-4.515,8.42Z" transform="translate(-1206.545 -1339.072)" fill="#d3bba3"/>
      <path id="Trazado_731826" data-name="Trazado 731826" d="M1516.856,1573.739a.352.352,0,0,1-.206-.066l-6.462-4.627a.354.354,0,0,1-.088-.483l5.349-8.033-3.193-.906a.353.353,0,0,1-.257-.342l.043-7.931-1.457-8.356a.353.353,0,1,1,.7-.121l1.463,8.387a.363.363,0,0,1,.005.063l-.042,7.694,3.154.895,5.85-8.787a.353.353,0,0,1,.26-.156.362.362,0,0,1,.285.1l5.472,5.533,6.536-3.752v-7.091l-9.231-1.6a.353.353,0,0,1,.121-.7l9.524,1.653a.353.353,0,0,1,.293.348v7.593a.353.353,0,0,1-.177.306l-6.95,3.99a.353.353,0,0,1-.427-.058l-5.358-5.418-5.484,8.237,6.041,1.714a.353.353,0,0,1,.257.34v6.2a.354.354,0,0,1-.119.265l-5.662,5.013a.354.354,0,0,1-.234.089m-5.979-5.068,5.956,4.264,5.333-4.721v-5.779l-6-1.7Z" transform="translate(-1267.783 -1295.11)" fill="#d3bba3"/>
      <path id="Trazado_731827" data-name="Trazado 731827" d="M1592.5,1647.713a.354.354,0,0,1-.217-.074l-6.435-5.013a.353.353,0,0,1-.136-.279v-6.2a.353.353,0,0,1,.1-.25l5.148-5.121a.378.378,0,0,1,.254-.1.353.353,0,0,1,.251.11l6.95,7.336a.353.353,0,0,1,.043.431l-5.663,9a.355.355,0,0,1-.238.16.38.38,0,0,1-.061.005m-6.082-5.539,5.991,4.667,5.309-8.44-6.512-6.874-4.787,4.762Z" transform="translate(-1331.334 -1369.083)" fill="#d3bba3"/>
      <path id="Trazado_731828" data-name="Trazado 731828" d="M1581.978,1489.607a.353.353,0,0,1-.35-.307l-.887-6.717-3.832-4.45-4.3-.533-5.539,6.94a.353.353,0,0,1-.552-.441l5.663-7.094a.356.356,0,0,1,.32-.13l4.633.574a.352.352,0,0,1,.224.12l3.7,4.3,2.053-2.737,2.71-3.356a.355.355,0,0,1,.364-.12l4.722,1.228a.353.353,0,0,1,.258.411l-.994,4.97.4,3.6a.354.354,0,0,1-.218.366l-8.237,3.346a.353.353,0,0,1-.133.026m-.532-7.078.822,6.225,7.566-3.074-.372-3.393a.348.348,0,0,1,0-.108l.939-4.7-4.178-1.087-2.56,3.169Z" transform="translate(-1315.146 -1238.899)" fill="#d3bba3"/>
      <path id="Trazado_731829" data-name="Trazado 731829" d="M1676.825,1569.093a.354.354,0,0,1-.3-.159l-2.957-4.505-4.4.916a.348.348,0,0,1-.265-.049l-7.529-4.891a.353.353,0,0,1-.006-.589l7.628-5.188-7.637-5.56a.353.353,0,0,1,.124-.629l10.421-2.542,3.122-4.594-5.4-3.155a.353.353,0,0,1,.356-.61l5.727,3.346a.354.354,0,0,1,.114.5l-3.411,5.019a.353.353,0,0,1-.208.145l-9.813,2.393,7.428,5.408a.353.353,0,0,1-.009.578l-7.6,5.171,6.961,4.522,4.491-.936a.349.349,0,0,1,.368.152l3.089,4.706a.353.353,0,0,1-.295.547" transform="translate(-1394.741 -1290.834)" fill="#d3bba3"/>
      <path id="Trazado_731830" data-name="Trazado 731830" d="M1715.894,1518.884a.353.353,0,0,1-.32-.5l2.929-6.275-6.854-2.641a.353.353,0,0,1,.011-.664l7.79-2.694.649-5.883-2.7-4.352a.352.352,0,0,1-.047-.253l1.269-6.533-1.508-4.2-4.6-.879a.353.353,0,0,1,.132-.694l4.8.917a.354.354,0,0,1,.266.228l1.609,4.483a.352.352,0,0,1,.014.187l-1.26,6.492,2.694,4.338a.353.353,0,0,1,.051.225l-.686,6.226a.354.354,0,0,1-.236.3l-7.087,2.451,6.305,2.429a.353.353,0,0,1,.193.479l-3.089,6.618a.353.353,0,0,1-.32.2" transform="translate(-1436.9 -1245.331)" fill="#d3bba3"/>
      <path id="Trazado_731831" data-name="Trazado 731831" d="M1383.877,1512.77h-.02l-9.112-.5a.347.347,0,0,1-.12-.028l-9.613-4.124a.353.353,0,0,1-.14-.541l5.775-7.467-8.482-1.707a.353.353,0,0,1-.284-.346v-7.3a.353.353,0,0,1,.117-.263l6.477-5.834a.351.351,0,0,1,.3-.085l8.108,1.545a.353.353,0,0,1,.221.141l2.854,3.964,4.855-4.531a.356.356,0,0,1,.131-.078l7.035-2.29a.358.358,0,0,1,.109-.017h8.58a.353.353,0,1,1,0,.707h-8.524l-6.908,2.248-5.091,4.751a.361.361,0,0,1-.275.093.353.353,0,0,1-.252-.145l-3.006-4.175-7.8-1.485-6.23,5.612v6.853l8.756,1.762a.353.353,0,0,1,.21.562l-5.843,7.556,9.137,3.92,9.05.5a.353.353,0,0,1-.019.706" transform="translate(-1143.363 -1245.331)" fill="#d3bba3"/>
      <path id="Trazado_731832" data-name="Trazado 731832" d="M859.714,1548.38a.364.364,0,0,1-.07-.007l-8.1-1.639h-9.074a.354.354,0,0,1-.327-.219l-2.928-7.118a.354.354,0,0,1,.15-.44l5.368-3.11a.354.354,0,0,1,.273-.034l7.946,2.246,6.151-2.238a.348.348,0,0,1,.2-.013l6.506,1.464a.353.353,0,0,1,.266.264l1.679,7.18a.353.353,0,0,1-.207.406l-7.7,3.23a.352.352,0,0,1-.137.027m-17.005-2.353h8.872a.373.373,0,0,1,.07.007l8.026,1.625,7.322-3.072-1.56-6.674-6.189-1.393-6.161,2.242a.357.357,0,0,1-.217.008l-7.912-2.236-4.971,2.88Z" transform="translate(-704.419 -1289.415)" fill="#d3bba3"/>
      <path id="Trazado_731833" data-name="Trazado 731833" d="M921.176,1620.9a.353.353,0,0,1-.233-.087l-4.61-4.034a.353.353,0,0,1-.1-.373l1.909-5.977-3.634-2.609a.353.353,0,0,1-.147-.285l-.041-7.549a.353.353,0,0,1,.423-.348l8.133,1.646a.353.353,0,0,1,.241.179l4.388,8.183a.357.357,0,0,1,.041.142l.451,6.334a.354.354,0,0,1-.154.317l-6.466,4.4a.355.355,0,0,1-.2.061m-4.2-4.5,4.23,3.7,6.072-4.132-.431-6.056-4.274-7.971-7.544-1.527.037,6.934,3.7,2.654a.353.353,0,0,1,.131.395Z" transform="translate(-767.508 -1343.022)" fill="#d3bba3"/>
      <path id="Trazado_731834" data-name="Trazado 731834" d="M800.036,1579.586a.354.354,0,0,1-.234-.089l-5.368-4.752a.354.354,0,0,1-.119-.265V1568.6a.353.353,0,0,1,.257-.34l5.7-1.618-5.172-7.768-5.063,5.12a.353.353,0,0,1-.427.058l-6.588-3.782a.354.354,0,0,1-.177-.306v-7.2a.353.353,0,0,1,.293-.348l9.027-1.567a.353.353,0,1,1,.121.7l-8.735,1.516v6.7l6.174,3.545,5.177-5.235a.357.357,0,0,1,.285-.1.353.353,0,0,1,.26.156l5.538,8.318,2.963-.84-.039-7.28a.363.363,0,0,1,.005-.063l1.386-7.95a.353.353,0,1,1,.7.121l-1.381,7.92.04,7.517a.353.353,0,0,1-.257.342l-3,.852,5.056,7.594a.354.354,0,0,1-.088.483l-6.126,4.386a.354.354,0,0,1-.206.066m-5.014-5.265,5.038,4.46,5.619-4.023-4.993-7.5-5.664,1.607Z" transform="translate(-657.104 -1301.352)" fill="#d3bba3"/>
      <path id="Trazado_731835" data-name="Trazado 731835" d="M788.568,1649.709a.352.352,0,0,1-.3-.165l-5.368-8.534a.353.353,0,0,1,.043-.431l6.588-6.953a.353.353,0,0,1,.505-.007l4.88,4.853a.353.353,0,0,1,.1.25v5.882a.353.353,0,0,1-.136.279l-6.1,4.752a.355.355,0,0,1-.217.074m-4.923-8.843,5.014,7.971,5.655-4.406v-5.562l-4.519-4.495Z" transform="translate(-657.103 -1371.474)" fill="#d3bba3"/>
      <path id="Trazado_731836" data-name="Trazado 731836" d="M739.278,1499.836a.354.354,0,0,1-.133-.026l-7.807-3.172a.354.354,0,0,1-.218-.366l.374-3.413-.942-4.709a.353.353,0,0,1,.258-.411l4.476-1.164a.351.351,0,0,1,.364.12l2.562,3.172,1.94,2.586,3.5-4.059a.353.353,0,0,1,.224-.12l4.392-.544a.357.357,0,0,1,.32.13l5.368,6.725a.353.353,0,0,1-.552.441l-5.244-6.571-4.06.5-3.624,4.209-.84,6.361a.353.353,0,0,1-.35.307m-7.427-3.752,7.137,2.9.775-5.87-2.109-2.813-2.411-2.984-3.933,1.022.887,4.435a.352.352,0,0,1,0,.108Z" transform="translate(-613.181 -1248.068)" fill="#d3bba3"/>
      <path id="Trazado_731837" data-name="Trazado 731837" d="M692.975,1575.186a.349.349,0,0,1-.194-.058.353.353,0,0,1-.1-.489l2.928-4.461a.351.351,0,0,1,.367-.152l4.249.885,6.569-4.267-7.185-4.886a.353.353,0,0,1-.009-.578l7.009-5.1-9.263-2.259a.353.353,0,0,1-.209-.145l-3.233-4.758a.354.354,0,0,1,.114-.5l5.429-3.172a.353.353,0,1,1,.356.61l-5.1,2.981,2.944,4.333,9.871,2.407a.353.353,0,0,1,.124.629l-7.219,5.255,7.21,4.9a.354.354,0,0,1-.006.589l-7.136,4.636a.348.348,0,0,1-.265.049l-4.156-.865-2.8,4.26a.354.354,0,0,1-.3.159" transform="translate(-581.334 -1297.303)" fill="#d3bba3"/>
      <path id="Trazado_731838" data-name="Trazado 731838" d="M688.55,1527.59a.353.353,0,0,1-.32-.2l-2.928-6.273a.354.354,0,0,1,.193-.479l5.93-2.285-6.67-2.307a.354.354,0,0,1-.236-.3l-.651-5.9a.354.354,0,0,1,.051-.225l2.55-4.106-1.193-6.147a.355.355,0,0,1,.014-.187l1.525-4.25a.354.354,0,0,1,.266-.228l4.551-.869a.353.353,0,0,1,.133.694l-4.353.831-1.424,3.968,1.2,6.188a.352.352,0,0,1-.047.253l-2.558,4.12.613,5.558,7.373,2.55a.353.353,0,0,1,.012.664l-6.478,2.5,2.768,5.93a.353.353,0,0,1-.32.5" transform="translate(-573.981 -1254.168)" fill="#d3bba3"/>
      <path id="Trazado_731839" data-name="Trazado 731839" d="M855.464,1521.795a.353.353,0,0,1-.019-.706l8.575-.474,8.636-3.705-5.525-7.143a.353.353,0,0,1,.21-.562l8.285-1.667v-6.473l-5.893-5.308-7.375,1.405-2.846,3.952a.353.353,0,0,1-.528.052l-4.823-4.5-6.541-2.129h-8.077a.353.353,0,1,1,0-.706h8.133a.355.355,0,0,1,.109.017l6.669,2.171a.358.358,0,0,1,.132.078l4.586,4.281,2.693-3.741a.354.354,0,0,1,.221-.141l7.686-1.464a.357.357,0,0,1,.3.084l6.14,5.531a.353.353,0,0,1,.117.262v6.92a.353.353,0,0,1-.284.346l-8.011,1.612,5.456,7.054a.353.353,0,0,1-.14.541l-9.113,3.909a.353.353,0,0,1-.12.028l-8.637.478h-.02" transform="translate(-704.419 -1254.169)" fill="#d3bba3"/>
      <path id="Trazado_731840" data-name="Trazado 731840" d="M1080.248,1511.261a.353.353,0,0,1-.144-.031l-13.3-5.937a.353.353,0,0,1-.121-.557l5.27-5.95a.353.353,0,0,1,.264-.119h8.03a.354.354,0,0,1,.305.175l3.467,5.95a.352.352,0,0,1,0,.356l-3.467,5.937a.354.354,0,0,1-.305.175m-12.716-6.417,12.571,5.612,3.2-5.486-3.261-5.6h-7.667Z" transform="translate(-895.388 -1258.233)" fill="#d3bba3"/>
      <path id="Trazado_731841" data-name="Trazado 731841" d="M1160.288,1496.039a.353.353,0,0,1-.165-.041l-6.864-3.617a.351.351,0,0,1-.14-.134l-3.467-5.95a.353.353,0,0,1,.233-.524l11.872-2.461a.353.353,0,0,1,.2.017l6.353,2.461a.353.353,0,0,1,.091.607l-3.56,2.8.771,3.885a.353.353,0,0,1-.187.384l-4.976,2.531a.352.352,0,0,1-.16.038m-6.609-4.236,6.612,3.485,4.575-2.327-.761-3.835a.353.353,0,0,1,.128-.346l3.244-2.556-5.678-2.2-11.289,2.341Z" transform="translate(-965.097 -1245.331)" fill="#d3bba3"/>
      <path id="Trazado_731842" data-name="Trazado 731842" d="M1245.183,1512.23a.353.353,0,0,1-.293-.155l-3.947-5.819a.352.352,0,0,1-.054-.13l-.813-4.1a.352.352,0,0,1,.128-.346l3.73-2.939a.354.354,0,0,1,.325-.059l9.266,2.938a.353.353,0,0,1,.24.4l-1.03,5.288a.354.354,0,0,1-.156.23l-7.207,4.628a.353.353,0,0,1-.191.056m-3.615-6.311,3.713,5.475,6.79-4.36.941-4.831-8.788-2.787-3.413,2.689Zm10.821,1.33h0Z" transform="translate(-1041.068 -1258.234)" fill="#d3bba3"/>
      <path id="Trazado_731843" data-name="Trazado 731843" d="M1003.78,1550.535a.353.353,0,0,1-.137-.028l-8.15-3.418a.353.353,0,1,1,.273-.651l7.938,3.33,6.4-6.02-6.077-7a.353.353,0,0,1,.248-.584l8.018-.417,2.117-5.281a.353.353,0,0,1,.113-.149l5.62-4.291a.354.354,0,0,1,.428,0l5.563,4.236,6.219.95,7.077-4.24a.353.353,0,0,1,.52.2l1.656,5.455,8.839-.721,3.415-5.409-7.2-3.533a.354.354,0,0,1-.191-.385l1.03-5.288a.353.353,0,0,1,.435-.274l6.521,1.695a.353.353,0,1,1-.177.684l-6.157-1.6-.906,4.654,7.307,3.587a.353.353,0,0,1,.143.506l-3.719,5.891a.356.356,0,0,1-.27.164l-9.3.759a.351.351,0,0,1-.367-.25l-1.607-5.294-6.8,4.072a.349.349,0,0,1-.235.046l-6.434-.982a.357.357,0,0,1-.161-.068l-5.42-4.127-5.328,4.068-2.165,5.4a.353.353,0,0,1-.31.221l-7.521.391,5.824,6.7a.354.354,0,0,1-.025.489l-6.812,6.41a.353.353,0,0,1-.242.1" transform="translate(-835.497 -1273.634)" fill="#d3bba3"/>
      <path id="Trazado_731844" data-name="Trazado 731844" d="M1293.457,1629.519a.354.354,0,0,1-.34-.258l-1.886-6.717a.354.354,0,0,1,.165-.4l6.046-3.439,1.383-8.495a.353.353,0,0,1,.526-.249l6.636,3.845a.353.353,0,0,1,.153.432l-2.871,7.53,1.687,4.9,9.919-2.093a.353.353,0,0,1,.146.691l-10.224,2.157h0l-.009,0-11.264,2.093a.38.38,0,0,1-.065.006m-1.471-6.9,1.724,6.141,10.546-1.959-1.7-4.926a.351.351,0,0,1,0-.241l2.81-7.369-5.933-3.437-1.328,8.155a.352.352,0,0,1-.174.25Z" transform="translate(-1084.021 -1351.653)" fill="#d3bba3"/>
      <path id="Trazado_731845" data-name="Trazado 731845" d="M1212.925,1623.945a.352.352,0,0,1-.25-.1l-4.962-4.965a.353.353,0,0,1-.1-.181l-1.134-5.754a.354.354,0,0,1,.023-.21l2.956-6.753a.353.353,0,0,1,.379-.207l8.924,1.423a.353.353,0,0,1,.28.458l-1.832,5.616,3.491,5.51a.353.353,0,0,1-.113.49l-7.482,4.625a.352.352,0,0,1-.185.053m-4.636-5.492,4.688,4.692,6.94-4.29-3.389-5.348a.353.353,0,0,1-.037-.3l1.755-5.381-8.246-1.314-2.8,6.4Z" transform="translate(-1012.857 -1348.172)" fill="#d3bba3"/>
      <path id="Trazado_731846" data-name="Trazado 731846" d="M1108.965,1637.455a.355.355,0,0,1-.12-.021l-7.821-2.837a.353.353,0,0,1,.241-.664l7.751,2.812,9.038-.587a.353.353,0,0,1,.046.705l-9.112.592h-.023" transform="translate(-924.105 -1371.808)" fill="#d3bba3"/>
      <path id="Trazado_731847" data-name="Trazado 731847" d="M1098.773,1662.444a.352.352,0,0,1-.168-.042l-9.766-5.283a.353.353,0,0,1,.011-.627l9.765-4.844a.353.353,0,0,1,.314.633l-9.155,4.541,9.007,4.873,10.084-4.886a.353.353,0,0,1,.308.636l-10.246,4.965a.355.355,0,0,1-.154.035" transform="translate(-913.913 -1386.671)" fill="#d3bba3"/>
      <path id="Trazado_731848" data-name="Trazado 731848" d="M854.073,1232.1s-14.365-4.007-22.3-3.95c-9.4.067-18.488,4.345-29.2,4.345-8.04,0-17.037-3.373-25.839-3.16-7.074.171-21.094,2.627-28.169,2.765-8.163.159-24.435-2.042-32.6-1.975-6.431.052-19.223,1.728-25.65,1.975-3.038.117-12.16,0-12.16,0V1184.22H854.073Z" transform="translate(-569.186 -994.166)" fill="#363e44"/>
      <path id="Trazado_731849" data-name="Trazado 731849" d="M854.073,979.778s-7.758,1.455-12.353,1.185c-5.533-.325-9.946-2.169-19.347-1.975-9,.186-14.1,4.116-24.561,3.95-10.132-.161-13.786-5.387-23.181-5.53-10.939-.167-20.411,7.429-28.4,7.429-6.729,0-11.779-6.006-20.137-6.244-8.725-.248-17.651,5.53-26.268,5.135-8.885-.407-21.663-3.95-21.663-3.95V937.669H854.073Z" transform="translate(-569.186 -787.118)" fill="#efbc73"/>
      <path id="Trazado_731850" data-name="Trazado 731850" d="M854.073,928.974H843.74c-2.606,0-6.177-2.038-10.424-1.975-4.633.068-10.3,3.163-15.444,3.16-6.231,0-14.028-3.607-20.061-3.555-5.269.045-13.973,4.345-21.076,4.345-9.049,0-17.771-5.655-28.169-5.53-8.685.1-15.891,3.523-24.371,3.555-6.193.024-9.517-1.91-14.815-1.975-4.941-.06-8.492,1.946-13.417,1.975-3.957.024-5.649-3.746-10.52-3.95-3.446-.144-7.287,3.95-7.287,3.95v-15.96H854.073Z" transform="translate(-569.186 -766.414)" fill="#84524d"/>
      <path id="Trazado_731851" data-name="Trazado 731851" d="M702.376,929.768c-.342.454-1.182.4-1.876-.123s-.98-1.314-.638-1.768,1.182-.4,1.876.123.979,1.314.638,1.768" transform="translate(-587.293 -778.637)" fill="#b77250"/>
      <path id="Trazado_731852" data-name="Trazado 731852" d="M852.717,969.5a.518.518,0,1,1-.518-.518.518.518,0,0,1,.518.518" transform="translate(-714.908 -813.414)" fill="#b77250"/>
      <path id="Trazado_731853" data-name="Trazado 731853" d="M979.976,936.724a1.331,1.331,0,1,1-1.331-1.331,1.331,1.331,0,0,1,1.331,1.331" transform="translate(-820.411 -785.207)" fill="#b77250"/>
      <path id="Trazado_731854" data-name="Trazado 731854" d="M1139.974,950.437c.195.238-.033.747-.51,1.137s-1.021.515-1.215.277.033-.747.51-1.137,1.02-.515,1.215-.277" transform="translate(-955.503 -797.739)" fill="#b77250"/>
      <path id="Trazado_731855" data-name="Trazado 731855" d="M1298.678,984.756a1.169,1.169,0,1,1-1.169-1.169,1.169,1.169,0,0,1,1.169,1.169" transform="translate(-1088.322 -825.679)" fill="#b77250"/>
      <path id="Trazado_731856" data-name="Trazado 731856" d="M1371.5,930a1.03,1.03,0,1,1-1.03-1.03,1.03,1.03,0,0,1,1.03,1.03" transform="translate(-1149.711 -779.811)" fill="#b77250"/>
      <path id="Trazado_731857" data-name="Trazado 731857" d="M1529.532,984.865c-.281.581-1.2.718-2.054.305s-1.317-1.218-1.036-1.8,1.2-.718,2.054-.305,1.317,1.219,1.036,1.8" transform="translate(-1281.489 -825.041)" fill="#b77250"/>
      <path id="Trazado_731858" data-name="Trazado 731858" d="M1586.505,935.516c.077.359-.467.781-1.216.943s-1.418,0-1.5-.359.467-.782,1.216-.943,1.418,0,1.5.359" transform="translate(-1329.714 -784.957)" fill="#b77250"/>
      <path id="Trazado_731859" data-name="Trazado 731859" d="M1709.547,943.191a1.373,1.373,0,1,1-1.373-1.373,1.373,1.373,0,0,1,1.373,1.373" transform="translate(-1433.019 -790.603)" fill="#b77250"/>
      <path id="Trazado_731860" data-name="Trazado 731860" d="M850.163,809.257H673.853a.353.353,0,0,1-.353-.353V632.594a.353.353,0,0,1,.353-.353H850.163a.353.353,0,0,1,.353.353V808.9a.353.353,0,0,1-.353.353m-175.956-.706h175.6v-175.6h-175.6Z" transform="translate(-565.276 -530.627)" fill="#fff"/>
      <path id="Trazado_731861" data-name="Trazado 731861" d="M784.938,1074.24h-.095a13.468,13.468,0,0,1-5.494-1.448c-4.052-1.961-6.469-5.061-5.5-7.058s4.9-2.026,8.95-.066a13.471,13.471,0,0,1,4.546,3.409c1.1,1.356,1.439,2.652.957,3.649-.473.979-1.665,1.515-3.361,1.515m-7.754-9.315c-1.336,0-2.341.369-2.7,1.116-.767,1.586,1.6,4.386,5.175,6.114a12.753,12.753,0,0,0,5.195,1.378c1.434.007,2.46-.39,2.811-1.116s.034-1.781-.87-2.9a14.087,14.087,0,0,0-9.608-4.6" transform="translate(-649.366 -893.39)" fill="#b77250"/>
      <path id="Trazado_731862" data-name="Trazado 731862" d="M999.277,1104.6a2.673,2.673,0,1,1-2.673-2.673,2.673,2.673,0,0,1,2.673,2.673" transform="translate(-834.367 -925.062)" fill="#84524d"/>
      <path id="Trazado_731863" data-name="Trazado 731863" d="M1157.217,1065.1c0,.951-1.211,1.722-2.7,1.722s-2.7-.771-2.7-1.722,1.211-1.721,2.7-1.721,2.7.771,2.7,1.721" transform="translate(-966.949 -892.684)" fill="#84524d"/>
      <path id="Trazado_731864" data-name="Trazado 731864" d="M1322.812,1125.075a5.686,5.686,0,0,1-1.85-.29,2.636,2.636,0,0,1-1.89-1.835c-.357-1.659,1.407-3.4,4.017-3.96a6.46,6.46,0,0,1,3.4.12,2.636,2.636,0,0,1,1.89,1.835c.357,1.659-1.407,3.4-4.017,3.96a7.4,7.4,0,0,1-1.551.169m1.831-5.548a6.7,6.7,0,0,0-1.4.154c-2.148.463-3.74,1.892-3.475,3.121a1.97,1.97,0,0,0,1.43,1.316,5.729,5.729,0,0,0,3.021.1c2.148-.463,3.739-1.891,3.475-3.121a1.97,1.97,0,0,0-1.43-1.316,4.965,4.965,0,0,0-1.617-.251" transform="translate(-1107.374 -939.246)" fill="#b77250"/>
      <path id="Trazado_731865" data-name="Trazado 731865" d="M1529.79,1064.472a9.839,9.839,0,0,1-2.133-.251,8.616,8.616,0,0,1-2.941-1.206c-.837-.581-1.223-1.23-1.089-1.828s.762-1.019,1.768-1.185a9.535,9.535,0,0,1,6.115,1.377c.837.581,1.223,1.23,1.089,1.828s-.763,1.02-1.767,1.185a6.421,6.421,0,0,1-1.042.079m-3.351-3.844a5.742,5.742,0,0,0-.929.07c-.682.113-1.128.353-1.193.643s.234.7.8,1.093a8.844,8.844,0,0,0,5.6,1.261c.682-.113,1.128-.353,1.193-.643s-.234-.7-.8-1.093a7.893,7.893,0,0,0-2.694-1.1,9.113,9.113,0,0,0-1.975-.234" transform="translate(-1279.172 -889.784)" fill="#b77250"/>
      <path id="Trazado_731866" data-name="Trazado 731866" d="M1687.086,1137c0,.941-1.208,1.7-2.7,1.7s-2.7-.762-2.7-1.7,1.208-1.7,2.7-1.7,2.7.762,2.7,1.7" transform="translate(-1411.931 -953.079)" fill="#84524d"/>
      <path id="Trazado_731867" data-name="Trazado 731867" d="M784.151,1300.334a1.877,1.877,0,1,1-1.877-1.877,1.877,1.877,0,0,1,1.877,1.877" transform="translate(-655.045 -1090.1)" fill="#b77250"/>
      <path id="Trazado_731868" data-name="Trazado 731868" d="M903.839,1247.189a1.21,1.21,0,1,1-1.21-1.21,1.21,1.21,0,0,1,1.21,1.21" transform="translate(-756.677 -1046.03)" fill="#b77250"/>
      <path id="Trazado_731869" data-name="Trazado 731869" d="M951.8,1367.56a1.63,1.63,0,1,1-1.63-1.63,1.63,1.63,0,0,1,1.63,1.63" transform="translate(-796.25 -1146.762)" fill="#b77250"/>
      <path id="Trazado_731870" data-name="Trazado 731870" d="M760.35,1443.726a.686.686,0,1,1-.686-.686.686.686,0,0,1,.686.686" transform="translate(-637.057 -1211.518)" fill="#b77250"/>
      <path id="Trazado_731871" data-name="Trazado 731871" d="M1105.9,1422a1.452,1.452,0,1,1-1.452-1.452A1.452,1.452,0,0,1,1105.9,1422" transform="translate(-925.957 -1192.631)" fill="#b77250"/>
      <path id="Trazado_731872" data-name="Trazado 731872" d="M1115.32,1287.236a1.63,1.63,0,1,1-1.63-1.63,1.63,1.63,0,0,1,1.63,1.63" transform="translate(-933.569 -1079.308)" fill="#b77250"/>
      <path id="Trazado_731873" data-name="Trazado 731873" d="M1297.194,1350.412a1.886,1.886,0,1,1-1.886-1.886,1.886,1.886,0,0,1,1.886,1.886" transform="translate(-1085.872 -1132.147)" fill="#b77250"/>
      <path id="Trazado_731874" data-name="Trazado 731874" d="M1450.28,1273.367a1.952,1.952,0,1,1-1.952-1.952,1.952,1.952,0,0,1,1.952,1.952" transform="translate(-1214.32 -1067.391)" fill="#b77250"/>
      <path id="Trazado_731875" data-name="Trazado 731875" d="M1495.746,1411.515a2.746,2.746,0,1,1-2.745-2.746,2.746,2.746,0,0,1,2.745,2.746" transform="translate(-1251.168 -1182.738)" fill="#b77250"/>
      <path id="Trazado_731876" data-name="Trazado 731876" d="M1628.071,1323.368a1.484,1.484,0,1,1-1.484-1.483,1.483,1.483,0,0,1,1.484,1.483" transform="translate(-1364.411 -1109.775)" fill="#b77250"/>
      <path id="Trazado_731877" data-name="Trazado 731877" d="M1741.948,1246.583a.6.6,0,1,1-.6-.605.6.6,0,0,1,.6.605" transform="translate(-1461.518 -1046.03)" fill="#b77250"/>
      <path id="Trazado_731878" data-name="Trazado 731878" d="M1725.389,1421.276a.726.726,0,1,1-.726-.726.726.726,0,0,1,.726.726" transform="translate(-1447.409 -1192.631)" fill="#b77250"/>
      <path id="Trazado_731879" data-name="Trazado 731879" d="M246.716,1504.323H227.5l-4.033-50.918h23.923Z" transform="translate(-187.346 -1220.222)" fill="#e2a18d"/>
      <path id="Trazado_731880" data-name="Trazado 731880" d="M271.929,1732.159H233.123l1.766-15.33h19.943c8.467,0,17.1,6.864,17.1,15.33" transform="translate(-195.457 -1441.439)" fill="#e6d0be"/>
      <path id="Trazado_731881" data-name="Trazado 731881" d="M354.218,1718.894a.353.353,0,0,1-.25-.6l2.957-2.956a.353.353,0,0,1,.5.5l-2.956,2.956a.352.352,0,0,1-.25.1" transform="translate(-296.853 -1440.098)" fill="#363e44"/>
      <path id="Trazado_731882" data-name="Trazado 731882" d="M377.4,1722.983a.353.353,0,0,1-.25-.6l2.957-2.956a.353.353,0,0,1,.5.5l-2.956,2.956a.351.351,0,0,1-.25.1" transform="translate(-316.321 -1443.532)" fill="#363e44"/>
      <path id="Trazado_731883" data-name="Trazado 731883" d="M512.752,1499.437l-18.582,3.274-11.045-43.5,23.58-4.038Z" transform="translate(-405.404 -1221.707)" fill="#e2a18d"/>
      <path id="Trazado_731884" data-name="Trazado 731884" d="M566.794,1732.16h-37.04l2.119-15.33h19.59c8.467,0,17.45,6.864,17.45,15.33Z" transform="translate(-444.561 -1441.44)" fill="#e6d0be"/>
      <path id="Trazado_731885" data-name="Trazado 731885" d="M653.052,1718.894a.353.353,0,0,1-.25-.6l2.956-2.956a.353.353,0,0,1,.5.5l-2.956,2.956a.352.352,0,0,1-.25.1" transform="translate(-547.807 -1440.098)" fill="#363e44"/>
      <path id="Trazado_731886" data-name="Trazado 731886" d="M674.029,1720.778a.353.353,0,0,1-.25-.6l2.956-2.956a.353.353,0,0,1,.5.5l-2.956,2.956a.351.351,0,0,1-.25.1" transform="translate(-565.423 -1441.68)" fill="#363e44"/>
      <path id="Trazado_731887" data-name="Trazado 731887" d="M170,927.928c-4.958,13.218-8.408,18.614-8.8,33.4-.167,6.385,1.177,24.006,3.111,42.516.322,3.086-2.9,16.427-6.009,39.839h40.537c-1.826-12.859-5.646-41.291-5.646-41.291-.22-11.113-.359-21.815-.044-30.222,2.513,7.921,6.013,18.824,9.685,30.031,0,0,2.5,25.369,2.5,41.252,8.761,0,31.782-.1,40.543-.1-6.907-24.81-8.948-36.835-13.265-50.042-2.52-7.709-16.909-52.608-23.964-66.329-14.587.254-25.537.857-38.654.943" transform="translate(-132.624 -778.146)" fill="#8b865c"/>
      <path id="Trazado_731888" data-name="Trazado 731888" d="M702.083,1656.065a.353.353,0,0,1-.334-.237l-1.489-4.273a.353.353,0,1,1,.667-.232l1.489,4.273a.353.353,0,0,1-.334.469" transform="translate(-587.732 -1386.23)" fill="#776e42"/>
      <path id="Trazado_731889" data-name="Trazado 731889" d="M681.886,1655.714a.353.353,0,0,1-.339-.255l-1.136-3.919a.353.353,0,1,1,.679-.2l1.136,3.919a.353.353,0,0,1-.241.438.362.362,0,0,1-.1.014" transform="translate(-571.068 -1386.232)" fill="#776e42"/>
      <path id="Trazado_731890" data-name="Trazado 731890" d="M659.485,1655.711a.353.353,0,0,1-.346-.284l-.782-3.919a.353.353,0,0,1,.693-.138l.782,3.92a.353.353,0,0,1-.277.415.338.338,0,0,1-.07.007" transform="translate(-552.553 -1386.229)" fill="#776e42"/>
      <path id="Trazado_731891" data-name="Trazado 731891" d="M637.083,1655.006a.353.353,0,0,1-.35-.306l-.429-3.213a.353.353,0,1,1,.7-.094l.429,3.213a.353.353,0,0,1-.3.4.39.39,0,0,1-.047,0" transform="translate(-534.036 -1386.23)" fill="#776e42"/>
      <path id="Trazado_731892" data-name="Trazado 731892" d="M612.83,1655.006a.353.353,0,0,1-.35-.306l-.429-3.213a.353.353,0,1,1,.7-.094l.429,3.213a.353.353,0,0,1-.3.4.387.387,0,0,1-.047,0" transform="translate(-513.67 -1386.23)" fill="#776e42"/>
      <path id="Trazado_731893" data-name="Trazado 731893" d="M442.63,1656.064a.353.353,0,0,1-.334-.469l1.489-4.273a.353.353,0,1,1,.667.233l-1.489,4.273a.354.354,0,0,1-.334.237" transform="translate(-371.1 -1386.229)" fill="#776e42"/>
      <path id="Trazado_731894" data-name="Trazado 731894" d="M464.678,1655.713a.363.363,0,0,1-.1-.014.353.353,0,0,1-.241-.437l1.136-3.92a.353.353,0,1,1,.679.2l-1.136,3.919a.353.353,0,0,1-.339.255" transform="translate(-389.615 -1386.231)" fill="#776e42"/>
      <path id="Trazado_731895" data-name="Trazado 731895" d="M488.931,1655.712a.33.33,0,0,1-.07-.007.353.353,0,0,1-.277-.415l.782-3.92a.353.353,0,0,1,.693.138l-.782,3.919a.354.354,0,0,1-.346.284" transform="translate(-409.982 -1386.23)" fill="#776e42"/>
      <path id="Trazado_731896" data-name="Trazado 731896" d="M513.184,1655.006a.388.388,0,0,1-.047,0,.353.353,0,0,1-.3-.4l.429-3.213a.353.353,0,1,1,.7.094l-.429,3.213a.353.353,0,0,1-.35.306" transform="translate(-430.349 -1386.23)" fill="#776e42"/>
      <path id="Trazado_731897" data-name="Trazado 731897" d="M537.438,1655.006a.386.386,0,0,1-.047,0,.353.353,0,0,1-.3-.4l.429-3.213a.353.353,0,1,1,.7.094l-.429,3.213a.353.353,0,0,1-.35.306" transform="translate(-450.717 -1386.23)" fill="#776e42"/>
      <path id="Trazado_731898" data-name="Trazado 731898" d="M559.568,1655.3a.353.353,0,0,1-.353-.353V1651.8a.353.353,0,0,1,.707,0v3.156a.353.353,0,0,1-.353.353" transform="translate(-469.302 -1386.529)" fill="#776e42"/>
      <path id="Trazado_731899" data-name="Trazado 731899" d="M583.821,1655.3a.353.353,0,0,1-.353-.353V1651.8a.353.353,0,0,1,.707,0v3.156a.353.353,0,0,1-.353.353" transform="translate(-489.669 -1386.529)" fill="#776e42"/>
      <path id="Trazado_731900" data-name="Trazado 731900" d="M408.842,1656.065a.353.353,0,0,1-.334-.237l-1.489-4.273a.353.353,0,1,1,.667-.232l1.489,4.273a.353.353,0,0,1-.334.469" transform="translate(-341.475 -1386.23)" fill="#776e42"/>
      <path id="Trazado_731901" data-name="Trazado 731901" d="M388.645,1655.714a.354.354,0,0,1-.339-.255l-1.136-3.919a.353.353,0,1,1,.679-.2l1.136,3.919a.353.353,0,0,1-.241.438.363.363,0,0,1-.1.014" transform="translate(-324.811 -1386.232)" fill="#776e42"/>
      <path id="Trazado_731902" data-name="Trazado 731902" d="M366.244,1655.711a.353.353,0,0,1-.346-.284l-.782-3.919a.353.353,0,0,1,.693-.138l.782,3.92a.353.353,0,0,1-.277.415.339.339,0,0,1-.07.007" transform="translate(-306.296 -1386.229)" fill="#776e42"/>
      <path id="Trazado_731903" data-name="Trazado 731903" d="M343.841,1655.006a.353.353,0,0,1-.35-.306l-.429-3.213a.353.353,0,1,1,.7-.094l.429,3.213a.353.353,0,0,1-.3.4.386.386,0,0,1-.047,0" transform="translate(-287.779 -1386.23)" fill="#776e42"/>
      <path id="Trazado_731904" data-name="Trazado 731904" d="M319.589,1655.006a.353.353,0,0,1-.35-.306l-.429-3.213a.353.353,0,1,1,.7-.094l.429,3.213a.353.353,0,0,1-.3.4.385.385,0,0,1-.047,0" transform="translate(-267.412 -1386.23)" fill="#776e42"/>
      <path id="Trazado_731905" data-name="Trazado 731905" d="M149.389,1656.064a.353.353,0,0,1-.334-.469l1.489-4.273a.353.353,0,1,1,.667.233l-1.489,4.273a.354.354,0,0,1-.334.237" transform="translate(-124.843 -1386.229)" fill="#776e42"/>
      <path id="Trazado_731906" data-name="Trazado 731906" d="M171.437,1655.713a.362.362,0,0,1-.1-.014.353.353,0,0,1-.241-.437l1.136-3.92a.353.353,0,1,1,.679.2l-1.136,3.919a.354.354,0,0,1-.339.255" transform="translate(-143.358 -1386.231)" fill="#776e42"/>
      <path id="Trazado_731907" data-name="Trazado 731907" d="M195.69,1655.712a.331.331,0,0,1-.07-.007.353.353,0,0,1-.277-.415l.782-3.92a.353.353,0,0,1,.693.138l-.782,3.919a.353.353,0,0,1-.346.284" transform="translate(-163.725 -1386.23)" fill="#776e42"/>
      <path id="Trazado_731908" data-name="Trazado 731908" d="M219.944,1655.006a.386.386,0,0,1-.047,0,.353.353,0,0,1-.3-.4l.429-3.213a.353.353,0,1,1,.7.094l-.429,3.213a.353.353,0,0,1-.35.306" transform="translate(-184.093 -1386.23)" fill="#776e42"/>
      <path id="Trazado_731909" data-name="Trazado 731909" d="M244.2,1655.006a.386.386,0,0,1-.047,0,.353.353,0,0,1-.3-.4l.429-3.213a.353.353,0,1,1,.7.094l-.429,3.213a.353.353,0,0,1-.35.306" transform="translate(-204.46 -1386.23)" fill="#776e42"/>
      <path id="Trazado_731910" data-name="Trazado 731910" d="M266.327,1655.3a.353.353,0,0,1-.353-.353V1651.8a.353.353,0,0,1,.707,0v3.156a.353.353,0,0,1-.353.353" transform="translate(-223.045 -1386.529)" fill="#776e42"/>
      <path id="Trazado_731911" data-name="Trazado 731911" d="M290.58,1655.3a.353.353,0,0,1-.353-.353V1651.8a.353.353,0,0,1,.707,0v3.156a.353.353,0,0,1-.353.353" transform="translate(-243.412 -1386.529)" fill="#776e42"/>
      <path id="Trazado_731912" data-name="Trazado 731912" d="M373.939,1150.586a.327.327,0,0,1-.044,0,.353.353,0,0,1-.308-.394l1.338-10.86a.353.353,0,0,1,.7.086l-1.338,10.86a.353.353,0,0,1-.35.31" transform="translate(-313.414 -956.208)" fill="#776e42"/>
      <path id="Trazado_731913" data-name="Trazado 731913" d="M43.172,695.5c-2.191-14.952,21.358-34.78,49.627-36.144,14.886-.718,35.933,10.884,35.933,10.884l5.077-12.25,15.783,12.836s-9.289,22.846-15.783,25.026c-5.973,2.005-18.744-9.549-18.744-9.549v20.943l-44.3-4.575-2.092-17.008,12.757,2.1L72.2,708.949S44.473,704.372,43.172,695.5" transform="translate(-35.822 -552.25)" fill="#ffd092"/>
      <path id="Trazado_731914" data-name="Trazado 731914" d="M609.6,579.794s1.55-4.1,1.961-5.11a6.421,6.421,0,0,1,.889-1.6c1.894-2.459,4.472-1.878,7.643-3.555,3.6-1.9,4.547-5.011,5.51-4.621.67.271.643,1.544-.355,3.909h0c.965-1.71,2.374-3.971,3.317-3.436,1.056.677-.288,3.529-1.185,5.214,1.086-2.04,2.274-2.8,2.726-2.37.711.677.237,2.455-1.3,5.1h0c1.573-1.526,2.182-1.662,2.488-1.185.56.871-.747,3.018-2.194,4.739a12.978,12.978,0,0,1-4.8,3.437h0c-.955,3.441-2.581,9.333-2.581,9.333Z" transform="translate(-511.618 -474.054)" fill="#e2a18d"/>
      <path id="Trazado_731915" data-name="Trazado 731915" d="M564.747,738.81a.354.354,0,0,1-.338-.457c.345-1.117.6-2,.831-2.786.365-1.255.629-2.161.99-3.1a.353.353,0,0,1,.66.253c-.35.913-.61,1.808-.971,3.047-.228.784-.487,1.674-.834,2.8a.354.354,0,0,1-.337.249" transform="translate(-473.65 -614.602)" fill="#363e44"/>
      <path id="Trazado_731916" data-name="Trazado 731916" d="M629.417,578.016c1.229-3.835.86-5.479.246-5.654-1.032-.295-3.422,2.55-5.925,7.928,1.639-.492,4.04-1.782,5.679-2.274" transform="translate(-523.487 -480.324)" fill="#e2a18d"/>
      <path id="Trazado_731917" data-name="Trazado 731917" d="M660.705,629.138a.353.353,0,0,1-.336-.461,5.52,5.52,0,0,1,1.786-2.626,5.654,5.654,0,0,1,3.832-1.209.353.353,0,0,1,.332.373.357.357,0,0,1-.374.332A4.963,4.963,0,0,0,662.6,626.6a4.813,4.813,0,0,0-1.557,2.291.354.354,0,0,1-.336.246" transform="translate(-554.234 -524.406)" fill="#363e44"/>
      <path id="Trazado_731918" data-name="Trazado 731918" d="M635.7,600.116a.353.353,0,0,1-.17-.663,11.605,11.605,0,0,1,2.624-.929c.426-.114.867-.232,1.321-.375a.353.353,0,1,1,.212.674c-.468.147-.917.267-1.35.384a11.09,11.09,0,0,0-2.468.866.349.349,0,0,1-.169.043" transform="translate(-533.234 -501.984)" fill="#363e44"/>
      <path id="Trazado_731919" data-name="Trazado 731919" d="M688.425,590.5a.353.353,0,0,1-.178-.658,7.6,7.6,0,0,0,2.49-2.334.353.353,0,1,1,.586.395,8.3,8.3,0,0,1-2.721,2.55.351.351,0,0,1-.177.048" transform="translate(-577.512 -492.926)" fill="#363e44"/>
      <path id="Trazado_731920" data-name="Trazado 731920" d="M702.554,599.914a.353.353,0,0,1-.178-.658,7.6,7.6,0,0,0,2.49-2.334.353.353,0,1,1,.587.394,8.3,8.3,0,0,1-2.721,2.55.354.354,0,0,1-.177.048" transform="translate(-589.377 -500.835)" fill="#363e44"/>
      <path id="Trazado_731921" data-name="Trazado 731921" d="M711.031,618.753a.353.353,0,0,1-.178-.659,7.6,7.6,0,0,0,2.49-2.334.353.353,0,0,1,.586.395,8.309,8.309,0,0,1-2.721,2.55.354.354,0,0,1-.177.048" transform="translate(-596.496 -516.656)" fill="#363e44"/>
      <path id="Trazado_731922" data-name="Trazado 731922" d="M385.7,552.912h0l-7.381-.045a.353.353,0,0,1,0-.707h0l7.381.045a.353.353,0,0,1,0,.707" transform="translate(-317.092 -463.378)" fill="#8b865c"/>
      <path id="Trazado_731923" data-name="Trazado 731923" d="M302.006,502.793c.375-.2,3.99-2.039,7.293-.406,2.458,1.215,3.662,3.576,5.083,7.841,1.673,5.022,1.972,8.258.961,9.8-1.6,2.436-9.655,1.761-13.91-1.478a10.635,10.635,0,0,1-3.833-10.219,7.981,7.981,0,0,1,4.405-5.538" transform="translate(-249.471 -421.015)" fill="#e2a18d"/>
      <path id="Trazado_731924" data-name="Trazado 731924" d="M333,593.534H327.72a2.046,2.046,0,0,1-2.046-2.046V572.654a2.046,2.046,0,0,1,2.046-2.046H333a2.046,2.046,0,0,1,2.046,2.046v18.834A2.046,2.046,0,0,1,333,593.534" transform="translate(-273.179 -478.869)" fill="#e2a18d"/>
      <path id="Trazado_731925" data-name="Trazado 731925" d="M400.472,541.18a2.087,2.087,0,0,1-1.3-.506.353.353,0,0,1,.442-.551,1.313,1.313,0,0,0,1.049.333,1.485,1.485,0,0,0,1-1.058,4.8,4.8,0,0,0-.874-4.441,1.261,1.261,0,0,0-2.336.459,4.411,4.411,0,0,0-.119,2.33.353.353,0,0,1-.693.137,5.12,5.12,0,0,1,.149-2.711,1.951,1.951,0,0,1,3.52-.692,5.5,5.5,0,0,1,1.015,5.163,2.153,2.153,0,0,1-1.532,1.507,1.7,1.7,0,0,1-.325.032" transform="translate(-333.524 -447.817)" fill="#8b865c"/>
      <path id="Trazado_731926" data-name="Trazado 731926" d="M330.493,608.552a19.112,19.112,0,0,1-10.2-3.345.353.353,0,1,1,.428-.562,18.166,18.166,0,0,0,10.037,3.2.353.353,0,0,1,.018.706c-.092,0-.185,0-.279,0" transform="translate(-268.54 -507.392)" fill="#363e44"/>
      <path id="Trazado_731927" data-name="Trazado 731927" d="M346.757,557.767a6.872,6.872,0,0,1,2.739-1.245c.334-.063.211,2.728-.135,2.637a6.886,6.886,0,0,1-2.6-1.393" transform="translate(-290.884 -467.039)" fill="#fff"/>
      <path id="Trazado_731928" data-name="Trazado 731928" d="M362.728,555.98a4.829,4.829,0,0,0-1.046.088,2.7,2.7,0,0,0-.139,2.635,4.87,4.87,0,0,0,1.1.164,6.462,6.462,0,0,0,3.788-1.331,6.461,6.461,0,0,0-3.7-1.556" transform="translate(-303.068 -466.583)" fill="#373e44"/>
      <path id="Trazado_731929" data-name="Trazado 731929" d="M384.355,588.71a1.306,1.306,0,0,1-.514-.1,1.435,1.435,0,0,1-.809-1.1.353.353,0,0,1,.7-.09.735.735,0,0,0,.386.543.684.684,0,0,0,.787-.22.353.353,0,1,1,.546.448,1.427,1.427,0,0,1-1.1.526" transform="translate(-321.344 -492.724)" fill="#363e44"/>
      <path id="Trazado_731930" data-name="Trazado 731930" d="M399.687,562.581a.353.353,0,0,1-.268-.583c.327-.383.372-.6.347-.661-.012-.03-.079-.071-.187-.135a2.592,2.592,0,0,1-.5-.358,2.4,2.4,0,0,1-.619-.984.353.353,0,0,1,.669-.228,1.7,1.7,0,0,0,.435.7,1.89,1.89,0,0,0,.37.263.983.983,0,0,1,.489.492c.146.382-.008.83-.47,1.372a.353.353,0,0,1-.269.124" transform="translate(-334.289 -469.45)" fill="#363e44"/>
      <path id="Trazado_731931" data-name="Trazado 731931" d="M243.014,488.42a7.157,7.157,0,0,0-6.254,1.186,7.565,7.565,0,0,0-7.19,1.418c-2.412,2.481-2.912,5.076-3.89,8.479-.7,2.423-2.886,5.529-3.625,7.894-.843,2.7-.459,7.96-.843,10.807-.265,1.963-1.861,5.845-3.833,6.357a13.228,13.228,0,0,0,4.437,3.693,6.131,6.131,0,0,0,2.381-2.164c1.042-1.993.927-5.531.961-6a25.105,25.105,0,0,1,.422,6.8,4.97,4.97,0,0,1-1.389,2.5,13.117,13.117,0,0,0,3.335.9c3.6.383,7.19.757,10.858-1.827-5.785-2.925-2.131-9.57-2.354-13.909-.179-3.484-1.747-9.694-1.431-12.239.188-1.518,2.463-1.12,1.943-6.413l1.2,2.08a14.365,14.365,0,0,0,4.49-1.2c.149-.068.294-.138.437-.209a4.167,4.167,0,0,0-.145-1.762,4.237,4.237,0,0,0-1.533-2.153,3.913,3.913,0,0,1,2.3,1.058,3.813,3.813,0,0,1,1.053,1.88,14.82,14.82,0,0,0,3.473-3.3,7.118,7.118,0,0,0-4.805-3.869" transform="translate(-182.235 -409.619)" fill="#84524d"/>
      <path id="Trazado_731932" data-name="Trazado 731932" d="M330.7,561.212a.368.368,0,0,1-.06-.005l-6.5-1.114a.353.353,0,1,1,.119-.7l6.5,1.114a.353.353,0,0,1-.059.7" transform="translate(-271.648 -469.45)" fill="#8b865c"/>
      <path id="Trazado_731933" data-name="Trazado 731933" d="M318.269,563.473a2.856,2.856,0,1,1-4.36-.16,3.107,3.107,0,0,1,4.36.16" transform="translate(-262.758 -472.056)" fill="#e2a18d"/>
      <path id="Trazado_731934" data-name="Trazado 731934" d="M321.855,573.705a.352.352,0,0,1-.19-.056,2.393,2.393,0,0,1-.319-.245,1.931,1.931,0,0,1-.312-2.7,1.587,1.587,0,0,1,.607-.414.353.353,0,1,1,.255.659.89.89,0,0,0-.34.231,1.232,1.232,0,0,0,.265,1.7,1.661,1.661,0,0,0,.225.172.353.353,0,0,1-.191.651" transform="translate(-268.931 -478.585)" fill="#363e44"/>
      <path id="Trazado_731935" data-name="Trazado 731935" d="M366.7,550a2.3,2.3,0,0,1-1.662-.847,5.5,5.5,0,0,1-1.016-5.163,1.951,1.951,0,0,1,3.52-.692,5.5,5.5,0,0,1,1.016,5.163,2.153,2.153,0,0,1-1.532,1.507,1.7,1.7,0,0,1-.326.032m-.824-6.841a.959.959,0,0,0-.186.018,1.484,1.484,0,0,0-1,1.058,4.8,4.8,0,0,0,.874,4.441,1.261,1.261,0,0,0,2.336-.46,4.8,4.8,0,0,0-.874-4.441,1.625,1.625,0,0,0-1.145-.617" transform="translate(-305.164 -455.224)" fill="#8b865c"/>
      <path id="Trazado_731936" data-name="Trazado 731936" d="M390.452,559.326a.353.353,0,0,1-.09-.695l1.337-.354a.353.353,0,0,1,.181.683l-1.337.354a.364.364,0,0,1-.091.012" transform="translate(-327.282 -468.503)" fill="#8b865c"/>
      <path id="Trazado_731937" data-name="Trazado 731937" d="M354.19,883.25a.353.353,0,0,1-.3-.538l2.76-4.5a.353.353,0,0,1,.6.369l-2.76,4.5a.353.353,0,0,1-.3.169" transform="translate(-296.83 -737.043)" fill="#363e44"/>
      <path id="Trazado_731938" data-name="Trazado 731938" d="M344.452,877.237a.353.353,0,0,1-.3-.538l2.76-4.5a.353.353,0,0,1,.6.369l-2.76,4.5a.353.353,0,0,1-.3.169" transform="translate(-288.652 -731.993)" fill="#363e44"/>
      <path id="Trazado_731939" data-name="Trazado 731939" d="M301.116,880.434a3,3,0,0,1-2.535-4.591l8.294-13.219a1.5,1.5,0,0,1,2.068-.474l2.539,1.593a1.5,1.5,0,0,1,.473,2.067l-8.294,13.219a3,3,0,0,1-2.545,1.4m-1.213-1.056a2.3,2.3,0,0,0,3.159-.723l8.294-13.219a.793.793,0,0,0-.25-1.094l-2.539-1.593a.794.794,0,0,0-1.093.25l-8.294,13.219a2.3,2.3,0,0,0,.723,3.16" transform="translate(-250.043 -723.507)" fill="#363e44"/>
      <path id="Trazado_731940" data-name="Trazado 731940" d="M364.528,785.944l-3.141-1.971,9.815-15.644,3.141,1.971Zm-2.167-2.194,1.944,1.22,9.065-14.447-1.945-1.22Z" transform="translate(-303.17 -644.91)" fill="#363e44"/>
      <path id="Trazado_731941" data-name="Trazado 731941" d="M383.406,651.509a17,17,0,1,1-9.627-22.034,17,17,0,0,1,9.627,22.034" transform="translate(-294.085 -527.316)" fill="#efbc73"/>
      <path id="Trazado_731942" data-name="Trazado 731942" d="M365.653,660.783a17.356,17.356,0,1,1,16.18-11.023,17.262,17.262,0,0,1-16.18,11.023m-15.039-10.257a16.65,16.65,0,1,0-.441-13.173,16.583,16.583,0,0,0,.441,13.173" transform="translate(-292.184 -525.438)" fill="#fff"/>
      <path id="Trazado_731943" data-name="Trazado 731943" d="M396.992,779.349a13.157,13.157,0,0,1-11.345-6.551.353.353,0,0,1,.612-.354,12.437,12.437,0,0,0,11.794,6.153.348.348,0,0,1,.382.322.353.353,0,0,1-.322.382q-.562.048-1.121.048" transform="translate(-323.503 -648.218)" fill="#fff"/>
      <path id="Trazado_731944" data-name="Trazado 731944" d="M528.087,705.445l-.038,0a.353.353,0,0,1-.313-.389,12.41,12.41,0,0,0-1.149-6.687.353.353,0,0,1,.638-.3,13.117,13.117,0,0,1,1.214,7.068.353.353,0,0,1-.351.315" transform="translate(-441.872 -585.733)" fill="#fff"/>
      <path id="Trazado_731945" data-name="Trazado 731945" d="M461.1,658.438a.354.354,0,0,1-.286-.145,12.444,12.444,0,0,0-10.8-5.067.353.353,0,1,1-.045-.705,13.154,13.154,0,0,1,11.417,5.355.353.353,0,0,1-.285.562" transform="translate(-377.284 -547.635)" fill="#fff"/>
      <path id="Trazado_731946" data-name="Trazado 731946" d="M376.189,735.771a.353.353,0,0,1-.326-.216,13.228,13.228,0,0,1-1.025-5.52.348.348,0,0,1,.365-.342.353.353,0,0,1,.342.364,12.51,12.51,0,0,0,.97,5.223.353.353,0,0,1-.188.463.358.358,0,0,1-.137.028" transform="translate(-314.461 -612.465)" fill="#fff"/>
      <path id="Trazado_731947" data-name="Trazado 731947" d="M246.966,855.205s18.669,4.3,18.382,6.628c-.137,1.112-3.2.538-4.227.313.742.591,2.309,1.692,1.838,2.856-.554,1.367-3.072.455-3.152.467.814.524,2.049,1.605,1.729,2.491-.416,1.153-1.964,1.136-3.041.82.07.18,1.291,1.387,1.008,2.082-.314.77-1.676.911-3.056.74-2.618-.541-15.148-2.869-15.148-2.869Z" transform="translate(-202.322 -717.867)" fill="#e2a18d"/>
      <path id="Trazado_731948" data-name="Trazado 731948" d="M145.607,829.25a.334.334,0,0,1-.064-.006c-3.394-.618-22.437-4.208-24.661-4.667a.353.353,0,1,1,.143-.692c2.222.458,21.253,4.046,24.645,4.664a.353.353,0,0,1-.063.7" transform="translate(-100.963 -691.559)" fill="#363e44"/>
      <path id="Trazado_731949" data-name="Trazado 731949" d="M337.748,886.656a.35.35,0,0,1-.185-.053,13.393,13.393,0,0,0-4.794-1.812.353.353,0,1,1,.119-.7A14.08,14.08,0,0,1,337.934,886a.353.353,0,0,1-.186.654" transform="translate(-278.89 -742.125)" fill="#363e44"/>
      <path id="Trazado_731950" data-name="Trazado 731950" d="M336.49,911.373a.352.352,0,0,1-.152-.034q-.174-.083-.357-.164a13.479,13.479,0,0,0-3.164-.952.353.353,0,1,1,.119-.7,14.172,14.172,0,0,1,3.33,1q.192.085.376.173a.353.353,0,0,1-.152.672" transform="translate(-278.931 -763.481)" fill="#363e44"/>
      <path id="Trazado_731951" data-name="Trazado 731951" d="M335.079,935.264a.361.361,0,0,1-.115-.019,13.551,13.551,0,0,0-2.1-.536.353.353,0,1,1,.119-.7,14.258,14.258,0,0,1,2.21.564.353.353,0,0,1-.115.688" transform="translate(-278.971 -784.044)" fill="#363e44"/>
      <path id="Trazado_731952" data-name="Trazado 731952" d="M469.655,166.685c-3.527,0-7.39-2.853-10.629-7.863a36.821,36.821,0,0,1-5.624-16.808,35.308,35.308,0,0,1,4.83-19.667c3.539-6.02,8.426-10.018,13.408-10.97,4.57-.873,8.021.977,11.674,2.935,4.047,2.17,8.233,4.414,14.549,3.47a26.045,26.045,0,0,0,10.614-4.483c2.457-1.581,4.232-2.723,5.9-1.651a5.361,5.361,0,0,1,1.993,3.844c.714,4.558-.963,12.088-5.553,17.659-3.082,3.741-5.952,4.73-9.585,5.982a40.453,40.453,0,0,0-9.256,4.24c-7.874,4.965-11.355,10.982-14.152,15.816-2.481,4.288-4.273,7.385-7.987,7.491l-.185,0m4.267-54.82a11.406,11.406,0,0,0-2.149.207c-9.958,1.9-18.543,16.431-17.665,29.9.767,11.769,8.724,24.011,15.551,24.011l.161,0c3.319-.095,5.029-3.049,7.4-7.139,2.686-4.643,6.366-11,14.387-16.06a41.066,41.066,0,0,1,9.4-4.311c3.528-1.216,6.315-2.176,9.27-5.763,4.409-5.353,6.073-12.806,5.4-17.1A4.713,4.713,0,0,0,514,112.244c-1.288-.827-2.82.159-5.139,1.651a26.649,26.649,0,0,1-10.892,4.588c-6.549.977-11.032-1.425-14.987-3.547-2.931-1.571-5.728-3.071-9.058-3.071" transform="translate(-380.389 -93.031)" fill="#d87355"/>
      <path id="Trazado_731953" data-name="Trazado 731953" d="M535.153,142.43c-2.464-1.754-6.3,3.412-14.05,4.193-10.192,1.028-14.159-6.758-21.989-5.647-8.6,1.22-16.367,11.857-16.172,23.074.169,9.718,5.685,21.34,11.772,21.457,6.216.12,5.87-12.691,18.612-19.9,7.436-4.207,12.574-2.716,17.168-7.781,5.31-5.854,7.467-13.4,4.658-15.4" transform="translate(-405.247 -117.983)" fill="#d87355"/>
      <path id="Trazado_731954" data-name="Trazado 731954" d="M543.224,186.419c-.74-1.19-4.369-.888-6.6.979-2.767,2.317-3.249,6.931-2,7.726,1.306.831,4.649-2.414,5.26-3.007.346-.336,4.291-4.166,3.338-5.7" transform="translate(-448.104 -155.642)" fill="#f2e6dc"/>
      <path id="Trazado_731955" data-name="Trazado 731955" d="M527.825,286.6c-1.157-.033-2.073,1.883-2.362,3.126-.444,1.906.068,4.446,1.2,4.722,1.208.294,3.254-1.952,3.279-4.249.018-1.622-.969-3.565-2.117-3.6" transform="translate(-440.824 -240.369)" fill="#f2e6dc"/>
      <path id="Trazado_731956" data-name="Trazado 731956" d="M570.327,251.562c-.713-.711-4.371.711-5.127,3.3-.36,1.236-.1,2.88.627,3.131.794.273,1.928-1.181,2.578-2.014.91-1.167,2.575-3.769,1.922-4.421" transform="translate(-474.193 -210.788)" fill="#f2e6dc"/>
      <path id="Trazado_731957" data-name="Trazado 731957" d="M638,202.64c-.393-.6-1.672-.5-2.49-.159-1.263.533-2.287,2.014-1.883,2.768.358.668,1.814.721,2.806.23,1.2-.594,2.026-2.135,1.567-2.839" transform="translate(-531.719 -169.492)" fill="#f2e6dc"/>
      <path id="Trazado_731958" data-name="Trazado 731958" d="M711.651,205.949c-.279-.217-.886.754-2.07.932-1.745.263-2.917-1.471-3.409-1.1-.454.345-.124,2.328,1.239,3.069a3.039,3.039,0,0,0,3.427-.76c.754-.76,1.091-1.928.813-2.144" transform="translate(-592.553 -172.453)" fill="#f2e6dc"/>
      <path id="Trazado_731959" data-name="Trazado 731959" d="M665.114,127.805a.35.35,0,0,1-.129-.024.353.353,0,0,1-.2-.458l1.276-3.262a.353.353,0,1,1,.658.257l-1.276,3.262a.353.353,0,0,1-.329.225" transform="translate(-557.937 -103.68)" fill="#d87355"/>
      <path id="Trazado_731960" data-name="Trazado 731960" d="M641.354,115.169a.353.353,0,0,1-.333-.472l1.241-3.47a.353.353,0,1,1,.665.238l-1.241,3.47a.353.353,0,0,1-.333.234" transform="translate(-537.984 -92.895)" fill="#d87355"/>
      <path id="Trazado_731961" data-name="Trazado 731961" d="M619.854,101.826a.346.346,0,0,1-.1-.013.353.353,0,0,1-.244-.436l1.1-3.888a.353.353,0,0,1,.68.192l-1.1,3.888a.354.354,0,0,1-.34.257" transform="translate(-519.929 -81.338)" fill="#d87355"/>
      <path id="Trazado_731962" data-name="Trazado 731962" d="M598.753,93.49l-.039,0a.353.353,0,0,1-.312-.39l.441-3.97a.353.353,0,1,1,.7.078l-.441,3.97a.353.353,0,0,1-.351.314" transform="translate(-502.208 -74.269)" fill="#d87355"/>
      <path id="Trazado_731963" data-name="Trazado 731963" d="M572.946,91.589a.353.353,0,0,1-.352-.331l-.225-3.651a.353.353,0,0,1,.705-.043l.225,3.651a.354.354,0,0,1-.331.374h-.022" transform="translate(-480.347 -72.941)" fill="#d87355"/>
      <path id="Trazado_731964" data-name="Trazado 731964" d="M544.229,98.447a.354.354,0,0,1-.336-.243l-1.209-3.691a.353.353,0,0,1,.671-.22l1.209,3.691a.353.353,0,0,1-.226.446.348.348,0,0,1-.11.018" transform="translate(-455.405 -78.666)" fill="#d87355"/>
      <path id="Trazado_731965" data-name="Trazado 731965" d="M515.1,113.4a.352.352,0,0,1-.279-.137l-2.274-2.931a.353.353,0,1,1,.558-.433l2.274,2.931a.353.353,0,0,1-.279.57" transform="translate(-430.046 -91.857)" fill="#d87355"/>
      <path id="Trazado_731966" data-name="Trazado 731966" d="M493.976,134.142a.353.353,0,0,1-.245-.1l-2.519-2.417a.353.353,0,0,1,.489-.51l2.52,2.417a.353.353,0,0,1-.245.608" transform="translate(-412.104 -109.712)" fill="#d87355"/>
      <path id="Trazado_731967" data-name="Trazado 731967" d="M473.5,154.133a.352.352,0,0,1-.19-.056l-3.474-2.222a.353.353,0,0,1,.381-.6l3.474,2.222a.353.353,0,0,1-.191.651" transform="translate(-394.109 -126.663)" fill="#d87355"/>
      <path id="Trazado_731968" data-name="Trazado 731968" d="M456.319,179.207a.351.351,0,0,1-.175-.047l-3.843-2.2a.353.353,0,1,1,.351-.613l3.843,2.2a.353.353,0,0,1-.176.66" transform="translate(-379.368 -147.739)" fill="#d87355"/>
      <path id="Trazado_731969" data-name="Trazado 731969" d="M443.331,208.032a.351.351,0,0,1-.134-.026l-4.453-1.824a.353.353,0,0,1,.268-.654l4.453,1.824a.353.353,0,0,1-.134.68" transform="translate(-367.949 -172.26)" fill="#d87355"/>
      <path id="Trazado_731970" data-name="Trazado 731970" d="M427.223,235.971a.346.346,0,0,1-.067-.007l-5.86-1.131a.353.353,0,1,1,.134-.693l5.86,1.131a.353.353,0,0,1-.067.7" transform="translate(-353.239 -196.305)" fill="#d87355"/>
      <path id="Trazado_731971" data-name="Trazado 731971" d="M426.434,266.875H426.4L421,266.389a.353.353,0,0,1,.063-.7l5.405.484a.353.353,0,0,1-.031.705" transform="translate(-352.959 -222.801)" fill="#d87355"/>
      <path id="Trazado_731972" data-name="Trazado 731972" d="M421.27,297.223a.353.353,0,0,1-.011-.706l5.215-.17a.339.339,0,0,1,.365.342.353.353,0,0,1-.342.364l-5.215.17h-.012" transform="translate(-353.162 -248.549)" fill="#d87355"/>
      <path id="Trazado_731973" data-name="Trazado 731973" d="M429.8,322.314a.353.353,0,0,1-.1-.691l4.242-1.279a.353.353,0,1,1,.2.676L429.9,322.3a.347.347,0,0,1-.1.015" transform="translate(-360.324 -268.69)" fill="#d87355"/>
      <path id="Trazado_731974" data-name="Trazado 731974" d="M439.317,346.1a.353.353,0,0,1-.17-.663l3.538-1.936a.353.353,0,1,1,.339.62l-3.538,1.936a.35.35,0,0,1-.169.043" transform="translate(-368.317 -288.113)" fill="#d87355"/>
      <path id="Trazado_731975" data-name="Trazado 731975" d="M450.173,374.375a.353.353,0,0,1-.23-.622l3.315-2.836a.353.353,0,1,1,.459.537l-3.315,2.836a.352.352,0,0,1-.229.085" transform="translate(-377.434 -311.103)" fill="#d87355"/>
      <path id="Trazado_731976" data-name="Trazado 731976" d="M458.886,402.692a.353.353,0,0,1-.174-.661l4.181-2.354a.353.353,0,1,1,.347.615l-4.181,2.354a.349.349,0,0,1-.173.046" transform="translate(-384.751 -335.287)" fill="#d87355"/>
      <path id="Trazado_731977" data-name="Trazado 731977" d="M483.925,427.733a.353.353,0,0,1-.274-.576l2.535-3.108a.353.353,0,1,1,.547.446L484.2,427.6a.353.353,0,0,1-.274.13" transform="translate(-405.779 -355.682)" fill="#d87355"/>
      <path id="Trazado_731978" data-name="Trazado 731978" d="M506.834,446.419a.353.353,0,0,1-.273-.576l2.535-3.107a.353.353,0,1,1,.547.446l-2.535,3.107a.354.354,0,0,1-.274.13" transform="translate(-425.017 -371.375)" fill="#d87355"/>
      <path id="Trazado_731979" data-name="Trazado 731979" d="M540.483,457.5l-.041,0a.353.353,0,0,1-.311-.391l.524-4.6a.353.353,0,0,1,.7.08l-.524,4.6a.353.353,0,0,1-.351.313" transform="translate(-453.274 -379.426)" fill="#d87355"/>
      <path id="Trazado_731980" data-name="Trazado 731980" d="M569.731,454.948a.353.353,0,0,1-.327-.219l-1.706-4.162a.353.353,0,0,1,.654-.268l1.706,4.162a.353.353,0,0,1-.193.46.347.347,0,0,1-.134.027" transform="translate(-476.403 -377.651)" fill="#d87355"/>
      <path id="Trazado_731981" data-name="Trazado 731981" d="M593.4,433.79a.352.352,0,0,1-.255-.109l-3.938-4.115a.353.353,0,0,1,.511-.489l3.938,4.115a.353.353,0,0,1-.255.6" transform="translate(-494.407 -359.924)" fill="#d87355"/>
      <path id="Trazado_731982" data-name="Trazado 731982" d="M609.126,407.572a.35.35,0,0,1-.223-.08l-3.512-2.865a.353.353,0,1,1,.447-.547l3.512,2.865a.353.353,0,0,1-.224.627" transform="translate(-507.97 -338.955)" fill="#d87355"/>
      <path id="Trazado_731983" data-name="Trazado 731983" d="M623.984,385.946a.353.353,0,0,1-.249-.1l-3.036-3.007a.353.353,0,0,1,.5-.5l3.036,3.007a.353.353,0,0,1-.248.6" transform="translate(-520.847 -320.675)" fill="#d87355"/>
      <path id="Trazado_731984" data-name="Trazado 731984" d="M639.5,359.586a.352.352,0,0,1-.274-.13l-2.5-3.06a.353.353,0,1,1,.547-.447l2.5,3.06a.353.353,0,0,1-.273.577" transform="translate(-534.328 -298.495)" fill="#d87355"/>
      <path id="Trazado_731985" data-name="Trazado 731985" d="M662.076,338.29a.353.353,0,0,1-.308-.18l-1.924-3.416a.353.353,0,1,1,.615-.346l1.924,3.416a.353.353,0,0,1-.307.526" transform="translate(-553.77 -280.311)" fill="#d87355"/>
      <path id="Trazado_731986" data-name="Trazado 731986" d="M685.5,318.277a.353.353,0,0,1-.326-.218l-1.748-4.2a.353.353,0,0,1,.652-.271l1.748,4.2a.353.353,0,0,1-.326.489" transform="translate(-573.589 -262.846)" fill="#d87355"/>
      <path id="Trazado_731987" data-name="Trazado 731987" d="M709.507,303.5a.353.353,0,0,1-.292-.153l-2.475-3.611a.353.353,0,1,1,.583-.4l2.474,3.611a.353.353,0,0,1-.291.553" transform="translate(-593.138 -250.929)" fill="#d87355"/>
      <path id="Trazado_731988" data-name="Trazado 731988" d="M739.191,290.9a.354.354,0,0,1-.342-.266l-1.006-3.966a.353.353,0,1,1,.685-.174l1.006,3.966a.353.353,0,0,1-.343.44" transform="translate(-619.3 -240.054)" fill="#d87355"/>
      <path id="Trazado_731989" data-name="Trazado 731989" d="M768.55,279.161a.353.353,0,0,1-.348-.294l-.618-3.64a.353.353,0,1,1,.7-.118l.617,3.64a.354.354,0,0,1-.289.407.394.394,0,0,1-.059,0" transform="translate(-644.282 -230.468)" fill="#d87355"/>
      <path id="Trazado_731990" data-name="Trazado 731990" d="M791.618,266.992a.353.353,0,0,1-.313-.188l-1.825-3.456a.353.353,0,0,1,.625-.33l1.825,3.456a.354.354,0,0,1-.312.518" transform="translate(-662.638 -220.403)" fill="#d87355"/>
      <path id="Trazado_731991" data-name="Trazado 731991" d="M811.531,248.451a.351.351,0,0,1-.246-.1l-2.992-2.908a.353.353,0,1,1,.492-.506l2.992,2.908a.353.353,0,0,1-.246.606" transform="translate(-678.382 -205.293)" fill="#d87355"/>
      <path id="Trazado_731992" data-name="Trazado 731992" d="M826.94,226.671a.354.354,0,0,1-.16-.038l-4.108-2.091a.353.353,0,0,1,.321-.63L827.1,226a.353.353,0,0,1-.16.668" transform="translate(-690.384 -187.69)" fill="#d87355"/>
      <path id="Trazado_731993" data-name="Trazado 731993" d="M840.408,199.066a.355.355,0,0,1-.106-.016l-3.244-1.024a.353.353,0,0,1,.212-.674l3.244,1.024a.353.353,0,0,1-.106.69" transform="translate(-702.42 -165.403)" fill="#d87355"/>
      <path id="Trazado_731994" data-name="Trazado 731994" d="M850.143,171h0l-4.148-.015a.353.353,0,0,1,0-.706h0l4.148.015a.353.353,0,0,1,0,.707" transform="translate(-709.837 -142.684)" fill="#d87355"/>
      <path id="Trazado_731995" data-name="Trazado 731995" d="M843.581,137.546a.353.353,0,0,1-.11-.689l4.969-1.621a.353.353,0,0,1,.219.672l-4.969,1.621a.358.358,0,0,1-.11.017" transform="translate(-707.809 -113.239)" fill="#d87355"/>
      <path id="Trazado_731996" data-name="Trazado 731996" d="M838.868,106.1a.353.353,0,0,1-.252-.6l3.327-3.4a.353.353,0,1,1,.5.494l-3.327,3.4a.352.352,0,0,1-.252.106" transform="translate(-703.852 -85.336)" fill="#d87355"/>
      <path id="Trazado_731997" data-name="Trazado 731997" d="M824.024,90.612H824a.354.354,0,0,1-.334-.372l.222-4.153a.358.358,0,0,1,.372-.334.354.354,0,0,1,.334.372l-.222,4.153a.353.353,0,0,1-.352.334" transform="translate(-691.385 -71.698)" fill="#d87355"/>
      <path id="Trazado_731998" data-name="Trazado 731998" d="M796.01,99.09a.353.353,0,0,1-.337-.248l-1.3-4.192a.353.353,0,1,1,.675-.21l1.3,4.192a.353.353,0,0,1-.233.442.357.357,0,0,1-.1.016" transform="translate(-666.767 -78.785)" fill="#d87355"/>
      <path id="Trazado_731999" data-name="Trazado 731999" d="M772.405,111.975a.353.353,0,0,1-.352-.335l-.264-5.08a.353.353,0,1,1,.706-.037l.264,5.08a.353.353,0,0,1-.335.371h-.019" transform="translate(-647.816 -88.859)" fill="#d87355"/>
      <path id="Trazado_732000" data-name="Trazado 732000" d="M743.793,124.434l-.038,0a.353.353,0,0,1-.314-.388l.526-4.937a.353.353,0,0,1,.7.075l-.526,4.937a.353.353,0,0,1-.351.316" transform="translate(-624.009 -99.443)" fill="#d87355"/>
      <path id="Trazado_732001" data-name="Trazado 732001" d="M712.882,134a.364.364,0,0,1-.086-.01.353.353,0,0,1-.258-.428l.977-3.928a.353.353,0,1,1,.685.17l-.977,3.928a.353.353,0,0,1-.342.268" transform="translate(-598.051 -108.325)" fill="#d87355"/>
      <path id="Trazado_732002" data-name="Trazado 732002" d="M688.635,140.342a.353.353,0,0,1-.333-.472l.7-1.969a.353.353,0,0,1,.666.237l-.7,1.969a.354.354,0,0,1-.333.235" transform="translate(-577.689 -115.294)" fill="#d87355"/>
      <path id="Trazado_732003" data-name="Trazado 732003" d="M720.209,314.473c-.131-.626,3.609-1.87,3.505-2.2-.093-.3-3.158.656-3.43.076-.323-.689,3.554-3,3.275-3.524-.239-.448-3.231,1-3.658.353-.454-.688,2.357-3.2,2.05-3.559-.279-.327-2.651,1.673-3.3,1.134-.714-.592,1.1-3.867.836-4s-1.891,3.082-2.706,2.833c-.686-.21-.392-2.761-.833-2.822s-.637,2.358-1.8,2.67c-1.24.331-2.732-1.936-3.114-1.66s.984,2.473.6,2.769c-.431.33-2.644-2.021-2.922-1.78s1.613,2.613,1.253,2.96c-.342.33-2.372-1.5-2.783-1.132s1.249,2.706.923,2.967-2.266-1.951-2.753-1.619.864,2.957.509,3.159-1.782-2.165-2.4-1.907.142,3-.4,3.2-1.75-2.35-2.345-2.142c-.541.189-.08,2.481-.513,2.6s-1.281-2.121-1.72-2c-.371.1.013,1.761-.544,2.013-.605.274-1.754-1.368-2.17-1.115-.342.208.291,1.406-.112,1.742-.592.494-2.79-1.394-3.083-1.077-.247.267,1.17,1.766.868,2.131s-1.956-.661-2.127-.406,1.545,1.424,1.312,1.987c-.273.66-3.047.03-3.123.352s2.668,1.018,2.609,1.709c-.049.582-2.055.775-2.029,1.138s2.116.364,2.163.784c.051.446-2.245.954-2.191,1.306.059.382,2.8-.023,3.047.7s-2.148,2.08-1.955,2.429,2.415-.9,2.979-.262-.858,2.66-.537,2.878c.267.181,1.222-1.237,1.837-1.018.8.287.317,3.122.821,3.231.457.1,1.124-2.179,1.631-2.093.631.107.407,3.765.852,3.813.4.044.885-2.9,1.48-2.867.5.025.643,2.1,1.12,2.107s.642-1.971,1.157-2c.673-.033,1.261,3.307,1.638,3.254.335-.047.051-2.695.519-2.8.581-.13,1.8,3.773,2.287,3.65.426-.108-.174-3.15.392-3.323s1.775,2.7,2.256,2.532c.41-.145-.091-2.372.147-2.433.321-.082,1.415,3.925,2,3.83.547-.089.246-3.708.83-3.8.493-.076,1.186,2.431,1.6,2.341.383-.084-.037-2.263.573-2.5.723-.281,2.267,2.412,2.706,2.183.4-.206-.588-2.543-.142-2.787s1.818,1.879,2.408,1.6c.463-.219-.261-1.586.387-2.584.938-1.444,3.895-.8,4.018-1.432s-2.833-1.353-2.778-2.272c.062-1.023,3.8-1.425,3.759-2.005s-3.657-.478-3.763-1.2c-.118-.8,4.174-1.88,4.056-2.492s-4.436-.087-4.556-.706c-.113-.582,3.609-1.6,3.493-2.19s-3.969-.1-4.1-.725" transform="translate(-578.703 -253.928)" fill="#8b865c"/>
      <path id="Trazado_732004" data-name="Trazado 732004" d="M737.79,337.586c-.334-2.367,1.251-9.827-2.952-10.791-2.422-.555-6.85,4.294-10.5,5.979-5.478,2.529-8.362.262-10.689,2.794-2.234,2.431-1.308,6.259.782,9.034,1.875,2.49,4.519,3.233,11.928,3.56,4.288.189,10.458,1.07,12.18-2.016,1.394-2.5-.308-5.425-.75-8.559" transform="translate(-597.908 -274.083)" fill="#f2e6dc"/>
      <path id="Trazado_732005" data-name="Trazado 732005" d="M746.858,390.022a4.416,4.416,0,1,1,2.339-.673h0a4.393,4.393,0,0,1-2.339.673m-.014-8.13a3.722,3.722,0,1,0,.837.1,3.741,3.741,0,0,0-.837-.1m2.166,7.157h0Z" transform="translate(-623.163 -319.796)" fill="#8b865c"/>
      <path id="Trazado_732006" data-name="Trazado 732006" d="M814.628,359.318a2.855,2.855,0,1,1,1.512-.435,2.856,2.856,0,0,1-1.512.435m-.008-5a2.149,2.149,0,1,0,1.825,1.007,2.133,2.133,0,0,0-1.825-1.007m1.333,4.27h0Z" transform="translate(-681.39 -296.636)" fill="#8b865c"/>
      <path id="Trazado_732007" data-name="Trazado 732007" d="M816.8,411.143a2.783,2.783,0,0,1-.623-.071,2.75,2.75,0,1,1,.623.071m-.009-4.822a2.057,2.057,0,1,0,1.747.964,2.044,2.044,0,0,0-1.747-.964" transform="translate(-683.292 -340.312)" fill="#8b865c"/>
    </g>
  </g>
</svg>
