<svg id="Grupo_966458" data-name="Grupo 966458" xmlns="http://www.w3.org/2000/svg" xmlns:xlink="http://www.w3.org/1999/xlink" width="400" height="254.51" viewBox="0 0 400 254.51">
  <defs>
    <clipPath id="clip-path">
      <rect id="Rectángulo_341870" data-name="Rectángulo 341870" width="400" height="254.51" fill="none"/>
    </clipPath>
    <clipPath id="clip-path-3">
      <rect id="Rectángulo_341846" data-name="Rectángulo 341846" width="79.305" height="66.248" fill="none"/>
    </clipPath>
    <clipPath id="clip-path-5">
      <rect id="Rectángulo_341854" data-name="Rectángulo 341854" width="7.774" height="7.338" fill="none"/>
    </clipPath>
    <clipPath id="clip-path-6">
      <rect id="Rectángulo_341855" data-name="Rectángulo 341855" width="2.401" height="19.969" fill="none"/>
    </clipPath>
    <clipPath id="clip-path-7">
      <rect id="Rectángulo_341856" data-name="Rectángulo 341856" width="22.615" height="49.865" fill="none"/>
    </clipPath>
    <clipPath id="clip-path-8">
      <rect id="Rectángulo_341857" data-name="Rectángulo 341857" width="17.269" height="13.465" fill="none"/>
    </clipPath>
    <clipPath id="clip-path-9">
      <rect id="Rectángulo_341858" data-name="Rectángulo 341858" width="10.229" height="9.664" fill="none"/>
    </clipPath>
    <clipPath id="clip-path-10">
      <rect id="Rectángulo_341859" data-name="Rectángulo 341859" width="9.07" height="17.33" fill="none"/>
    </clipPath>
    <clipPath id="clip-path-11">
      <rect id="Rectángulo_341865" data-name="Rectángulo 341865" width="13.505" height="9.586" fill="none"/>
    </clipPath>
    <clipPath id="clip-path-12">
      <rect id="Rectángulo_341866" data-name="Rectángulo 341866" width="13.227" height="9.941" fill="none"/>
    </clipPath>
    <clipPath id="clip-path-13">
      <rect id="Rectángulo_341867" data-name="Rectángulo 341867" width="29.196" height="44.262" fill="none"/>
    </clipPath>
    <clipPath id="clip-path-14">
      <rect id="Rectángulo_341868" data-name="Rectángulo 341868" width="13.566" height="18.724" fill="none"/>
    </clipPath>
  </defs>
  <g id="Grupo_966457" data-name="Grupo 966457" clip-path="url(#clip-path)">
    <g id="Grupo_966456" data-name="Grupo 966456">
      <g id="Grupo_966455" data-name="Grupo 966455" clip-path="url(#clip-path)">
        <path id="Trazado_731408" data-name="Trazado 731408" d="M372,245.357H44.481c-18.958-16.028-33.341-37.306-39.974-60.9A121.785,121.785,0,0,1,.03,148.842C.156,143.167,1.086,137.6,1.4,131.988A53.94,53.94,0,0,1,5.32,114.644a22.645,22.645,0,0,1,5.64-8.7c2.641-2.314,6.4-3.65,9.823-2.733,6.193,1.657,8.918,9.375,15.525,10.181,5.594.682,9.826-5.613,9.43-11.093s-3.729-10.263-6.256-15.173c-10.154-19.739-6.99-45.262,7.7-62.075S87.216,1.114,108.834,7.73c14.427,4.415,26.55,14.117,40.61,19.54,21.592,8.328,46.063,5.916,68.427-.181s43.6-15.683,65.983-21.715,46.889-8.3,68.4.214A70.911,70.911,0,0,1,392.67,47.211a68.527,68.527,0,0,1-5.685,57.032c-5.507,9.284-10.193,21.267-7.887,31.752s7.51,20.15,10.551,30.456c7.854,26.622,2.4,59.27-17.651,78.905" transform="translate(0 0)" fill="#d1f4f5"/>
        <path id="Trazado_731409" data-name="Trazado 731409" d="M13.3,124.668c1.049,3.362,2.965,6.664,6.107,8.389s7.662,1.336,9.742-1.533c1.406-1.94,1.458-4.485,1.456-6.86q0-6.094-.007-12.189c0-3.364-.066-6.942-1.951-9.761-3.663-5.474-9.94-3.49-12.685,1.152a25.925,25.925,0,0,0-2.662,20.8" transform="translate(-4.777 -38.909)" fill="#d1f4f5"/>
        <path id="Trazado_731410" data-name="Trazado 731410" d="M112.512,358.193A59.311,59.311,0,0,1,82.2,360.612c-16.657-3.048-31.345-13.208-42.812-25.668s-20.1-27.211-28.642-41.834c34.17-3.7,70.279,9.421,94.215,34.086,3.591,3.7,6.981,7.727,9.01,12.467s.651,13.825-1.459,18.53" transform="translate(-4.206 -114.483)" fill="#5195a8"/>
        <path id="Trazado_731411" data-name="Trazado 731411" d="M121.655,361.109a311.753,311.753,0,0,0-37.245-28.475C80.96,325.2,73.18,315.493,73.1,315.395a.6.6,0,1,0-.94.756,116.52,116.52,0,0,1,10.26,15.189q-8.975-5.754-18.337-10.884c-1.706-5.16-6.668-10.2-6.881-10.415a.6.6,0,1,0-.856.851,34.175,34.175,0,0,1,6.108,8.683q-12.425-6.716-25.472-12.327a.6.6,0,0,0-.475,1.11q13.743,5.89,26.8,13.049h0c.108.059.218.117.326.177a41.219,41.219,0,0,0-14.962,1.6.6.6,0,1,0,.377,1.146c7.615-2.506,16.217-1.417,17.234-1.276A309.546,309.546,0,0,1,94.871,341.24c-7.5-1.1-19.215-.022-29.043,4.415a.6.6,0,0,0,.5,1.1c10.83-4.889,23.965-5.616,30.895-3.823q12.244,8.938,23.633,19.078a.6.6,0,1,0,.8-.9" transform="translate(-14.146 -120.239)" fill="#94cbca"/>
        <g id="Grupo_966421" data-name="Grupo 966421" transform="translate(31.453 178.824)" opacity="0.4">
          <g id="Grupo_966420" data-name="Grupo 966420">
            <g id="Grupo_966419" data-name="Grupo 966419" clip-path="url(#clip-path-3)">
              <path id="Trazado_731412" data-name="Trazado 731412" d="M86.43,351.641c9.991,5.907,21.781,8.215,33.386,8.423q2.206.039,4.408-.014c1.452-.39,2.891-.83,4.309-1.332,2.109-4.706,3.488-13.788,1.459-18.53s-5.418-8.767-9.008-12.468c-18.152-18.705-43.305-30.764-69.3-33.888,2.4,9.88,5.3,19.644,9.691,28.791,5.619,11.687,13.9,22.418,25.058,29.018" transform="translate(-51.681 -293.832)" fill="#422c4f"/>
            </g>
          </g>
        </g>
        <path id="Trazado_731413" data-name="Trazado 731413" d="M121.268,323.222a66.861,66.861,0,0,1-30.186-16.237c-13.913-13.07-21.614-31.669-24.859-50.479s-2.406-38.057-1.557-57.126c34.627,17.377,60.8,51.878,68.4,89.869,1.14,5.7,1.889,11.585.913,17.315s-7.834,13.491-12.708,16.658" transform="translate(-25.01 -78.039)" fill="#6ca8bc"/>
        <path id="Trazado_731414" data-name="Trazado 731414" d="M125.345,322.441a338.4,338.4,0,0,0-16.9-48.006c1.287-8.805-.01-22.247-.023-22.382a.655.655,0,0,0-1.3.128c.012.124,1.1,11.365.288,19.895q-4.731-10.562-10.184-20.788c1.518-5.7.008-13.228-.058-13.55a.655.655,0,1,0-1.283.264,37.123,37.123,0,0,1,.385,11.518q-7.293-13.487-15.807-26.34a.655.655,0,1,0-1.091.725q8.981,13.521,16.581,27.784l0,0c.063.119.128.236.191.354A44.753,44.753,0,0,0,81.6,244.605a.655.655,0,0,0-.339,1.265c8.407,2.252,15.571,8.354,16.411,9.088A336.04,336.04,0,0,1,112.83,288.47c-6.158-5.457-17.439-11.444-29-13.258a.655.655,0,1,0-.2,1.294c12.743,2,25.106,9.148,30.334,14.9q5.807,15.4,10.122,31.379a.656.656,0,0,0,.632.485.67.67,0,0,0,.171-.023.655.655,0,0,0,.462-.8" transform="translate(-31.023 -87.239)" fill="#94cbca"/>
        <path id="Trazado_731415" data-name="Trazado 731415" d="M488.463,358.193a59.311,59.311,0,0,0,30.311,2.419c16.657-3.048,31.345-13.208,42.812-25.668s20.1-27.211,28.642-41.834c-34.17-3.7-70.279,9.421-94.215,34.086-3.591,3.7-6.981,7.727-9.009,12.467s-.651,13.825,1.459,18.53" transform="translate(-190.228 -114.483)" fill="#5195a8"/>
        <path id="Trazado_731416" data-name="Trazado 731416" d="M491.217,361.109a311.758,311.758,0,0,1,37.245-28.475c3.451-7.435,11.231-17.141,11.31-17.239a.6.6,0,1,1,.94.756,116.529,116.529,0,0,0-10.26,15.189q8.975-5.754,18.337-10.884c1.706-5.16,6.668-10.2,6.881-10.415a.6.6,0,1,1,.856.851,34.177,34.177,0,0,0-6.108,8.683q12.425-6.716,25.472-12.327a.6.6,0,0,1,.475,1.11q-13.743,5.89-26.8,13.049h0c-.108.059-.218.117-.326.177a41.219,41.219,0,0,1,14.962,1.6.6.6,0,1,1-.377,1.146c-7.615-2.506-16.217-1.417-17.234-1.276A309.558,309.558,0,0,0,518,341.24c7.5-1.1,19.215-.022,29.043,4.415a.6.6,0,1,1-.5,1.1c-10.829-4.889-23.965-5.616-30.895-3.823Q503.41,351.87,492.02,362.01a.6.6,0,1,1-.8-.9" transform="translate(-192.186 -120.239)" fill="#94cbca"/>
        <g id="Grupo_966424" data-name="Grupo 966424" transform="translate(295.783 178.824)" opacity="0.4">
          <g id="Grupo_966423" data-name="Grupo 966423">
            <g id="Grupo_966422" data-name="Grupo 966422" clip-path="url(#clip-path-3)">
              <path id="Trazado_731417" data-name="Trazado 731417" d="M530.567,351.641c-9.991,5.907-21.782,8.215-33.387,8.423q-2.206.039-4.408-.014c-1.452-.39-2.891-.83-4.309-1.332-2.109-4.706-3.488-13.788-1.459-18.53s5.418-8.767,9.009-12.468c18.152-18.705,43.3-30.764,69.3-33.888-2.4,9.88-5.295,19.644-9.691,28.791-5.618,11.687-13.9,22.418-25.058,29.018" transform="translate(-486.011 -293.832)" fill="#422c4f"/>
            </g>
          </g>
        </g>
        <path id="Trazado_731418" data-name="Trazado 731418" d="M501.372,323.222a66.87,66.87,0,0,0,30.186-16.237c13.912-13.07,21.614-31.669,24.858-50.479s2.406-38.057,1.557-57.126c-34.627,17.377-60.8,51.878-68.4,89.869-1.139,5.7-1.889,11.585-.912,17.315s7.834,13.491,12.709,16.658" transform="translate(-191.09 -78.039)" fill="#6ca8bc"/>
        <path id="Trazado_731419" data-name="Trazado 731419" d="M513,322.441a338.4,338.4,0,0,1,16.9-48.006c-1.287-8.805.01-22.247.023-22.382a.655.655,0,1,1,1.3.128c-.012.124-1.1,11.365-.288,19.895q4.731-10.562,10.184-20.788c-1.518-5.7-.008-13.228.058-13.55a.655.655,0,1,1,1.283.264,37.122,37.122,0,0,0-.385,11.518q7.293-13.487,15.807-26.34a.655.655,0,1,1,1.091.725Q550,237.424,542.4,251.688l0,0c-.063.119-.128.236-.191.354a44.754,44.754,0,0,1,14.542-7.439.655.655,0,1,1,.339,1.265c-8.406,2.252-15.571,8.354-16.411,9.088a335.889,335.889,0,0,0-15.156,33.512c6.158-5.457,17.439-11.444,29-13.258a.655.655,0,1,1,.2,1.294c-12.743,2-25.106,9.148-30.334,14.9q-5.807,15.4-10.122,31.379a.656.656,0,0,1-.632.485.667.667,0,0,1-.171-.023.654.654,0,0,1-.462-.8" transform="translate(-200.783 -87.239)" fill="#94cbca"/>
        <path id="Trazado_731420" data-name="Trazado 731420" d="M469.1,38.7a5.4,5.4,0,0,0-5.4-5.4H297.961a5.4,5.4,0,0,0-5.4,5.4V52.715H469.1Z" transform="translate(-114.509 -13.033)" fill="#a34262"/>
        <path id="Trazado_731421" data-name="Trazado 731421" d="M292.557,65.2v86.5a5.4,5.4,0,0,0,5.4,5.4H463.7a5.4,5.4,0,0,0,5.4-5.4V65.2Z" transform="translate(-114.509 -25.52)" fill="#e4e4e0"/>
        <path id="Trazado_731422" data-name="Trazado 731422" d="M487.246,38.7a5.4,5.4,0,0,0-5.4-5.4H316.107a5.4,5.4,0,0,0-5.4,5.4V52.715H487.246Z" transform="translate(-121.611 -13.033)" fill="#cc6164"/>
        <path id="Trazado_731423" data-name="Trazado 731423" d="M310.7,65.2v86.5a5.4,5.4,0,0,0,5.4,5.4H481.843a5.4,5.4,0,0,0,5.4-5.4V65.2Z" transform="translate(-121.611 -25.52)" fill="#fff"/>
        <path id="Trazado_731424" data-name="Trazado 731424" d="M520.391,174.222H506.1a3.783,3.783,0,0,0-3.783,3.783v5.983a3.783,3.783,0,0,0,3.783,3.782h14.292a3.783,3.783,0,0,0,3.783-3.782v-5.983a3.783,3.783,0,0,0-3.783-3.783" transform="translate(-196.61 -68.192)" fill="#d1f4f5"/>
        <path id="Trazado_731425" data-name="Trazado 731425" d="M477.372,84.936H463.08a3.783,3.783,0,0,0-3.783,3.783V94.7a3.783,3.783,0,0,0,3.783,3.782h14.292a3.783,3.783,0,0,0,3.783-3.782V88.719a3.783,3.783,0,0,0-3.783-3.783" transform="translate(-179.772 -33.244)" fill="#6ca8bc"/>
        <path id="Trazado_731426" data-name="Trazado 731426" d="M520.391,144.46H506.1a3.783,3.783,0,0,0-3.783,3.783v5.983a3.783,3.783,0,0,0,3.783,3.782h14.292a3.783,3.783,0,0,0,3.783-3.782v-5.983a3.783,3.783,0,0,0-3.783-3.783" transform="translate(-196.61 -56.543)" fill="#cc6164"/>
        <path id="Trazado_731427" data-name="Trazado 731427" d="M477.372,114.7H463.08a3.783,3.783,0,0,0-3.783,3.783v5.982a3.783,3.783,0,0,0,3.783,3.783h14.292a3.783,3.783,0,0,0,3.783-3.783v-5.982a3.783,3.783,0,0,0-3.783-3.783" transform="translate(-179.772 -44.894)" fill="#d1f4f5"/>
        <path id="Trazado_731428" data-name="Trazado 731428" d="M434.353,84.936H420.06a3.783,3.783,0,0,0-3.783,3.783V94.7a3.783,3.783,0,0,0,3.783,3.782h14.293a3.783,3.783,0,0,0,3.783-3.782V88.719a3.783,3.783,0,0,0-3.783-3.783" transform="translate(-162.933 -33.244)" fill="#6ca8bc"/>
        <path id="Trazado_731429" data-name="Trazado 731429" d="M477.372,144.46H463.08a3.783,3.783,0,0,0-3.783,3.783v5.983a3.783,3.783,0,0,0,3.783,3.782h14.292a3.783,3.783,0,0,0,3.783-3.782v-5.983a3.783,3.783,0,0,0-3.783-3.783" transform="translate(-179.772 -56.543)" fill="#d1f4f5"/>
        <path id="Trazado_731430" data-name="Trazado 731430" d="M563.411,114.7H549.118a3.783,3.783,0,0,0-3.783,3.783v5.982a3.783,3.783,0,0,0,3.783,3.783h14.293a3.783,3.783,0,0,0,3.783-3.783v-5.982a3.783,3.783,0,0,0-3.783-3.783" transform="translate(-213.448 -44.894)" fill="#d1f4f5"/>
        <path id="Trazado_731431" data-name="Trazado 731431" d="M563.411,144.46H549.118a3.783,3.783,0,0,0-3.783,3.783v5.983a3.783,3.783,0,0,0,3.783,3.782h14.293a3.783,3.783,0,0,0,3.783-3.782v-5.983a3.783,3.783,0,0,0-3.783-3.783" transform="translate(-213.448 -56.543)" fill="#d1f4f5"/>
        <path id="Trazado_731432" data-name="Trazado 731432" d="M563.411,84.936H549.118a3.783,3.783,0,0,0-3.783,3.783V94.7a3.783,3.783,0,0,0,3.783,3.782h14.293a3.783,3.783,0,0,0,3.783-3.782V88.719a3.783,3.783,0,0,0-3.783-3.783" transform="translate(-213.448 -33.244)" fill="#6ca8bc"/>
        <path id="Trazado_731433" data-name="Trazado 731433" d="M520.391,84.936H506.1a3.783,3.783,0,0,0-3.783,3.783V94.7a3.783,3.783,0,0,0,3.783,3.782h14.292a3.783,3.783,0,0,0,3.783-3.782V88.719a3.783,3.783,0,0,0-3.783-3.783" transform="translate(-196.61 -33.244)" fill="#6ca8bc"/>
        <path id="Trazado_731434" data-name="Trazado 731434" d="M563.411,174.222H549.118a3.783,3.783,0,0,0-3.783,3.783v5.983a3.783,3.783,0,0,0,3.783,3.782h14.293a3.783,3.783,0,0,0,3.783-3.782v-5.983a3.783,3.783,0,0,0-3.783-3.783" transform="translate(-213.448 -68.192)" fill="#d1f4f5"/>
        <path id="Trazado_731435" data-name="Trazado 731435" d="M520.391,114.7H506.1a3.783,3.783,0,0,0-3.783,3.783v5.982a3.783,3.783,0,0,0,3.783,3.783h14.292a3.783,3.783,0,0,0,3.783-3.783v-5.982a3.783,3.783,0,0,0-3.783-3.783" transform="translate(-196.61 -44.894)" fill="#d1f4f5"/>
        <path id="Trazado_731436" data-name="Trazado 731436" d="M477.372,174.222H463.08a3.783,3.783,0,0,0-3.783,3.783v5.983a3.783,3.783,0,0,0,3.783,3.782h14.292a3.783,3.783,0,0,0,3.783-3.782v-5.983a3.783,3.783,0,0,0-3.783-3.783" transform="translate(-179.772 -68.192)" fill="#d1f4f5"/>
        <path id="Trazado_731437" data-name="Trazado 731437" d="M391.333,174.222H377.041a3.783,3.783,0,0,0-3.783,3.783v5.983a3.783,3.783,0,0,0,3.783,3.782h14.292a3.783,3.783,0,0,0,3.783-3.782v-5.983a3.783,3.783,0,0,0-3.783-3.783" transform="translate(-146.096 -68.192)" fill="#d1f4f5"/>
        <path id="Trazado_731438" data-name="Trazado 731438" d="M348.314,84.936H334.021a3.783,3.783,0,0,0-3.783,3.783V94.7a3.783,3.783,0,0,0,3.783,3.782h14.293A3.783,3.783,0,0,0,352.1,94.7V88.719a3.783,3.783,0,0,0-3.783-3.783" transform="translate(-129.257 -33.244)" fill="#cc6164"/>
        <path id="Trazado_731439" data-name="Trazado 731439" d="M348.314,114.7H334.021a3.783,3.783,0,0,0-3.783,3.783v5.982a3.783,3.783,0,0,0,3.783,3.783h14.293a3.783,3.783,0,0,0,3.783-3.783v-5.982a3.783,3.783,0,0,0-3.783-3.783" transform="translate(-129.257 -44.894)" fill="#eba7ac"/>
        <path id="Trazado_731440" data-name="Trazado 731440" d="M348.314,174.222H334.021a3.783,3.783,0,0,0-3.783,3.783v5.983a3.783,3.783,0,0,0,3.783,3.782h14.293a3.783,3.783,0,0,0,3.783-3.782v-5.983a3.783,3.783,0,0,0-3.783-3.783" transform="translate(-129.257 -68.192)" fill="#eba7ac"/>
        <path id="Trazado_731441" data-name="Trazado 731441" d="M348.314,144.46H334.021a3.783,3.783,0,0,0-3.783,3.783v5.983a3.783,3.783,0,0,0,3.783,3.782h14.293a3.783,3.783,0,0,0,3.783-3.782v-5.983a3.783,3.783,0,0,0-3.783-3.783" transform="translate(-129.257 -56.543)" fill="#eba7ac"/>
        <path id="Trazado_731442" data-name="Trazado 731442" d="M391.333,144.46H377.041a3.783,3.783,0,0,0-3.783,3.783v5.983a3.783,3.783,0,0,0,3.783,3.782h14.292a3.783,3.783,0,0,0,3.783-3.782v-5.983a3.783,3.783,0,0,0-3.783-3.783" transform="translate(-146.096 -56.543)" fill="#d1f4f5"/>
        <path id="Trazado_731443" data-name="Trazado 731443" d="M434.353,174.222H420.06a3.783,3.783,0,0,0-3.783,3.783v5.983a3.783,3.783,0,0,0,3.783,3.782h14.293a3.783,3.783,0,0,0,3.783-3.782v-5.983a3.783,3.783,0,0,0-3.783-3.783" transform="translate(-162.933 -68.192)" fill="#d1f4f5"/>
        <path id="Trazado_731444" data-name="Trazado 731444" d="M434.353,144.46H420.06a3.783,3.783,0,0,0-3.783,3.783v5.983a3.783,3.783,0,0,0,3.783,3.782h14.293a3.783,3.783,0,0,0,3.783-3.782v-5.983a3.783,3.783,0,0,0-3.783-3.783" transform="translate(-162.933 -56.543)" fill="#d1f4f5"/>
        <path id="Trazado_731445" data-name="Trazado 731445" d="M391.333,84.936H377.041a3.783,3.783,0,0,0-3.783,3.783V94.7a3.783,3.783,0,0,0,3.783,3.782h14.292a3.783,3.783,0,0,0,3.783-3.782V88.719a3.783,3.783,0,0,0-3.783-3.783" transform="translate(-146.096 -33.244)" fill="#6ca8bc"/>
        <path id="Trazado_731446" data-name="Trazado 731446" d="M434.353,114.7H420.06a3.783,3.783,0,0,0-3.783,3.783v5.982a3.783,3.783,0,0,0,3.783,3.783h14.293a3.783,3.783,0,0,0,3.783-3.783v-5.982a3.783,3.783,0,0,0-3.783-3.783" transform="translate(-162.933 -44.894)" fill="#d1f4f5"/>
        <path id="Trazado_731447" data-name="Trazado 731447" d="M391.333,114.7H377.041a3.783,3.783,0,0,0-3.783,3.783v5.982a3.783,3.783,0,0,0,3.783,3.783h14.292a3.783,3.783,0,0,0,3.783-3.783v-5.982a3.783,3.783,0,0,0-3.783-3.783" transform="translate(-146.096 -44.894)" fill="#d1f4f5"/>
        <path id="Trazado_731448" data-name="Trazado 731448" d="M345.629,50.132h0a2.162,2.162,0,0,1-2.162-2.162V43.827a2.162,2.162,0,0,1,4.323,0V47.97a2.162,2.162,0,0,1-2.162,2.162" transform="translate(-134.435 -16.308)" fill="#422c4f"/>
        <path id="Trazado_731449" data-name="Trazado 731449" d="M341.874,5.66a9.073,9.073,0,0,0-9.063,9.062V22.48h3.783V14.722a5.279,5.279,0,0,1,10.559,0V24.68a5.285,5.285,0,0,1-5.279,5.279H339.3v3.783h2.577a9.073,9.073,0,0,0,9.062-9.062V14.722a9.073,9.073,0,0,0-9.062-9.062" transform="translate(-130.264 -2.215)" fill="#c7d2d7"/>
        <path id="Trazado_731450" data-name="Trazado 731450" d="M332.812,28.309H336.6V20.551a1.232,1.232,0,0,0-1.233,1.232V24.3a1.232,1.232,0,0,1-1.232,1.233h-1.318Z" transform="translate(-130.265 -8.044)" fill="#99a3b0"/>
        <path id="Trazado_731451" data-name="Trazado 731451" d="M352.226,35.068v-3.6a.9.9,0,0,0-.9-.9v3.866a5.285,5.285,0,0,1-5.279,5.279h-2.577v1.846h2.274a6.485,6.485,0,0,0,6.485-6.485" transform="translate(-134.435 -11.962)" fill="#99a3b0"/>
        <path id="Trazado_731452" data-name="Trazado 731452" d="M390.415,50.132h0a2.161,2.161,0,0,1-2.162-2.162V43.827a2.162,2.162,0,0,1,4.323,0V47.97a2.162,2.162,0,0,1-2.162,2.162" transform="translate(-151.965 -16.308)" fill="#422c4f"/>
        <path id="Trazado_731453" data-name="Trazado 731453" d="M386.66,5.66a9.073,9.073,0,0,0-9.063,9.062V22.48h3.783V14.722a5.279,5.279,0,0,1,10.559,0V24.68a5.285,5.285,0,0,1-5.279,5.279h-2.577v3.783h2.577a9.073,9.073,0,0,0,9.062-9.062V14.722A9.073,9.073,0,0,0,386.66,5.66" transform="translate(-147.794 -2.215)" fill="#c7d2d7"/>
        <path id="Trazado_731454" data-name="Trazado 731454" d="M377.6,28.309h3.783V20.551a1.232,1.232,0,0,0-1.233,1.232V24.3a1.232,1.232,0,0,1-1.232,1.233H377.6Z" transform="translate(-147.794 -8.044)" fill="#99a3b0"/>
        <path id="Trazado_731455" data-name="Trazado 731455" d="M397.012,35.068v-3.6a.9.9,0,0,0-.9-.9v3.866a5.285,5.285,0,0,1-5.279,5.279h-2.577v1.846h2.275a6.485,6.485,0,0,0,6.485-6.485" transform="translate(-151.965 -11.962)" fill="#99a3b0"/>
        <path id="Trazado_731456" data-name="Trazado 731456" d="M435.2,50.132h0a2.161,2.161,0,0,1-2.162-2.162V43.827a2.162,2.162,0,0,1,4.323,0V47.97a2.161,2.161,0,0,1-2.162,2.162" transform="translate(-169.494 -16.308)" fill="#422c4f"/>
        <path id="Trazado_731457" data-name="Trazado 731457" d="M431.446,5.66a9.073,9.073,0,0,0-9.063,9.062V22.48h3.783V14.722a5.279,5.279,0,0,1,10.559,0V24.68a5.285,5.285,0,0,1-5.279,5.279h-2.577v3.783h2.577a9.072,9.072,0,0,0,9.062-9.062V14.722a9.072,9.072,0,0,0-9.062-9.062" transform="translate(-165.323 -2.215)" fill="#c7d2d7"/>
        <path id="Trazado_731458" data-name="Trazado 731458" d="M422.384,28.309h3.782V20.551a1.232,1.232,0,0,0-1.233,1.232V24.3A1.232,1.232,0,0,1,423.7,25.53h-1.317Z" transform="translate(-165.324 -8.044)" fill="#99a3b0"/>
        <path id="Trazado_731459" data-name="Trazado 731459" d="M441.8,35.068v-3.6a.9.9,0,0,0-.9-.9v3.866a5.285,5.285,0,0,1-5.279,5.279h-2.577v1.846h2.274a6.485,6.485,0,0,0,6.485-6.485" transform="translate(-169.494 -11.962)" fill="#99a3b0"/>
        <path id="Trazado_731460" data-name="Trazado 731460" d="M479.987,50.132h0a2.161,2.161,0,0,1-2.162-2.162V43.827a2.162,2.162,0,0,1,4.323,0V47.97a2.161,2.161,0,0,1-2.162,2.162" transform="translate(-187.024 -16.308)" fill="#422c4f"/>
        <path id="Trazado_731461" data-name="Trazado 731461" d="M476.232,5.66a9.073,9.073,0,0,0-9.063,9.062V22.48h3.783V14.722a5.279,5.279,0,0,1,10.559,0V24.68a5.285,5.285,0,0,1-5.279,5.279h-2.577v3.783h2.577a9.073,9.073,0,0,0,9.062-9.062V14.722a9.073,9.073,0,0,0-9.062-9.062" transform="translate(-182.853 -2.215)" fill="#c7d2d7"/>
        <path id="Trazado_731462" data-name="Trazado 731462" d="M467.169,28.309h3.783V20.551a1.232,1.232,0,0,0-1.232,1.232V24.3a1.233,1.233,0,0,1-1.233,1.233h-1.318Z" transform="translate(-182.853 -8.044)" fill="#99a3b0"/>
        <path id="Trazado_731463" data-name="Trazado 731463" d="M486.584,35.068v-3.6a.9.9,0,0,0-.9-.9v3.866a5.285,5.285,0,0,1-5.279,5.279h-2.577v1.846H480.1a6.485,6.485,0,0,0,6.485-6.485" transform="translate(-187.024 -11.962)" fill="#99a3b0"/>
        <path id="Trazado_731464" data-name="Trazado 731464" d="M524.773,50.132h0a2.161,2.161,0,0,1-2.162-2.162V43.827a2.162,2.162,0,0,1,4.323,0V47.97a2.162,2.162,0,0,1-2.162,2.162" transform="translate(-204.553 -16.308)" fill="#422c4f"/>
        <path id="Trazado_731465" data-name="Trazado 731465" d="M521.018,5.66a9.073,9.073,0,0,0-9.063,9.062V22.48h3.783V14.722a5.279,5.279,0,0,1,10.559,0V24.68a5.285,5.285,0,0,1-5.279,5.279H518.44v3.783h2.577a9.073,9.073,0,0,0,9.062-9.062V14.722a9.073,9.073,0,0,0-9.062-9.062" transform="translate(-200.382 -2.215)" fill="#c7d2d7"/>
        <path id="Trazado_731466" data-name="Trazado 731466" d="M511.955,28.309h3.783V20.551a1.232,1.232,0,0,0-1.233,1.232V24.3a1.232,1.232,0,0,1-1.232,1.233h-1.318Z" transform="translate(-200.382 -8.044)" fill="#99a3b0"/>
        <path id="Trazado_731467" data-name="Trazado 731467" d="M531.37,35.068v-3.6a.9.9,0,0,0-.9-.9v3.866a5.285,5.285,0,0,1-5.279,5.279h-2.577v1.846h2.274a6.485,6.485,0,0,0,6.485-6.485" transform="translate(-204.553 -11.962)" fill="#99a3b0"/>
        <path id="Trazado_731468" data-name="Trazado 731468" d="M569.559,50.132h0A2.162,2.162,0,0,1,567.4,47.97V43.827a2.162,2.162,0,0,1,4.323,0V47.97a2.161,2.161,0,0,1-2.162,2.162" transform="translate(-222.083 -16.308)" fill="#422c4f"/>
        <path id="Trazado_731469" data-name="Trazado 731469" d="M565.8,5.66a9.073,9.073,0,0,0-9.063,9.062V22.48h3.783V14.722a5.279,5.279,0,0,1,10.559,0V24.68a5.285,5.285,0,0,1-5.279,5.279h-2.577v3.783H565.8a9.072,9.072,0,0,0,9.062-9.062V14.722A9.072,9.072,0,0,0,565.8,5.66" transform="translate(-217.912 -2.215)" fill="#c7d2d7"/>
        <path id="Trazado_731470" data-name="Trazado 731470" d="M556.742,28.309h3.782V20.551a1.233,1.233,0,0,0-1.233,1.232V24.3a1.232,1.232,0,0,1-1.232,1.233h-1.317Z" transform="translate(-217.912 -8.044)" fill="#99a3b0"/>
        <path id="Trazado_731471" data-name="Trazado 731471" d="M576.156,35.068v-3.6a.9.9,0,0,0-.9-.9v3.866a5.285,5.285,0,0,1-5.279,5.279H567.4v1.846h2.275a6.485,6.485,0,0,0,6.484-6.485" transform="translate(-222.083 -11.962)" fill="#99a3b0"/>
        <path id="Trazado_731472" data-name="Trazado 731472" d="M428.308,118.215l7.462-5.055c.859-.582.049-1.988-.819-1.4l-7.977,5.4a121.832,121.832,0,0,0-11.008-7.537.811.811,0,0,0-.819,1.4,119.89,119.89,0,0,1,10.409,7.1l-14.514,9.833c-.859.582-.049,1.987.818,1.4L426.9,119.167a120.02,120.02,0,0,1,9.338,8.121c.751.725,1.9-.42,1.147-1.147q-4.346-4.2-9.08-7.926" transform="translate(-160.741 -42.861)" fill="#454f6b"/>
        <path id="Trazado_731473" data-name="Trazado 731473" d="M567.482,155.534l-12.57-6.306,9.633-5.251c.917-.5.1-1.9-.818-1.4l-10.579,5.766-12.309-6.175c-.93-.467-1.752.931-.818,1.4l11.4,5.718-11.132,6.068c-.917.5-.1,1.9.819,1.4l12.078-6.583,13.481,6.763c.931.467,1.752-.931.819-1.4" transform="translate(-211.207 -55.609)" fill="#454f6b"/>
        <path id="Trazado_731474" data-name="Trazado 731474" d="M480.852,186.59q-4.214-3.336-8.7-6.25l8.578-5.468c.878-.559.065-1.963-.818-1.4l-9.274,5.911a112.3,112.3,0,0,0-13.578-7.295c-.944-.425-1.769.971-.819,1.4a112.889,112.889,0,0,1,12.894,6.853L457.45,187.79c-.878.559-.065,1.963.818,1.4l12.385-7.894a110.4,110.4,0,0,1,9.053,6.441c.81.641,1.965-.5,1.147-1.147" transform="translate(-178.411 -67.326)" fill="#454f6b"/>
        <path id="Trazado_731475" data-name="Trazado 731475" d="M361.874,384.07h-8.895a4.865,4.865,0,0,1-3.847-1.887l-7.772-10.045a8.012,8.012,0,0,1-1.134-7.926c4.906-11.933,18.465-12.034,19.915-7.522l6.388,21.108a4.864,4.864,0,0,1-4.655,6.272" transform="translate(-132.94 -138.534)" fill="#454f6b"/>
        <path id="Trazado_731476" data-name="Trazado 731476" d="M363.112,380.673a4.863,4.863,0,0,1-3.846-1.887l-5.58-7.212a39.486,39.486,0,0,0,9.167-5.925l-1.971-6.514-11.1,4.756a7.746,7.746,0,0,1,.579-3.075,17.073,17.073,0,0,1,4.968-6.836c-4.809-.38-11.851,2.33-15.1,10.234a8.011,8.011,0,0,0,1.134,7.926l7.772,10.045a4.865,4.865,0,0,0,3.847,1.887h8.895a4.859,4.859,0,0,0,4.638-3.4Z" transform="translate(-132.94 -138.536)" fill="#422c4f"/>
        <path id="Trazado_731477" data-name="Trazado 731477" d="M227.831,129.438h23.5v.5c35.7,4.423,63.455,37.726,63.455,78.16s-27.751,73.738-63.455,78.16v.5h-23.5c-39.518,0-71.554-35.219-71.554-78.665s32.036-78.664,71.554-78.664" transform="translate(-61.168 -50.663)" fill="#468094"/>
        <path id="Trazado_731478" data-name="Trazado 731478" d="M194.9,208.1c0,43.445,32.036,78.664,71.554,78.664s71.554-35.219,71.554-78.664-32.036-78.664-71.554-78.664S194.9,164.657,194.9,208.1" transform="translate(-76.285 -50.663)" fill="#6ca8bc"/>
        <path id="Trazado_731479" data-name="Trazado 731479" d="M367.441,213.911c0-37.228-26.712-67.726-60.173-69.546q1.574-.085,3.166-.087c34.925,0,63.338,31.237,63.338,69.633s-28.413,69.632-63.338,69.632q-1.592,0-3.166-.086c33.46-1.82,60.173-32.318,60.173-69.546" transform="translate(-120.267 -56.471)" fill="#495375"/>
        <path id="Trazado_731480" data-name="Trazado 731480" d="M208.4,213.967c0-37.228,26.712-67.726,60.172-69.546,33.461,1.82,60.173,32.318,60.173,69.546s-26.712,67.726-60.173,69.546C235.11,281.693,208.4,251.2,208.4,213.967" transform="translate(-81.568 -56.527)" fill="#fff"/>
        <rect id="Rectángulo_341848" data-name="Rectángulo 341848" width="4.394" height="11.549" transform="translate(184.805 95.085)" fill="#454f6b"/>
        <path id="Trazado_731481" data-name="Trazado 731481" d="M339.342,177.825l3.806,2.605,4.87-10-3.806-2.605Z" transform="translate(-132.82 -65.687)" fill="#454f6b"/>
        <path id="Trazado_731482" data-name="Trazado 731482" d="M366.431,209.533l2.2,4.513,8.435-5.775-2.2-4.513Z" transform="translate(-143.423 -79.752)" fill="#454f6b"/>
        <rect id="Rectángulo_341849" data-name="Rectángulo 341849" width="9.74" height="5.211" transform="translate(229.846 154.834)" fill="#454f6b"/>
        <path id="Trazado_731483" data-name="Trazado 731483" d="M368.628,296.727l-2.2,4.513,8.435,5.775,2.2-4.513Z" transform="translate(-143.423 -116.141)" fill="#454f6b"/>
        <path id="Trazado_731484" data-name="Trazado 731484" d="M343.147,328.85l-3.806,2.605,4.87,10,3.806-2.605Z" transform="translate(-132.82 -128.714)" fill="#454f6b"/>
        <rect id="Rectángulo_341850" data-name="Rectángulo 341850" width="4.394" height="11.55" transform="translate(184.805 208.245)" fill="#454f6b"/>
        <path id="Trazado_731485" data-name="Trazado 731485" d="M269.616,331.455l-3.806-2.605-4.87,10,3.806,2.605Z" transform="translate(-102.134 -128.714)" fill="#454f6b"/>
        <path id="Trazado_731486" data-name="Trazado 731486" d="M241.269,301.239l-2.2-4.513-8.435,5.775,2.2,4.513Z" transform="translate(-90.273 -116.141)" fill="#454f6b"/>
        <rect id="Rectángulo_341851" data-name="Rectángulo 341851" width="9.74" height="5.211" transform="translate(134.418 154.834)" fill="#454f6b"/>
        <path id="Trazado_731487" data-name="Trazado 731487" d="M239.072,214.046l2.2-4.513-8.435-5.774-2.2,4.512Z" transform="translate(-90.273 -79.752)" fill="#454f6b"/>
        <path id="Trazado_731488" data-name="Trazado 731488" d="M265.811,180.431l3.806-2.605-4.87-10-3.806,2.605Z" transform="translate(-102.134 -65.687)" fill="#454f6b"/>
        <path id="Trazado_731489" data-name="Trazado 731489" d="M292.7,259.636,291.314,257l-1.383-2.639-22.569,16.8-.856,4.306,3.621.973Z" transform="translate(-104.312 -99.557)" fill="#99a3b0"/>
        <path id="Trazado_731490" data-name="Trazado 731490" d="M302.879,245.394c3.764,0,6.826,3.631,6.826,8.094s-3.062,8.094-6.826,8.094-6.826-3.631-6.826-8.094,3.062-8.094,6.826-8.094" transform="translate(-115.877 -96.049)" fill="#454f6b"/>
        <path id="Trazado_731491" data-name="Trazado 731491" d="M304.925,241.945l1.427,2.6,1.426,2.6,34.868-19.407,1-3.945-3.848-1.25Z" transform="translate(-119.35 -87.102)" fill="#454f6b"/>
        <path id="Trazado_731492" data-name="Trazado 731492" d="M305.758,252.151h1.694v.55a4.371,4.371,0,0,1,0,6.864v.55h-1.694c-1.851,0-3.358-1.786-3.358-3.982s1.507-3.982,3.358-3.982" transform="translate(-118.361 -98.693)" fill="#e8916a"/>
        <path id="Trazado_731493" data-name="Trazado 731493" d="M308.542,252.151c1.851,0,3.358,1.786,3.358,3.982s-1.507,3.982-3.358,3.982-3.358-1.786-3.358-3.982,1.507-3.982,3.358-3.982" transform="translate(-119.451 -98.693)" fill="#f0bf6c"/>
        <path id="Trazado_731494" data-name="Trazado 731494" d="M197.217,384.07h8.895a4.865,4.865,0,0,0,3.847-1.887l7.772-10.045a8.012,8.012,0,0,0,1.134-7.926c-4.906-11.933-18.465-12.034-19.915-7.522L192.562,377.8a4.864,4.864,0,0,0,4.655,6.272" transform="translate(-75.287 -138.534)" fill="#454f6b"/>
        <path id="Trazado_731495" data-name="Trazado 731495" d="M218.948,366.569a17.13,17.13,0,0,0-4.7-6.6,18.482,18.482,0,0,1,1.639,3.12,8.011,8.011,0,0,1-1.134,7.926l-7.772,10.045a4.863,4.863,0,0,1-3.846,1.887h-8.895a4.869,4.869,0,0,1-1.675-.3,4.86,4.86,0,0,0,4.738,3.782h8.895a4.863,4.863,0,0,0,3.846-1.888l7.772-10.045a8.012,8.012,0,0,0,1.134-7.926" transform="translate(-75.37 -140.893)" fill="#422c4f"/>
        <rect id="Rectángulo_341852" data-name="Rectángulo 341852" width="9.633" height="5.192" transform="translate(171.483 73.581)" fill="#f0bf6c"/>
        <rect id="Rectángulo_341853" data-name="Rectángulo 341853" width="9.633" height="2.596" transform="translate(171.483 73.581)" fill="#422c4f"/>
        <path id="Trazado_731496" data-name="Trazado 731496" d="M300.981,108.112H237.667l.82-2.969a23.058,23.058,0,0,1,22.226-16.922h17.223a23.058,23.058,0,0,1,22.226,16.922Z" transform="translate(-93.024 -34.53)" fill="#f0bf6c"/>
        <path id="Trazado_731497" data-name="Trazado 731497" d="M315.642,105.143c-2.038-10-8.752-16.921-16.41-16.921h-1.4c5.975,0,11.215,6.924,12.805,16.921l.472,2.969h5.133Z" transform="translate(-116.575 -34.531)" fill="#eba25d"/>
        <path id="Trazado_731498" data-name="Trazado 731498" d="M295.792,88.221h-.612c4.028,0,7.559,6.925,8.631,16.922l.318,2.969h2.252L306,105.143c-1.268-10-5.447-16.922-10.212-16.922" transform="translate(-115.535 -34.53)" fill="#eba25d"/>
        <path id="Trazado_731499" data-name="Trazado 731499" d="M274.668,88.221H271.63a14.959,14.959,0,0,0-10.95,5.177A2.16,2.16,0,0,0,262.289,97h2.139a4.32,4.32,0,0,0,3.967-2.613c1.663-3.866,3.883-6.17,6.273-6.17" transform="translate(-101.81 -34.53)" fill="#faeccb"/>
        <path id="Trazado_731500" data-name="Trazado 731500" d="M253.31,108.25q-.13.344-.251.7a2.166,2.166,0,0,0,2.043,2.877h6.07a2.167,2.167,0,0,0,2.135-1.834c.032-.2.064-.391.1-.585a2.159,2.159,0,0,0-2.126-2.534h-5.95a2.151,2.151,0,0,0-2.019,1.381" transform="translate(-99.002 -41.829)" fill="#faeccb"/>
        <path id="Trazado_731501" data-name="Trazado 731501" d="M90.811,93.953l-1.425.406a10.759,10.759,0,0,0-7.667,8.579L76.8,132.466a8.4,8.4,0,0,0,13.575,7.913l5.358-4.336Z" transform="translate(-30.015 -36.774)" fill="#fff"/>
        <g id="Grupo_966427" data-name="Grupo 966427" transform="translate(48.894 90.044)" opacity="0.3">
          <g id="Grupo_966426" data-name="Grupo 966426">
            <g id="Grupo_966425" data-name="Grupo 966425" clip-path="url(#clip-path-5)">
              <path id="Trazado_731502" data-name="Trazado 731502" d="M88.114,149.945a5.869,5.869,0,0,0-7.635,5.346,16.027,16.027,0,0,1-.1-2.957,5.417,5.417,0,0,1,.945-2.728,4.129,4.129,0,0,1,3.382-1.651,4.529,4.529,0,0,1,3.413,1.99" transform="translate(-80.34 -147.954)" fill="#495375"/>
            </g>
          </g>
        </g>
        <g id="Grupo_966430" data-name="Grupo 966430" transform="translate(58.396 61.36)" opacity="0.3">
          <g id="Grupo_966429" data-name="Grupo 966429">
            <g id="Grupo_966428" data-name="Grupo 966428" clip-path="url(#clip-path-6)">
              <path id="Trazado_731503" data-name="Trazado 731503" d="M98.352,100.822v19.969L96.169,109.9a11.1,11.1,0,0,1,2.184-9.076" transform="translate(-95.952 -100.822)" fill="#495375"/>
            </g>
          </g>
        </g>
        <path id="Trazado_731504" data-name="Trazado 731504" d="M110.883,88.1,98.575,91.6v27.991l-1.994,18.5a10.526,10.526,0,0,0,2.712,8.247l.449.488h40.37a10.525,10.525,0,0,0,5.011-8.415l1.38-25.971-7.3-23.127-13.693-1.369Z" transform="translate(-37.779 -34.423)" fill="#fff"/>
        <g id="Grupo_966433" data-name="Grupo 966433" transform="translate(86.108 61.965)" opacity="0.3">
          <g id="Grupo_966432" data-name="Grupo 966432">
            <g id="Grupo_966431" data-name="Grupo 966431" clip-path="url(#clip-path-7)">
              <path id="Trazado_731505" data-name="Trazado 731505" d="M152.933,102.4a17.88,17.88,0,0,0-2.243,11.157l.632,5.452-9.835,3.062a7.131,7.131,0,0,0,3.647,4l-.3,2.531,13.72,23.073a10.522,10.522,0,0,0,4.173-7.839l1.38-25.971-5.07-16.055Z" transform="translate(-141.487 -101.816)" fill="#495375"/>
            </g>
          </g>
        </g>
        <line id="Línea_366" data-name="Línea 366" y1="0.268" x2="0.473" transform="translate(58.022 91.257)" fill="none" stroke="#222221" stroke-miterlimit="10" stroke-width="1"/>
        <g id="Grupo_966436" data-name="Grupo 966436" transform="translate(70.457 53.524)" opacity="0.3">
          <g id="Grupo_966435" data-name="Grupo 966435">
            <g id="Grupo_966434" data-name="Grupo 966434" clip-path="url(#clip-path-8)">
              <path id="Trazado_731506" data-name="Trazado 731506" d="M118.418,88.1l-2.647,11.829,6.466-5.743,7.253,7.227,3.55-13.465Z" transform="translate(-115.771 -87.947)" fill="#495375"/>
            </g>
          </g>
        </g>
        <path id="Trazado_731507" data-name="Trazado 731507" d="M122.563,77.992l2.536,7.049,7.049-7.4-1.775-7.868Z" transform="translate(-47.972 -27.308)" fill="#f0bf9c"/>
        <path id="Trazado_731508" data-name="Trazado 731508" d="M123.73,81.235c3.487-1.316,6.291-7.576,6.828-10.646l-.185-.82-7.81,8.223Z" transform="translate(-47.972 -27.308)" fill="#e78882"/>
        <path id="Trazado_731509" data-name="Trazado 731509" d="M126.73,90.1l6.086,4.818,4.514-9.028-3.551-3.2Z" transform="translate(-49.603 -32.368)" fill="#fff"/>
        <path id="Trazado_731510" data-name="Trazado 731510" d="M121.632,85.96l1.949,5.419-4.9,4.311.874-8.368Z" transform="translate(-46.454 -33.645)" fill="#fff"/>
        <path id="Trazado_731511" data-name="Trazado 731511" d="M124.887,94.863l-2.866,2.523.685,3.843h3.642l2.016-3.613Z" transform="translate(-47.76 -37.13)" fill="#cc6164"/>
        <path id="Trazado_731512" data-name="Trazado 731512" d="M123.959,95.984l1.273-1.12,3.478,2.753-2.016,3.614h-3.642l-.147-.826h2.134a1.217,1.217,0,0,0,1.1-.694l.554-1.164a1.217,1.217,0,0,0-.2-1.346l-.834-.91a1.217,1.217,0,0,0-1.046-.386Z" transform="translate(-48.105 -37.13)" fill="#a34262"/>
        <path id="Trazado_731513" data-name="Trazado 731513" d="M120.26,105.324l-4.488,40.324,4.488,5.242,7.2-5.242L123.9,105.324Z" transform="translate(-45.314 -41.225)" fill="#cc6164"/>
        <path id="Trazado_731514" data-name="Trazado 731514" d="M155.176,114.465l2.054-.989,7.912,6.923-7.836-13.389s-3.347-9.661,3.347-16.812a13.492,13.492,0,0,1,11.512,9.328l9.538,29.932a9.53,9.53,0,0,1-16.506,8.866l-13.786-17.145a2.367,2.367,0,0,1,.266-1.845Z" transform="translate(-59.234 -35.304)" fill="#fff"/>
        <g id="Grupo_966439" data-name="Grupo 966439" transform="translate(105.051 83.63)" opacity="0.3">
          <g id="Grupo_966438" data-name="Grupo 966438">
            <g id="Grupo_966437" data-name="Grupo 966437" clip-path="url(#clip-path-9)">
              <path id="Trazado_731515" data-name="Trazado 731515" d="M182.842,147.079l-9.371-8.2-.857-1.465c8.161.172,9.406,6.15,10.229,9.665" transform="translate(-172.613 -137.415)" fill="#495375"/>
            </g>
          </g>
        </g>
        <path id="Trazado_731516" data-name="Trazado 731516" d="M128.318,105.5c-.35-.213-.725-.236-.837-.051L117.31,122.139l1.266.771,10.171-16.689c.113-.185-.08-.508-.429-.721" transform="translate(-45.916 -41.225)" fill="#454f6b"/>
        <path id="Trazado_731517" data-name="Trazado 731517" d="M143.342,123.8c.051.153-1.619-2.722-2.717-4.621a5.2,5.2,0,0,0-2.689-2.27l-7.149-2.661a3.2,3.2,0,0,0-2.874.324l-3.7,2.43a5.967,5.967,0,0,0-2.594,3.9l-.487,2.633a1.576,1.576,0,0,0,3.026.837l1.007-2.7,2.054-2.054-.839,1.6a2.525,2.525,0,0,0,2.151,3.7l3.05.1a9.175,9.175,0,0,0,6.52,3.513l1.746.138,1.217,1.065c4.564-3.119,2.282-5.934,2.282-5.934" transform="translate(-47.399 -44.638)" fill="#f0bf9c"/>
        <path id="Trazado_731518" data-name="Trazado 731518" d="M145.413,132.072h-7.1c4.412,2.156,5.325,1.75,7.1,0" transform="translate(-54.137 -51.694)" fill="#e78882"/>
        <g id="Grupo_966442" data-name="Grupo 966442" transform="translate(95.311 83.722)" opacity="0.2">
          <g id="Grupo_966441" data-name="Grupo 966441">
            <g id="Grupo_966440" data-name="Grupo 966440" clip-path="url(#clip-path-10)">
              <path id="Trazado_731519" data-name="Trazado 731519" d="M156.609,143.616a10.18,10.18,0,0,0,5.161-1.889,8.152,8.152,0,0,0,2.605-4.161l.016.061a5.4,5.4,0,0,1-4.055,6.781,4.694,4.694,0,0,1-.777.085l6.119,10.4Z" transform="translate(-156.609 -137.566)" fill="#495375"/>
            </g>
          </g>
        </g>
        <path id="Trazado_731520" data-name="Trazado 731520" d="M119.445,148.63H89.776L73.688,109.68h29.669Z" transform="translate(-28.842 -42.929)" fill="#6c6fc3"/>
        <path id="Trazado_731521" data-name="Trazado 731521" d="M87.494,148.521l3.1-4.27a3.708,3.708,0,0,1,1.177-1.05l1.1-.621a1.336,1.336,0,0,1,1.62,2.089l-3.016,3.138,4-2.445a1.434,1.434,0,0,1,1.874,2.113l-3.8,4.811,3.209-2.7a1.309,1.309,0,0,1,1.835,1.854l-3.716,4.328L98,153.158a1.256,1.256,0,0,1,1.694,1.85l-4.065,4.078a3.665,3.665,0,0,1-2.884,1.066h0a3.662,3.662,0,0,1-3.063-2.173l-2.57-5.827a3.664,3.664,0,0,1,.387-3.63" transform="translate(-33.972 -55.739)" fill="#f0bf9c"/>
        <path id="Trazado_731522" data-name="Trazado 731522" d="M87.943,149.864l1.324-1.824-.909-2.2Z" transform="translate(-34.421 -57.082)" fill="#e78882"/>
        <path id="Trazado_731523" data-name="Trazado 731523" d="M97.946,48.462l2,8.035a15.788,15.788,0,0,0,3.4,6.538A8.779,8.779,0,0,0,116.638,63l3.095-3.6a8.322,8.322,0,0,0,1.9-6.754l-1.417-8.747a11.377,11.377,0,1,0-22.271,4.57" transform="translate(-38.203 -13.438)" fill="#f0bf9c"/>
        <path id="Trazado_731524" data-name="Trazado 731524" d="M117.471,49.375h0a5.556,5.556,0,0,1-1.725-2.851l-1-4.092a4.1,4.1,0,0,1-3.442-1.45,6.2,6.2,0,0,1-1.507-3.408,16.066,16.066,0,0,1,.033-3.776,13.118,13.118,0,0,1-4.434,5.575,4.907,4.907,0,0,1-3.147,1.156,2.286,2.286,0,0,1-2.2-2.164c-1.347,1.9-2.991,4.091-5.045,5.19s-4.938,1.027-6.387-.8a4.957,4.957,0,0,1-.906-3.547,12.234,12.234,0,0,1,1.057-3.585c1.617-3.8,3.82-7.489,7.15-9.93s7.968-3.406,11.673-1.586c-.484-.978-.753-1.769-1.238-2.747a2.584,2.584,0,0,1,1.8.982,2.28,2.28,0,0,1,.517,1.853,2.633,2.633,0,0,1,1.2-1.429,2.687,2.687,0,0,1,1.856-.334c-.556.644-1.216,1.343-1.772,1.986a6.715,6.715,0,0,1,5.871-.489,7.3,7.3,0,0,1,3.661,3.6,15.475,15.475,0,0,1,1.344,5.049,35.958,35.958,0,0,1-.681,12.583c-.355,1.51-1.187,3.781-2.677,4.21" transform="translate(-34.319 -8.362)" fill="#8c404c"/>
        <path id="Trazado_731525" data-name="Trazado 731525" d="M137.536,57.787a2.771,2.771,0,0,1,3.384-.51,2.989,2.989,0,0,1,1.127,1.876,4.917,4.917,0,0,1-2.291,5.146,2.548,2.548,0,0,1-1.969.355,2.294,2.294,0,0,1-1.364-1.37,5.451,5.451,0,0,1,1.114-5.5" transform="translate(-53.271 -22.271)" fill="#f0bf9c"/>
        <path id="Trazado_731526" data-name="Trazado 731526" d="M141.3,59.468a1.421,1.421,0,0,0-1.109-.051,2.365,2.365,0,0,0-.931.643,3.621,3.621,0,0,0-.831,3.358,1.344,1.344,0,0,0,.9,1.057,1.011,1.011,0,0,0,.891-.325,1.883,1.883,0,0,0,.433-.877,1.8,1.8,0,0,0-.164-1.414.949.949,0,0,0-1.274-.314,2.428,2.428,0,0,1,.585-1.352,3.109,3.109,0,0,1,1.5-.724" transform="translate(-54.136 -23.222)" fill="#e78882"/>
        <path id="Trazado_731527" data-name="Trazado 731527" d="M119.79,54.663l-6.32,1.82a2.468,2.468,0,0,1,1.132-2.024,3.882,3.882,0,0,1,2.225-.6,6.847,6.847,0,0,1,2.963.8" transform="translate(-44.412 -21.081)" fill="#8c404c"/>
        <path id="Trazado_731528" data-name="Trazado 731528" d="M118.447,62.481h0a.758.758,0,0,1-.939-.519l-.23-.8a.758.758,0,1,1,1.458-.42l.231.8a.759.759,0,0,1-.519.939" transform="translate(-45.892 -23.56)" fill="#422c4f"/>
        <path id="Trazado_731529" data-name="Trazado 731529" d="M99.385,60.658l3.907-1.125a2.234,2.234,0,0,0-1.43-1.285,1.536,1.536,0,0,0-1.358.433,4.493,4.493,0,0,0-1.119,1.978" transform="translate(-38.9 -22.786)" fill="#8c404c"/>
        <path id="Trazado_731530" data-name="Trazado 731530" d="M104.516,66.531h0a.524.524,0,0,0,.358-.649l-.36-1.25a.524.524,0,0,0-1.008.29l.36,1.25a.524.524,0,0,0,.649.358" transform="translate(-40.505 -25.149)" fill="#422c4f"/>
        <path id="Trazado_731531" data-name="Trazado 731531" d="M112.148,71.285l-3.481,1a1.636,1.636,0,0,0,1.5.592A2.163,2.163,0,0,0,111.2,72.3a8.68,8.68,0,0,0,.948-1.019" transform="translate(-42.533 -27.901)" fill="#e78882"/>
        <path id="Trazado_731532" data-name="Trazado 731532" d="M121,71.68l-7.931,3.79a4.551,4.551,0,0,0,2.7,1.049,4.056,4.056,0,0,0,2.616-.8A8.975,8.975,0,0,0,121,71.68" transform="translate(-44.254 -28.056)" fill="#fff"/>
        <path id="Trazado_731533" data-name="Trazado 731533" d="M99.741,191.447,96.52,202.6l1.611,8.52,8.508,96.361h19.678l-6.39-97.781h1.584l13.275,97.781h20.236l-9.731-96.259V202.4l-5.179-10.955Z" transform="translate(-37.779 -74.933)" fill="#454f6b"/>
        <path id="Trazado_731534" data-name="Trazado 731534" d="M131.863,209.572a.3.3,0,0,1-.077-.01.305.305,0,0,1-.213-.2,55.768,55.768,0,0,1-2.636-14.463.3.3,0,0,1,.608-.029,55.155,55.155,0,0,0,2.462,13.849l1.11-1.035a4.161,4.161,0,0,0,1.205-4.038A55.608,55.608,0,0,1,133.1,194.9a.3.3,0,0,1,.608-.032,54.962,54.962,0,0,0,1.208,8.631,4.77,4.77,0,0,1-1.381,4.63l-1.461,1.362a.306.306,0,0,1-.208.082" transform="translate(-50.467 -76.159)" fill="#797c99"/>
        <path id="Trazado_731535" data-name="Trazado 731535" d="M131.031,241.768l-.458-6.275a27.124,27.124,0,0,0,.458,6.275" transform="translate(-51.097 -92.173)" fill="#422c4f"/>
        <path id="Trazado_731536" data-name="Trazado 731536" d="M124.188,221.281a.3.3,0,0,1,.326.282l.111,1.531q.377-.054.752-.139l-.533,3.077,0,.021.957,13.13,3.292,11.411-1.939-29.668-12.172-.811,4.449,2.162a8.994,8.994,0,0,0,4.591.876l-.113-1.546a.3.3,0,0,1,.281-.326" transform="translate(-45.004 -86.154)" fill="#422c4f"/>
        <path id="Trazado_731537" data-name="Trazado 731537" d="M132.2,249.238l-.288-1c-.232-.8-.416-1.618-.573-2.436l5.871,80.545a.3.3,0,0,0,.3.282h.023a.3.3,0,0,0,.281-.326Z" transform="translate(-51.408 -96.209)" fill="#797c99"/>
        <path id="Trazado_731538" data-name="Trazado 731538" d="M130.439,225.009c-.2.029-.4.045-.606.06l.461,6.321a27.1,27.1,0,0,1,.36-3.422Z" transform="translate(-50.817 -88.07)" fill="#797c99"/>
        <path id="Trazado_731539" data-name="Trazado 731539" d="M130.254,222.312a.3.3,0,1,0-.607.044l.113,1.546c.2-.015.4-.031.606-.06Z" transform="translate(-50.745 -86.904)" fill="#454f6b"/>
        <path id="Trazado_731540" data-name="Trazado 731540" d="M131.908,243l-.957-13.13a27.11,27.11,0,0,0-.36,3.422l.457,6.275c.156.818.341,1.632.573,2.436Z" transform="translate(-51.114 -89.973)" fill="#454f6b"/>
        <path id="Trazado_731541" data-name="Trazado 731541" d="M101.471,399.886h-15.6a4.693,4.693,0,0,0-.221,1.408H100.12a12.169,12.169,0,0,0,6.433-1.84l2.422-1.508-3.373,1.218a12.178,12.178,0,0,1-4.131.722" transform="translate(-33.522 -155.759)" fill="#bd6c67"/>
        <path id="Trazado_731542" data-name="Trazado 731542" d="M123.98,401.294H132.6l.735-3.347H123.98Z" transform="translate(-48.526 -155.759)" fill="#bd6c67"/>
        <path id="Trazado_731543" data-name="Trazado 731543" d="M117.739,382.113H102.524l-7.185,6.127a4.719,4.719,0,0,1-1.636.906l-4.627,1.462a4.7,4.7,0,0,0-3.067,3.081h15.6a12.171,12.171,0,0,0,4.132-.723l3.373-1.217h9.357c1.623-2.84-.735-9.636-.735-9.636" transform="translate(-33.664 -149.561)" fill="#8c404c"/>
        <path id="Trazado_731544" data-name="Trazado 731544" d="M112.336,382.113h15.215l-5.6,1.509a18.22,18.22,0,0,1-10.872-.435Z" transform="translate(-43.476 -149.561)" fill="#422c4f"/>
        <path id="Trazado_731545" data-name="Trazado 731545" d="M180.062,401.2h-4.919l-.913-3.2,5.629-.3Z" transform="translate(-68.195 -155.661)" fill="#422c4f"/>
        <path id="Trazado_731546" data-name="Trazado 731546" d="M183.683,401.2h2.739l.735-3.347-3.677-.152Z" transform="translate(-71.815 -155.661)" fill="#bd6c67"/>
        <path id="Trazado_731547" data-name="Trazado 731547" d="M165.063,399.523H150.657l-.178,1.674h12.9a9.121,9.121,0,0,0,7.182-3.5l-.441.294a9.118,9.118,0,0,1-5.059,1.532" transform="translate(-58.898 -155.661)" fill="#bd6c67"/>
        <path id="Trazado_731548" data-name="Trazado 731548" d="M172.909,382.113H159.723l-3.266,5.257a4.736,4.736,0,0,1-2.495,1.983,4.737,4.737,0,0,0-3.181,3.981l-.009.088h14.405a9.116,9.116,0,0,0,5.059-1.532l.441-.294,3.677.152c2.434-3.8-1.445-9.636-1.445-9.636" transform="translate(-59.013 -149.561)" fill="#8c404c"/>
        <path id="Trazado_731549" data-name="Trazado 731549" d="M165.053,382.113H178.24l-4.762,1.381a14.6,14.6,0,0,1-9.088-.313Z" transform="translate(-64.343 -149.561)" fill="#422c4f"/>
        <rect id="Rectángulo_341860" data-name="Rectángulo 341860" width="40.37" height="4.108" transform="translate(61.963 112.405)" fill="#422c4f"/>
        <rect id="Rectángulo_341861" data-name="Rectángulo 341861" width="1.658" height="4.108" transform="translate(65.718 112.405)" fill="#454f6b"/>
        <rect id="Rectángulo_341862" data-name="Rectángulo 341862" width="1.658" height="4.108" transform="translate(72.033 112.405)" fill="#454f6b"/>
        <rect id="Rectángulo_341863" data-name="Rectángulo 341863" width="1.658" height="4.108" transform="translate(96.102 112.405)" fill="#454f6b"/>
        <rect id="Rectángulo_341864" data-name="Rectángulo 341864" width="1.658" height="4.108" transform="translate(87.992 112.405)" fill="#454f6b"/>
        <path id="Trazado_731550" data-name="Trazado 731550" d="M132.544,189.119h-4.958a1.826,1.826,0,0,1-1.826-1.826v-1.717a1.826,1.826,0,0,1,1.826-1.826h4.958a1.826,1.826,0,0,1,1.826,1.826v1.717a1.826,1.826,0,0,1-1.826,1.826" transform="translate(-49.224 -71.921)" fill="#f0bf6c"/>
        <path id="Trazado_731551" data-name="Trazado 731551" d="M518.545,180.572H414.434a3.651,3.651,0,0,1-3.652-3.652V168.8a3.651,3.651,0,0,1,3.652-3.652H518.545A3.651,3.651,0,0,1,522.2,168.8v8.12a3.651,3.651,0,0,1-3.652,3.652" transform="translate(-160.783 -64.64)" fill="#495375"/>
        <path id="Trazado_731552" data-name="Trazado 731552" d="M451.417,178.03V167.691a2.542,2.542,0,0,1,2.542-2.542h-9.736a2.983,2.983,0,0,0-2.983,2.983v9.458a2.983,2.983,0,0,0,2.983,2.983h9.736a2.542,2.542,0,0,1-2.542-2.542" transform="translate(-172.704 -64.64)" fill="#797c99"/>
        <path id="Trazado_731553" data-name="Trazado 731553" d="M518.545,393.831H414.434a3.651,3.651,0,0,1-3.652-3.652v-8.12a3.652,3.652,0,0,1,3.652-3.652H518.545a3.652,3.652,0,0,1,3.652,3.652v8.12a3.651,3.651,0,0,1-3.652,3.652" transform="translate(-160.783 -148.111)" fill="#495375"/>
        <path id="Trazado_731554" data-name="Trazado 731554" d="M451.417,391.288V380.949a2.542,2.542,0,0,1,2.542-2.542h-9.736a2.983,2.983,0,0,0-2.983,2.983v9.458a2.983,2.983,0,0,0,2.983,2.983h9.736a2.542,2.542,0,0,1-2.542-2.542" transform="translate(-172.704 -148.111)" fill="#797c99"/>
        <path id="Trazado_731555" data-name="Trazado 731555" d="M456.989,258.628h.111a4,4,0,0,0,3.675-4.26V240.979a4,4,0,0,0-3.675-4.26h-.111c-15.676,0-28.382-14.73-28.382-32.9V190.491h-6.721v13.328a32.9,32.9,0,0,0,32.9,32.9h.128a4.26,4.26,0,0,1,4.26,4.26v13.389a4.26,4.26,0,0,1-4.26,4.26h-.128a32.9,32.9,0,0,0-32.9,32.9v13.328h6.721V291.528c0-18.17,12.707-32.9,28.382-32.9" transform="translate(-165.128 -74.559)" fill="#9ee6e0"/>
        <path id="Trazado_731556" data-name="Trazado 731556" d="M520.648,240.979a4.26,4.26,0,0,1,4.26-4.26,32.9,32.9,0,0,0,32.9-32.9V190.491h-6.721v13.328c0,18.17-12.707,32.9-28.382,32.9a4,4,0,0,0-3.675,4.26v13.389a4,4,0,0,0,3.675,4.26c15.675,0,28.382,14.73,28.382,32.9v13.328h6.721V291.528a32.9,32.9,0,0,0-32.9-32.9,4.26,4.26,0,0,1-4.26-4.26V240.979Z" transform="translate(-203.151 -74.559)" fill="#e9ffff"/>
        <path id="Trazado_731557" data-name="Trazado 731557" d="M489,258.628h0a4,4,0,0,1-3.675-4.26V240.979a4,4,0,0,1,3.675-4.26c15.676,0,28.382-14.73,28.382-32.9V190.491H432.929v13.328c0,18.17,12.707,32.9,28.382,32.9h.111a4,4,0,0,1,3.675,4.26v13.389a4,4,0,0,1-3.675,4.26h-.111c-15.675,0-28.382,14.73-28.382,32.9v13.328h84.458V291.528c0-18.17-12.707-32.9-28.382-32.9" transform="translate(-169.451 -74.559)" fill="#d1f4f5"/>
        <path id="Trazado_731558" data-name="Trazado 731558" d="M493.539,296.71A14.623,14.623,0,0,1,478.933,282.1V258.368a14.623,14.623,0,0,1,14.606-14.606,22.526,22.526,0,0,0,17.891-8.844H443.547a22.526,22.526,0,0,0,17.891,8.844h.128a14.623,14.623,0,0,1,14.606,14.606V282.1a14.623,14.623,0,0,1-14.606,14.606h-.128a22.579,22.579,0,0,0-22.554,22.554v2.982h77.208v-2.982a22.579,22.579,0,0,0-22.554-22.554" transform="translate(-171.782 -91.948)" fill="#6ca8bc"/>
        <g id="Grupo_966445" data-name="Grupo 966445" transform="translate(275.788 187.954)" opacity="0.6">
          <g id="Grupo_966444" data-name="Grupo 966444">
            <g id="Grupo_966443" data-name="Grupo 966443" clip-path="url(#clip-path-11)">
              <path id="Trazado_731559" data-name="Trazado 731559" d="M454.994,318.419h6.991a1.819,1.819,0,0,0,1.7-1.176,32.629,32.629,0,0,1,2.705-5.648,1.821,1.821,0,0,0-1.566-2.761h-4.344a1.814,1.814,0,0,0-1.109.369,27.34,27.34,0,0,0-5.911,6.393,1.822,1.822,0,0,0,1.53,2.823" transform="translate(-453.157 -308.834)" fill="#fff"/>
            </g>
          </g>
        </g>
        <g id="Grupo_966448" data-name="Grupo 966448" transform="translate(269.719 119.64)" opacity="0.6">
          <g id="Grupo_966447" data-name="Grupo 966447">
            <g id="Grupo_966446" data-name="Grupo 966446" clip-path="url(#clip-path-12)">
              <path id="Trazado_731560" data-name="Trazado 731560" d="M456.411,201.453a4.869,4.869,0,0,0-4.869-4.869h-3.49a4.869,4.869,0,0,0-4.869,4.869v.2a4.869,4.869,0,0,0,4.869,4.869h3.49a4.871,4.871,0,0,0,4.869-4.875v-.2" transform="translate(-443.184 -196.584)" fill="#fff"/>
            </g>
          </g>
        </g>
        <g id="Grupo_966451" data-name="Grupo 966451" transform="translate(271.088 134.715)" opacity="0.6">
          <g id="Grupo_966450" data-name="Grupo 966450">
            <g id="Grupo_966449" data-name="Grupo 966449" clip-path="url(#clip-path-13)">
              <path id="Trazado_731561" data-name="Trazado 731561" d="M474.63,259.754v-6.695c0-2.353-.887-4.26-1.981-4.26h-.06c-6.881,0-12.7-9.772-14.62-23.215a4.89,4.89,0,0,0-4.826-4.229h-2.826a4.857,4.857,0,0,0-4.709,6.11c3.441,12.463,12.279,21.334,22.644,21.334h.094c1.73,0,3.132,1.907,3.132,4.26v10.983a1.576,1.576,0,1,0,3.151,0Z" transform="translate(-445.434 -221.355)" fill="#fff"/>
            </g>
          </g>
        </g>
        <g id="Grupo_966454" data-name="Grupo 966454" transform="translate(269.719 205.604)" opacity="0.6">
          <g id="Grupo_966453" data-name="Grupo 966453">
            <g id="Grupo_966452" data-name="Grupo 966452" clip-path="url(#clip-path-14)">
              <path id="Trazado_731562" data-name="Trazado 731562" d="M456.411,349.2c0-2.3.11-4.543.318-6.708a4.252,4.252,0,0,0-4.238-4.657h-4.418a4.241,4.241,0,0,0-4.185,3.454,44.313,44.313,0,0,0-.7,7.911v3.1a4.26,4.26,0,0,0,4.26,4.26h4.707a4.26,4.26,0,0,0,4.26-4.26Z" transform="translate(-443.184 -337.834)" fill="#fff"/>
            </g>
          </g>
        </g>
        <path id="Trazado_731563" data-name="Trazado 731563" d="M415.7,404.953h0a1.5,1.5,0,0,0-1.495-1.495H67.056a1.495,1.495,0,1,0,0,2.989h26.69a1.495,1.495,0,0,1,0,2.989H67.056a1.495,1.495,0,0,0,0,2.989H369.073a1.495,1.495,0,1,0,0-2.989H315.7a1.495,1.495,0,1,1,0-2.989H414.21a1.5,1.5,0,0,0,1.495-1.495" transform="translate(-25.661 -157.916)" fill="#6ca8bc"/>
        <path id="Trazado_731564" data-name="Trazado 731564" d="M23.556,406.447H43.794a1.495,1.495,0,1,0,0-2.989H23.556a1.495,1.495,0,1,0,0,2.989" transform="translate(-8.635 -157.916)" fill="#6ca8bc"/>
        <path id="Trazado_731565" data-name="Trazado 731565" d="M41.722,416.271h5.429a1.495,1.495,0,0,0,0-2.989H41.722a1.495,1.495,0,0,0,0,2.989" transform="translate(-15.745 -161.761)" fill="#6ca8bc"/>
        <path id="Trazado_731566" data-name="Trazado 731566" d="M588.619,416.271H573.2a1.495,1.495,0,0,1,0-2.989h15.421a1.495,1.495,0,0,1,0,2.989" transform="translate(-223.768 -161.761)" fill="#6ca8bc"/>
      </g>
    </g>
  </g>
</svg>
